%TF.GenerationSoftware,KiCad,Pcbnew,7.0.10-7.0.10~ubuntu20.04.1*%
%TF.CreationDate,2024-02-21T21:03:59-05:00*%
%TF.ProjectId,schematics,73636865-6d61-4746-9963-732e6b696361,rev?*%
%TF.SameCoordinates,Original*%
%TF.FileFunction,Legend,Top*%
%TF.FilePolarity,Positive*%
%FSLAX46Y46*%
G04 Gerber Fmt 4.6, Leading zero omitted, Abs format (unit mm)*
G04 Created by KiCad (PCBNEW 7.0.10-7.0.10~ubuntu20.04.1) date 2024-02-21 21:03:59*
%MOMM*%
%LPD*%
G01*
G04 APERTURE LIST*
%ADD10C,0.150000*%
%ADD11C,0.120000*%
%ADD12C,1.000000*%
%ADD13C,0.800000*%
G04 APERTURE END LIST*
D10*
X175386666Y-51926819D02*
X175386666Y-52641104D01*
X175386666Y-52641104D02*
X175339047Y-52783961D01*
X175339047Y-52783961D02*
X175243809Y-52879200D01*
X175243809Y-52879200D02*
X175100952Y-52926819D01*
X175100952Y-52926819D02*
X175005714Y-52926819D01*
X176386666Y-52926819D02*
X175815238Y-52926819D01*
X176100952Y-52926819D02*
X176100952Y-51926819D01*
X176100952Y-51926819D02*
X176005714Y-52069676D01*
X176005714Y-52069676D02*
X175910476Y-52164914D01*
X175910476Y-52164914D02*
X175815238Y-52212533D01*
X156043333Y-62589580D02*
X155995714Y-62637200D01*
X155995714Y-62637200D02*
X155852857Y-62684819D01*
X155852857Y-62684819D02*
X155757619Y-62684819D01*
X155757619Y-62684819D02*
X155614762Y-62637200D01*
X155614762Y-62637200D02*
X155519524Y-62541961D01*
X155519524Y-62541961D02*
X155471905Y-62446723D01*
X155471905Y-62446723D02*
X155424286Y-62256247D01*
X155424286Y-62256247D02*
X155424286Y-62113390D01*
X155424286Y-62113390D02*
X155471905Y-61922914D01*
X155471905Y-61922914D02*
X155519524Y-61827676D01*
X155519524Y-61827676D02*
X155614762Y-61732438D01*
X155614762Y-61732438D02*
X155757619Y-61684819D01*
X155757619Y-61684819D02*
X155852857Y-61684819D01*
X155852857Y-61684819D02*
X155995714Y-61732438D01*
X155995714Y-61732438D02*
X156043333Y-61780057D01*
X156995714Y-62684819D02*
X156424286Y-62684819D01*
X156710000Y-62684819D02*
X156710000Y-61684819D01*
X156710000Y-61684819D02*
X156614762Y-61827676D01*
X156614762Y-61827676D02*
X156519524Y-61922914D01*
X156519524Y-61922914D02*
X156424286Y-61970533D01*
X163999104Y-69284285D02*
X163999104Y-68808095D01*
X164284819Y-69379523D02*
X163284819Y-69046190D01*
X163284819Y-69046190D02*
X164284819Y-68712857D01*
X163380057Y-68427142D02*
X163332438Y-68379523D01*
X163332438Y-68379523D02*
X163284819Y-68284285D01*
X163284819Y-68284285D02*
X163284819Y-68046190D01*
X163284819Y-68046190D02*
X163332438Y-67950952D01*
X163332438Y-67950952D02*
X163380057Y-67903333D01*
X163380057Y-67903333D02*
X163475295Y-67855714D01*
X163475295Y-67855714D02*
X163570533Y-67855714D01*
X163570533Y-67855714D02*
X163713390Y-67903333D01*
X163713390Y-67903333D02*
X164284819Y-68474761D01*
X164284819Y-68474761D02*
X164284819Y-67855714D01*
X200977319Y-89066666D02*
X200501128Y-89399999D01*
X200977319Y-89638094D02*
X199977319Y-89638094D01*
X199977319Y-89638094D02*
X199977319Y-89257142D01*
X199977319Y-89257142D02*
X200024938Y-89161904D01*
X200024938Y-89161904D02*
X200072557Y-89114285D01*
X200072557Y-89114285D02*
X200167795Y-89066666D01*
X200167795Y-89066666D02*
X200310652Y-89066666D01*
X200310652Y-89066666D02*
X200405890Y-89114285D01*
X200405890Y-89114285D02*
X200453509Y-89161904D01*
X200453509Y-89161904D02*
X200501128Y-89257142D01*
X200501128Y-89257142D02*
X200501128Y-89638094D01*
X200072557Y-88685713D02*
X200024938Y-88638094D01*
X200024938Y-88638094D02*
X199977319Y-88542856D01*
X199977319Y-88542856D02*
X199977319Y-88304761D01*
X199977319Y-88304761D02*
X200024938Y-88209523D01*
X200024938Y-88209523D02*
X200072557Y-88161904D01*
X200072557Y-88161904D02*
X200167795Y-88114285D01*
X200167795Y-88114285D02*
X200263033Y-88114285D01*
X200263033Y-88114285D02*
X200405890Y-88161904D01*
X200405890Y-88161904D02*
X200977319Y-88733332D01*
X200977319Y-88733332D02*
X200977319Y-88114285D01*
X161574819Y-87796666D02*
X161098628Y-88129999D01*
X161574819Y-88368094D02*
X160574819Y-88368094D01*
X160574819Y-88368094D02*
X160574819Y-87987142D01*
X160574819Y-87987142D02*
X160622438Y-87891904D01*
X160622438Y-87891904D02*
X160670057Y-87844285D01*
X160670057Y-87844285D02*
X160765295Y-87796666D01*
X160765295Y-87796666D02*
X160908152Y-87796666D01*
X160908152Y-87796666D02*
X161003390Y-87844285D01*
X161003390Y-87844285D02*
X161051009Y-87891904D01*
X161051009Y-87891904D02*
X161098628Y-87987142D01*
X161098628Y-87987142D02*
X161098628Y-88368094D01*
X160908152Y-86939523D02*
X161574819Y-86939523D01*
X160527200Y-87177618D02*
X161241485Y-87415713D01*
X161241485Y-87415713D02*
X161241485Y-86796666D01*
X212057200Y-88169523D02*
X212104819Y-88026666D01*
X212104819Y-88026666D02*
X212104819Y-87788571D01*
X212104819Y-87788571D02*
X212057200Y-87693333D01*
X212057200Y-87693333D02*
X212009580Y-87645714D01*
X212009580Y-87645714D02*
X211914342Y-87598095D01*
X211914342Y-87598095D02*
X211819104Y-87598095D01*
X211819104Y-87598095D02*
X211723866Y-87645714D01*
X211723866Y-87645714D02*
X211676247Y-87693333D01*
X211676247Y-87693333D02*
X211628628Y-87788571D01*
X211628628Y-87788571D02*
X211581009Y-87979047D01*
X211581009Y-87979047D02*
X211533390Y-88074285D01*
X211533390Y-88074285D02*
X211485771Y-88121904D01*
X211485771Y-88121904D02*
X211390533Y-88169523D01*
X211390533Y-88169523D02*
X211295295Y-88169523D01*
X211295295Y-88169523D02*
X211200057Y-88121904D01*
X211200057Y-88121904D02*
X211152438Y-88074285D01*
X211152438Y-88074285D02*
X211104819Y-87979047D01*
X211104819Y-87979047D02*
X211104819Y-87740952D01*
X211104819Y-87740952D02*
X211152438Y-87598095D01*
X211104819Y-87264761D02*
X212104819Y-87026666D01*
X212104819Y-87026666D02*
X211390533Y-86836190D01*
X211390533Y-86836190D02*
X212104819Y-86645714D01*
X212104819Y-86645714D02*
X211104819Y-86407619D01*
X212104819Y-85502857D02*
X212104819Y-86074285D01*
X212104819Y-85788571D02*
X211104819Y-85788571D01*
X211104819Y-85788571D02*
X211247676Y-85883809D01*
X211247676Y-85883809D02*
X211342914Y-85979047D01*
X211342914Y-85979047D02*
X211390533Y-86074285D01*
X211104819Y-84883809D02*
X211104819Y-84788571D01*
X211104819Y-84788571D02*
X211152438Y-84693333D01*
X211152438Y-84693333D02*
X211200057Y-84645714D01*
X211200057Y-84645714D02*
X211295295Y-84598095D01*
X211295295Y-84598095D02*
X211485771Y-84550476D01*
X211485771Y-84550476D02*
X211723866Y-84550476D01*
X211723866Y-84550476D02*
X211914342Y-84598095D01*
X211914342Y-84598095D02*
X212009580Y-84645714D01*
X212009580Y-84645714D02*
X212057200Y-84693333D01*
X212057200Y-84693333D02*
X212104819Y-84788571D01*
X212104819Y-84788571D02*
X212104819Y-84883809D01*
X212104819Y-84883809D02*
X212057200Y-84979047D01*
X212057200Y-84979047D02*
X212009580Y-85026666D01*
X212009580Y-85026666D02*
X211914342Y-85074285D01*
X211914342Y-85074285D02*
X211723866Y-85121904D01*
X211723866Y-85121904D02*
X211485771Y-85121904D01*
X211485771Y-85121904D02*
X211295295Y-85074285D01*
X211295295Y-85074285D02*
X211200057Y-85026666D01*
X211200057Y-85026666D02*
X211152438Y-84979047D01*
X211152438Y-84979047D02*
X211104819Y-84883809D01*
X178639700Y-87650832D02*
X178687319Y-87507975D01*
X178687319Y-87507975D02*
X178687319Y-87269880D01*
X178687319Y-87269880D02*
X178639700Y-87174642D01*
X178639700Y-87174642D02*
X178592080Y-87127023D01*
X178592080Y-87127023D02*
X178496842Y-87079404D01*
X178496842Y-87079404D02*
X178401604Y-87079404D01*
X178401604Y-87079404D02*
X178306366Y-87127023D01*
X178306366Y-87127023D02*
X178258747Y-87174642D01*
X178258747Y-87174642D02*
X178211128Y-87269880D01*
X178211128Y-87269880D02*
X178163509Y-87460356D01*
X178163509Y-87460356D02*
X178115890Y-87555594D01*
X178115890Y-87555594D02*
X178068271Y-87603213D01*
X178068271Y-87603213D02*
X177973033Y-87650832D01*
X177973033Y-87650832D02*
X177877795Y-87650832D01*
X177877795Y-87650832D02*
X177782557Y-87603213D01*
X177782557Y-87603213D02*
X177734938Y-87555594D01*
X177734938Y-87555594D02*
X177687319Y-87460356D01*
X177687319Y-87460356D02*
X177687319Y-87222261D01*
X177687319Y-87222261D02*
X177734938Y-87079404D01*
X177687319Y-86746070D02*
X178687319Y-86507975D01*
X178687319Y-86507975D02*
X177973033Y-86317499D01*
X177973033Y-86317499D02*
X178687319Y-86127023D01*
X178687319Y-86127023D02*
X177687319Y-85888928D01*
X177782557Y-85555594D02*
X177734938Y-85507975D01*
X177734938Y-85507975D02*
X177687319Y-85412737D01*
X177687319Y-85412737D02*
X177687319Y-85174642D01*
X177687319Y-85174642D02*
X177734938Y-85079404D01*
X177734938Y-85079404D02*
X177782557Y-85031785D01*
X177782557Y-85031785D02*
X177877795Y-84984166D01*
X177877795Y-84984166D02*
X177973033Y-84984166D01*
X177973033Y-84984166D02*
X178115890Y-85031785D01*
X178115890Y-85031785D02*
X178687319Y-85603213D01*
X178687319Y-85603213D02*
X178687319Y-84984166D01*
X164637200Y-87650832D02*
X164684819Y-87507975D01*
X164684819Y-87507975D02*
X164684819Y-87269880D01*
X164684819Y-87269880D02*
X164637200Y-87174642D01*
X164637200Y-87174642D02*
X164589580Y-87127023D01*
X164589580Y-87127023D02*
X164494342Y-87079404D01*
X164494342Y-87079404D02*
X164399104Y-87079404D01*
X164399104Y-87079404D02*
X164303866Y-87127023D01*
X164303866Y-87127023D02*
X164256247Y-87174642D01*
X164256247Y-87174642D02*
X164208628Y-87269880D01*
X164208628Y-87269880D02*
X164161009Y-87460356D01*
X164161009Y-87460356D02*
X164113390Y-87555594D01*
X164113390Y-87555594D02*
X164065771Y-87603213D01*
X164065771Y-87603213D02*
X163970533Y-87650832D01*
X163970533Y-87650832D02*
X163875295Y-87650832D01*
X163875295Y-87650832D02*
X163780057Y-87603213D01*
X163780057Y-87603213D02*
X163732438Y-87555594D01*
X163732438Y-87555594D02*
X163684819Y-87460356D01*
X163684819Y-87460356D02*
X163684819Y-87222261D01*
X163684819Y-87222261D02*
X163732438Y-87079404D01*
X163684819Y-86746070D02*
X164684819Y-86507975D01*
X164684819Y-86507975D02*
X163970533Y-86317499D01*
X163970533Y-86317499D02*
X164684819Y-86127023D01*
X164684819Y-86127023D02*
X163684819Y-85888928D01*
X164684819Y-84984166D02*
X164684819Y-85555594D01*
X164684819Y-85269880D02*
X163684819Y-85269880D01*
X163684819Y-85269880D02*
X163827676Y-85365118D01*
X163827676Y-85365118D02*
X163922914Y-85460356D01*
X163922914Y-85460356D02*
X163970533Y-85555594D01*
X153484819Y-77613333D02*
X154199104Y-77613333D01*
X154199104Y-77613333D02*
X154341961Y-77660952D01*
X154341961Y-77660952D02*
X154437200Y-77756190D01*
X154437200Y-77756190D02*
X154484819Y-77899047D01*
X154484819Y-77899047D02*
X154484819Y-77994285D01*
X153484819Y-77232380D02*
X153484819Y-76613333D01*
X153484819Y-76613333D02*
X153865771Y-76946666D01*
X153865771Y-76946666D02*
X153865771Y-76803809D01*
X153865771Y-76803809D02*
X153913390Y-76708571D01*
X153913390Y-76708571D02*
X153961009Y-76660952D01*
X153961009Y-76660952D02*
X154056247Y-76613333D01*
X154056247Y-76613333D02*
X154294342Y-76613333D01*
X154294342Y-76613333D02*
X154389580Y-76660952D01*
X154389580Y-76660952D02*
X154437200Y-76708571D01*
X154437200Y-76708571D02*
X154484819Y-76803809D01*
X154484819Y-76803809D02*
X154484819Y-77089523D01*
X154484819Y-77089523D02*
X154437200Y-77184761D01*
X154437200Y-77184761D02*
X154389580Y-77232380D01*
X201897200Y-87693332D02*
X201944819Y-87550475D01*
X201944819Y-87550475D02*
X201944819Y-87312380D01*
X201944819Y-87312380D02*
X201897200Y-87217142D01*
X201897200Y-87217142D02*
X201849580Y-87169523D01*
X201849580Y-87169523D02*
X201754342Y-87121904D01*
X201754342Y-87121904D02*
X201659104Y-87121904D01*
X201659104Y-87121904D02*
X201563866Y-87169523D01*
X201563866Y-87169523D02*
X201516247Y-87217142D01*
X201516247Y-87217142D02*
X201468628Y-87312380D01*
X201468628Y-87312380D02*
X201421009Y-87502856D01*
X201421009Y-87502856D02*
X201373390Y-87598094D01*
X201373390Y-87598094D02*
X201325771Y-87645713D01*
X201325771Y-87645713D02*
X201230533Y-87693332D01*
X201230533Y-87693332D02*
X201135295Y-87693332D01*
X201135295Y-87693332D02*
X201040057Y-87645713D01*
X201040057Y-87645713D02*
X200992438Y-87598094D01*
X200992438Y-87598094D02*
X200944819Y-87502856D01*
X200944819Y-87502856D02*
X200944819Y-87264761D01*
X200944819Y-87264761D02*
X200992438Y-87121904D01*
X200944819Y-86788570D02*
X201944819Y-86550475D01*
X201944819Y-86550475D02*
X201230533Y-86359999D01*
X201230533Y-86359999D02*
X201944819Y-86169523D01*
X201944819Y-86169523D02*
X200944819Y-85931428D01*
X201944819Y-85502856D02*
X201944819Y-85312380D01*
X201944819Y-85312380D02*
X201897200Y-85217142D01*
X201897200Y-85217142D02*
X201849580Y-85169523D01*
X201849580Y-85169523D02*
X201706723Y-85074285D01*
X201706723Y-85074285D02*
X201516247Y-85026666D01*
X201516247Y-85026666D02*
X201135295Y-85026666D01*
X201135295Y-85026666D02*
X201040057Y-85074285D01*
X201040057Y-85074285D02*
X200992438Y-85121904D01*
X200992438Y-85121904D02*
X200944819Y-85217142D01*
X200944819Y-85217142D02*
X200944819Y-85407618D01*
X200944819Y-85407618D02*
X200992438Y-85502856D01*
X200992438Y-85502856D02*
X201040057Y-85550475D01*
X201040057Y-85550475D02*
X201135295Y-85598094D01*
X201135295Y-85598094D02*
X201373390Y-85598094D01*
X201373390Y-85598094D02*
X201468628Y-85550475D01*
X201468628Y-85550475D02*
X201516247Y-85502856D01*
X201516247Y-85502856D02*
X201563866Y-85407618D01*
X201563866Y-85407618D02*
X201563866Y-85217142D01*
X201563866Y-85217142D02*
X201516247Y-85121904D01*
X201516247Y-85121904D02*
X201468628Y-85074285D01*
X201468628Y-85074285D02*
X201373390Y-85026666D01*
X128074819Y-79501904D02*
X128884342Y-79501904D01*
X128884342Y-79501904D02*
X128979580Y-79454285D01*
X128979580Y-79454285D02*
X129027200Y-79406666D01*
X129027200Y-79406666D02*
X129074819Y-79311428D01*
X129074819Y-79311428D02*
X129074819Y-79120952D01*
X129074819Y-79120952D02*
X129027200Y-79025714D01*
X129027200Y-79025714D02*
X128979580Y-78978095D01*
X128979580Y-78978095D02*
X128884342Y-78930476D01*
X128884342Y-78930476D02*
X128074819Y-78930476D01*
X129074819Y-77930476D02*
X129074819Y-78501904D01*
X129074819Y-78216190D02*
X128074819Y-78216190D01*
X128074819Y-78216190D02*
X128217676Y-78311428D01*
X128217676Y-78311428D02*
X128312914Y-78406666D01*
X128312914Y-78406666D02*
X128360533Y-78501904D01*
X99341009Y-87479047D02*
X99388628Y-87336190D01*
X99388628Y-87336190D02*
X99436247Y-87288571D01*
X99436247Y-87288571D02*
X99531485Y-87240952D01*
X99531485Y-87240952D02*
X99674342Y-87240952D01*
X99674342Y-87240952D02*
X99769580Y-87288571D01*
X99769580Y-87288571D02*
X99817200Y-87336190D01*
X99817200Y-87336190D02*
X99864819Y-87431428D01*
X99864819Y-87431428D02*
X99864819Y-87812380D01*
X99864819Y-87812380D02*
X98864819Y-87812380D01*
X98864819Y-87812380D02*
X98864819Y-87479047D01*
X98864819Y-87479047D02*
X98912438Y-87383809D01*
X98912438Y-87383809D02*
X98960057Y-87336190D01*
X98960057Y-87336190D02*
X99055295Y-87288571D01*
X99055295Y-87288571D02*
X99150533Y-87288571D01*
X99150533Y-87288571D02*
X99245771Y-87336190D01*
X99245771Y-87336190D02*
X99293390Y-87383809D01*
X99293390Y-87383809D02*
X99341009Y-87479047D01*
X99341009Y-87479047D02*
X99341009Y-87812380D01*
X99864819Y-86669523D02*
X99817200Y-86764761D01*
X99817200Y-86764761D02*
X99769580Y-86812380D01*
X99769580Y-86812380D02*
X99674342Y-86859999D01*
X99674342Y-86859999D02*
X99388628Y-86859999D01*
X99388628Y-86859999D02*
X99293390Y-86812380D01*
X99293390Y-86812380D02*
X99245771Y-86764761D01*
X99245771Y-86764761D02*
X99198152Y-86669523D01*
X99198152Y-86669523D02*
X99198152Y-86526666D01*
X99198152Y-86526666D02*
X99245771Y-86431428D01*
X99245771Y-86431428D02*
X99293390Y-86383809D01*
X99293390Y-86383809D02*
X99388628Y-86336190D01*
X99388628Y-86336190D02*
X99674342Y-86336190D01*
X99674342Y-86336190D02*
X99769580Y-86383809D01*
X99769580Y-86383809D02*
X99817200Y-86431428D01*
X99817200Y-86431428D02*
X99864819Y-86526666D01*
X99864819Y-86526666D02*
X99864819Y-86669523D01*
X99864819Y-85764761D02*
X99817200Y-85859999D01*
X99817200Y-85859999D02*
X99769580Y-85907618D01*
X99769580Y-85907618D02*
X99674342Y-85955237D01*
X99674342Y-85955237D02*
X99388628Y-85955237D01*
X99388628Y-85955237D02*
X99293390Y-85907618D01*
X99293390Y-85907618D02*
X99245771Y-85859999D01*
X99245771Y-85859999D02*
X99198152Y-85764761D01*
X99198152Y-85764761D02*
X99198152Y-85621904D01*
X99198152Y-85621904D02*
X99245771Y-85526666D01*
X99245771Y-85526666D02*
X99293390Y-85479047D01*
X99293390Y-85479047D02*
X99388628Y-85431428D01*
X99388628Y-85431428D02*
X99674342Y-85431428D01*
X99674342Y-85431428D02*
X99769580Y-85479047D01*
X99769580Y-85479047D02*
X99817200Y-85526666D01*
X99817200Y-85526666D02*
X99864819Y-85621904D01*
X99864819Y-85621904D02*
X99864819Y-85764761D01*
X99198152Y-85145713D02*
X99198152Y-84764761D01*
X98864819Y-85002856D02*
X99721961Y-85002856D01*
X99721961Y-85002856D02*
X99817200Y-84955237D01*
X99817200Y-84955237D02*
X99864819Y-84859999D01*
X99864819Y-84859999D02*
X99864819Y-84764761D01*
X95054819Y-80001904D02*
X95864342Y-80001904D01*
X95864342Y-80001904D02*
X95959580Y-79954285D01*
X95959580Y-79954285D02*
X96007200Y-79906666D01*
X96007200Y-79906666D02*
X96054819Y-79811428D01*
X96054819Y-79811428D02*
X96054819Y-79620952D01*
X96054819Y-79620952D02*
X96007200Y-79525714D01*
X96007200Y-79525714D02*
X95959580Y-79478095D01*
X95959580Y-79478095D02*
X95864342Y-79430476D01*
X95864342Y-79430476D02*
X95054819Y-79430476D01*
X96007200Y-79001904D02*
X96054819Y-78859047D01*
X96054819Y-78859047D02*
X96054819Y-78620952D01*
X96054819Y-78620952D02*
X96007200Y-78525714D01*
X96007200Y-78525714D02*
X95959580Y-78478095D01*
X95959580Y-78478095D02*
X95864342Y-78430476D01*
X95864342Y-78430476D02*
X95769104Y-78430476D01*
X95769104Y-78430476D02*
X95673866Y-78478095D01*
X95673866Y-78478095D02*
X95626247Y-78525714D01*
X95626247Y-78525714D02*
X95578628Y-78620952D01*
X95578628Y-78620952D02*
X95531009Y-78811428D01*
X95531009Y-78811428D02*
X95483390Y-78906666D01*
X95483390Y-78906666D02*
X95435771Y-78954285D01*
X95435771Y-78954285D02*
X95340533Y-79001904D01*
X95340533Y-79001904D02*
X95245295Y-79001904D01*
X95245295Y-79001904D02*
X95150057Y-78954285D01*
X95150057Y-78954285D02*
X95102438Y-78906666D01*
X95102438Y-78906666D02*
X95054819Y-78811428D01*
X95054819Y-78811428D02*
X95054819Y-78573333D01*
X95054819Y-78573333D02*
X95102438Y-78430476D01*
X95531009Y-77668571D02*
X95578628Y-77525714D01*
X95578628Y-77525714D02*
X95626247Y-77478095D01*
X95626247Y-77478095D02*
X95721485Y-77430476D01*
X95721485Y-77430476D02*
X95864342Y-77430476D01*
X95864342Y-77430476D02*
X95959580Y-77478095D01*
X95959580Y-77478095D02*
X96007200Y-77525714D01*
X96007200Y-77525714D02*
X96054819Y-77620952D01*
X96054819Y-77620952D02*
X96054819Y-78001904D01*
X96054819Y-78001904D02*
X95054819Y-78001904D01*
X95054819Y-78001904D02*
X95054819Y-77668571D01*
X95054819Y-77668571D02*
X95102438Y-77573333D01*
X95102438Y-77573333D02*
X95150057Y-77525714D01*
X95150057Y-77525714D02*
X95245295Y-77478095D01*
X95245295Y-77478095D02*
X95340533Y-77478095D01*
X95340533Y-77478095D02*
X95435771Y-77525714D01*
X95435771Y-77525714D02*
X95483390Y-77573333D01*
X95483390Y-77573333D02*
X95531009Y-77668571D01*
X95531009Y-77668571D02*
X95531009Y-78001904D01*
X99341009Y-73381904D02*
X99341009Y-73048571D01*
X99864819Y-72905714D02*
X99864819Y-73381904D01*
X99864819Y-73381904D02*
X98864819Y-73381904D01*
X98864819Y-73381904D02*
X98864819Y-72905714D01*
X99198152Y-72477142D02*
X99864819Y-72477142D01*
X99293390Y-72477142D02*
X99245771Y-72429523D01*
X99245771Y-72429523D02*
X99198152Y-72334285D01*
X99198152Y-72334285D02*
X99198152Y-72191428D01*
X99198152Y-72191428D02*
X99245771Y-72096190D01*
X99245771Y-72096190D02*
X99341009Y-72048571D01*
X99341009Y-72048571D02*
X99864819Y-72048571D01*
X99864819Y-71143809D02*
X99341009Y-71143809D01*
X99341009Y-71143809D02*
X99245771Y-71191428D01*
X99245771Y-71191428D02*
X99198152Y-71286666D01*
X99198152Y-71286666D02*
X99198152Y-71477142D01*
X99198152Y-71477142D02*
X99245771Y-71572380D01*
X99817200Y-71143809D02*
X99864819Y-71239047D01*
X99864819Y-71239047D02*
X99864819Y-71477142D01*
X99864819Y-71477142D02*
X99817200Y-71572380D01*
X99817200Y-71572380D02*
X99721961Y-71619999D01*
X99721961Y-71619999D02*
X99626723Y-71619999D01*
X99626723Y-71619999D02*
X99531485Y-71572380D01*
X99531485Y-71572380D02*
X99483866Y-71477142D01*
X99483866Y-71477142D02*
X99483866Y-71239047D01*
X99483866Y-71239047D02*
X99436247Y-71143809D01*
X99864819Y-70667618D02*
X98864819Y-70667618D01*
X99245771Y-70667618D02*
X99198152Y-70572380D01*
X99198152Y-70572380D02*
X99198152Y-70381904D01*
X99198152Y-70381904D02*
X99245771Y-70286666D01*
X99245771Y-70286666D02*
X99293390Y-70239047D01*
X99293390Y-70239047D02*
X99388628Y-70191428D01*
X99388628Y-70191428D02*
X99674342Y-70191428D01*
X99674342Y-70191428D02*
X99769580Y-70239047D01*
X99769580Y-70239047D02*
X99817200Y-70286666D01*
X99817200Y-70286666D02*
X99864819Y-70381904D01*
X99864819Y-70381904D02*
X99864819Y-70572380D01*
X99864819Y-70572380D02*
X99817200Y-70667618D01*
X99864819Y-69619999D02*
X99817200Y-69715237D01*
X99817200Y-69715237D02*
X99721961Y-69762856D01*
X99721961Y-69762856D02*
X98864819Y-69762856D01*
X99817200Y-68858094D02*
X99864819Y-68953332D01*
X99864819Y-68953332D02*
X99864819Y-69143808D01*
X99864819Y-69143808D02*
X99817200Y-69239046D01*
X99817200Y-69239046D02*
X99721961Y-69286665D01*
X99721961Y-69286665D02*
X99341009Y-69286665D01*
X99341009Y-69286665D02*
X99245771Y-69239046D01*
X99245771Y-69239046D02*
X99198152Y-69143808D01*
X99198152Y-69143808D02*
X99198152Y-68953332D01*
X99198152Y-68953332D02*
X99245771Y-68858094D01*
X99245771Y-68858094D02*
X99341009Y-68810475D01*
X99341009Y-68810475D02*
X99436247Y-68810475D01*
X99436247Y-68810475D02*
X99531485Y-69286665D01*
X163663333Y-62589580D02*
X163615714Y-62637200D01*
X163615714Y-62637200D02*
X163472857Y-62684819D01*
X163472857Y-62684819D02*
X163377619Y-62684819D01*
X163377619Y-62684819D02*
X163234762Y-62637200D01*
X163234762Y-62637200D02*
X163139524Y-62541961D01*
X163139524Y-62541961D02*
X163091905Y-62446723D01*
X163091905Y-62446723D02*
X163044286Y-62256247D01*
X163044286Y-62256247D02*
X163044286Y-62113390D01*
X163044286Y-62113390D02*
X163091905Y-61922914D01*
X163091905Y-61922914D02*
X163139524Y-61827676D01*
X163139524Y-61827676D02*
X163234762Y-61732438D01*
X163234762Y-61732438D02*
X163377619Y-61684819D01*
X163377619Y-61684819D02*
X163472857Y-61684819D01*
X163472857Y-61684819D02*
X163615714Y-61732438D01*
X163615714Y-61732438D02*
X163663333Y-61780057D01*
X164044286Y-61780057D02*
X164091905Y-61732438D01*
X164091905Y-61732438D02*
X164187143Y-61684819D01*
X164187143Y-61684819D02*
X164425238Y-61684819D01*
X164425238Y-61684819D02*
X164520476Y-61732438D01*
X164520476Y-61732438D02*
X164568095Y-61780057D01*
X164568095Y-61780057D02*
X164615714Y-61875295D01*
X164615714Y-61875295D02*
X164615714Y-61970533D01*
X164615714Y-61970533D02*
X164568095Y-62113390D01*
X164568095Y-62113390D02*
X163996667Y-62684819D01*
X163996667Y-62684819D02*
X164615714Y-62684819D01*
X146986666Y-54354819D02*
X146986666Y-55069104D01*
X146986666Y-55069104D02*
X146939047Y-55211961D01*
X146939047Y-55211961D02*
X146843809Y-55307200D01*
X146843809Y-55307200D02*
X146700952Y-55354819D01*
X146700952Y-55354819D02*
X146605714Y-55354819D01*
X147367619Y-54354819D02*
X148034285Y-54354819D01*
X148034285Y-54354819D02*
X147605714Y-55354819D01*
X105076666Y-51734819D02*
X105076666Y-52449104D01*
X105076666Y-52449104D02*
X105029047Y-52591961D01*
X105029047Y-52591961D02*
X104933809Y-52687200D01*
X104933809Y-52687200D02*
X104790952Y-52734819D01*
X104790952Y-52734819D02*
X104695714Y-52734819D01*
X105981428Y-51734819D02*
X105790952Y-51734819D01*
X105790952Y-51734819D02*
X105695714Y-51782438D01*
X105695714Y-51782438D02*
X105648095Y-51830057D01*
X105648095Y-51830057D02*
X105552857Y-51972914D01*
X105552857Y-51972914D02*
X105505238Y-52163390D01*
X105505238Y-52163390D02*
X105505238Y-52544342D01*
X105505238Y-52544342D02*
X105552857Y-52639580D01*
X105552857Y-52639580D02*
X105600476Y-52687200D01*
X105600476Y-52687200D02*
X105695714Y-52734819D01*
X105695714Y-52734819D02*
X105886190Y-52734819D01*
X105886190Y-52734819D02*
X105981428Y-52687200D01*
X105981428Y-52687200D02*
X106029047Y-52639580D01*
X106029047Y-52639580D02*
X106076666Y-52544342D01*
X106076666Y-52544342D02*
X106076666Y-52306247D01*
X106076666Y-52306247D02*
X106029047Y-52211009D01*
X106029047Y-52211009D02*
X105981428Y-52163390D01*
X105981428Y-52163390D02*
X105886190Y-52115771D01*
X105886190Y-52115771D02*
X105695714Y-52115771D01*
X105695714Y-52115771D02*
X105600476Y-52163390D01*
X105600476Y-52163390D02*
X105552857Y-52211009D01*
X105552857Y-52211009D02*
X105505238Y-52306247D01*
X217106666Y-52434819D02*
X217106666Y-53149104D01*
X217106666Y-53149104D02*
X217059047Y-53291961D01*
X217059047Y-53291961D02*
X216963809Y-53387200D01*
X216963809Y-53387200D02*
X216820952Y-53434819D01*
X216820952Y-53434819D02*
X216725714Y-53434819D01*
X218011428Y-52768152D02*
X218011428Y-53434819D01*
X217773333Y-52387200D02*
X217535238Y-53101485D01*
X217535238Y-53101485D02*
X218154285Y-53101485D01*
X125396666Y-89414819D02*
X125396666Y-90129104D01*
X125396666Y-90129104D02*
X125349047Y-90271961D01*
X125349047Y-90271961D02*
X125253809Y-90367200D01*
X125253809Y-90367200D02*
X125110952Y-90414819D01*
X125110952Y-90414819D02*
X125015714Y-90414819D01*
X126349047Y-89414819D02*
X125872857Y-89414819D01*
X125872857Y-89414819D02*
X125825238Y-89891009D01*
X125825238Y-89891009D02*
X125872857Y-89843390D01*
X125872857Y-89843390D02*
X125968095Y-89795771D01*
X125968095Y-89795771D02*
X126206190Y-89795771D01*
X126206190Y-89795771D02*
X126301428Y-89843390D01*
X126301428Y-89843390D02*
X126349047Y-89891009D01*
X126349047Y-89891009D02*
X126396666Y-89986247D01*
X126396666Y-89986247D02*
X126396666Y-90224342D01*
X126396666Y-90224342D02*
X126349047Y-90319580D01*
X126349047Y-90319580D02*
X126301428Y-90367200D01*
X126301428Y-90367200D02*
X126206190Y-90414819D01*
X126206190Y-90414819D02*
X125968095Y-90414819D01*
X125968095Y-90414819D02*
X125872857Y-90367200D01*
X125872857Y-90367200D02*
X125825238Y-90319580D01*
X165384819Y-87796666D02*
X164908628Y-88129999D01*
X165384819Y-88368094D02*
X164384819Y-88368094D01*
X164384819Y-88368094D02*
X164384819Y-87987142D01*
X164384819Y-87987142D02*
X164432438Y-87891904D01*
X164432438Y-87891904D02*
X164480057Y-87844285D01*
X164480057Y-87844285D02*
X164575295Y-87796666D01*
X164575295Y-87796666D02*
X164718152Y-87796666D01*
X164718152Y-87796666D02*
X164813390Y-87844285D01*
X164813390Y-87844285D02*
X164861009Y-87891904D01*
X164861009Y-87891904D02*
X164908628Y-87987142D01*
X164908628Y-87987142D02*
X164908628Y-88368094D01*
X165384819Y-86844285D02*
X165384819Y-87415713D01*
X165384819Y-87129999D02*
X164384819Y-87129999D01*
X164384819Y-87129999D02*
X164527676Y-87225237D01*
X164527676Y-87225237D02*
X164622914Y-87320475D01*
X164622914Y-87320475D02*
X164670533Y-87415713D01*
X197167319Y-89066666D02*
X196691128Y-89399999D01*
X197167319Y-89638094D02*
X196167319Y-89638094D01*
X196167319Y-89638094D02*
X196167319Y-89257142D01*
X196167319Y-89257142D02*
X196214938Y-89161904D01*
X196214938Y-89161904D02*
X196262557Y-89114285D01*
X196262557Y-89114285D02*
X196357795Y-89066666D01*
X196357795Y-89066666D02*
X196500652Y-89066666D01*
X196500652Y-89066666D02*
X196595890Y-89114285D01*
X196595890Y-89114285D02*
X196643509Y-89161904D01*
X196643509Y-89161904D02*
X196691128Y-89257142D01*
X196691128Y-89257142D02*
X196691128Y-89638094D01*
X196167319Y-88733332D02*
X196167319Y-88114285D01*
X196167319Y-88114285D02*
X196548271Y-88447618D01*
X196548271Y-88447618D02*
X196548271Y-88304761D01*
X196548271Y-88304761D02*
X196595890Y-88209523D01*
X196595890Y-88209523D02*
X196643509Y-88161904D01*
X196643509Y-88161904D02*
X196738747Y-88114285D01*
X196738747Y-88114285D02*
X196976842Y-88114285D01*
X196976842Y-88114285D02*
X197072080Y-88161904D01*
X197072080Y-88161904D02*
X197119700Y-88209523D01*
X197119700Y-88209523D02*
X197167319Y-88304761D01*
X197167319Y-88304761D02*
X197167319Y-88590475D01*
X197167319Y-88590475D02*
X197119700Y-88685713D01*
X197119700Y-88685713D02*
X197072080Y-88733332D01*
X162844819Y-71286666D02*
X162368628Y-71619999D01*
X162844819Y-71858094D02*
X161844819Y-71858094D01*
X161844819Y-71858094D02*
X161844819Y-71477142D01*
X161844819Y-71477142D02*
X161892438Y-71381904D01*
X161892438Y-71381904D02*
X161940057Y-71334285D01*
X161940057Y-71334285D02*
X162035295Y-71286666D01*
X162035295Y-71286666D02*
X162178152Y-71286666D01*
X162178152Y-71286666D02*
X162273390Y-71334285D01*
X162273390Y-71334285D02*
X162321009Y-71381904D01*
X162321009Y-71381904D02*
X162368628Y-71477142D01*
X162368628Y-71477142D02*
X162368628Y-71858094D01*
X162844819Y-70810475D02*
X162844819Y-70619999D01*
X162844819Y-70619999D02*
X162797200Y-70524761D01*
X162797200Y-70524761D02*
X162749580Y-70477142D01*
X162749580Y-70477142D02*
X162606723Y-70381904D01*
X162606723Y-70381904D02*
X162416247Y-70334285D01*
X162416247Y-70334285D02*
X162035295Y-70334285D01*
X162035295Y-70334285D02*
X161940057Y-70381904D01*
X161940057Y-70381904D02*
X161892438Y-70429523D01*
X161892438Y-70429523D02*
X161844819Y-70524761D01*
X161844819Y-70524761D02*
X161844819Y-70715237D01*
X161844819Y-70715237D02*
X161892438Y-70810475D01*
X161892438Y-70810475D02*
X161940057Y-70858094D01*
X161940057Y-70858094D02*
X162035295Y-70905713D01*
X162035295Y-70905713D02*
X162273390Y-70905713D01*
X162273390Y-70905713D02*
X162368628Y-70858094D01*
X162368628Y-70858094D02*
X162416247Y-70810475D01*
X162416247Y-70810475D02*
X162463866Y-70715237D01*
X162463866Y-70715237D02*
X162463866Y-70524761D01*
X162463866Y-70524761D02*
X162416247Y-70429523D01*
X162416247Y-70429523D02*
X162368628Y-70381904D01*
X162368628Y-70381904D02*
X162273390Y-70334285D01*
X189399104Y-69294285D02*
X189399104Y-68818095D01*
X189684819Y-69389523D02*
X188684819Y-69056190D01*
X188684819Y-69056190D02*
X189684819Y-68722857D01*
X189684819Y-67865714D02*
X189684819Y-68437142D01*
X189684819Y-68151428D02*
X188684819Y-68151428D01*
X188684819Y-68151428D02*
X188827676Y-68246666D01*
X188827676Y-68246666D02*
X188922914Y-68341904D01*
X188922914Y-68341904D02*
X188970533Y-68437142D01*
X159034819Y-71762857D02*
X158558628Y-72096190D01*
X159034819Y-72334285D02*
X158034819Y-72334285D01*
X158034819Y-72334285D02*
X158034819Y-71953333D01*
X158034819Y-71953333D02*
X158082438Y-71858095D01*
X158082438Y-71858095D02*
X158130057Y-71810476D01*
X158130057Y-71810476D02*
X158225295Y-71762857D01*
X158225295Y-71762857D02*
X158368152Y-71762857D01*
X158368152Y-71762857D02*
X158463390Y-71810476D01*
X158463390Y-71810476D02*
X158511009Y-71858095D01*
X158511009Y-71858095D02*
X158558628Y-71953333D01*
X158558628Y-71953333D02*
X158558628Y-72334285D01*
X159034819Y-70810476D02*
X159034819Y-71381904D01*
X159034819Y-71096190D02*
X158034819Y-71096190D01*
X158034819Y-71096190D02*
X158177676Y-71191428D01*
X158177676Y-71191428D02*
X158272914Y-71286666D01*
X158272914Y-71286666D02*
X158320533Y-71381904D01*
X158034819Y-70191428D02*
X158034819Y-70096190D01*
X158034819Y-70096190D02*
X158082438Y-70000952D01*
X158082438Y-70000952D02*
X158130057Y-69953333D01*
X158130057Y-69953333D02*
X158225295Y-69905714D01*
X158225295Y-69905714D02*
X158415771Y-69858095D01*
X158415771Y-69858095D02*
X158653866Y-69858095D01*
X158653866Y-69858095D02*
X158844342Y-69905714D01*
X158844342Y-69905714D02*
X158939580Y-69953333D01*
X158939580Y-69953333D02*
X158987200Y-70000952D01*
X158987200Y-70000952D02*
X159034819Y-70096190D01*
X159034819Y-70096190D02*
X159034819Y-70191428D01*
X159034819Y-70191428D02*
X158987200Y-70286666D01*
X158987200Y-70286666D02*
X158939580Y-70334285D01*
X158939580Y-70334285D02*
X158844342Y-70381904D01*
X158844342Y-70381904D02*
X158653866Y-70429523D01*
X158653866Y-70429523D02*
X158415771Y-70429523D01*
X158415771Y-70429523D02*
X158225295Y-70381904D01*
X158225295Y-70381904D02*
X158130057Y-70334285D01*
X158130057Y-70334285D02*
X158082438Y-70286666D01*
X158082438Y-70286666D02*
X158034819Y-70191428D01*
D11*
%TO.C,J1*%
X170360000Y-53262000D02*
X170360000Y-54512000D01*
X170660000Y-53562000D02*
X170660000Y-58282000D01*
X170660000Y-54872000D02*
X171270000Y-54872000D01*
X170660000Y-56172000D02*
X171270000Y-56172000D01*
X170660000Y-58282000D02*
X180780000Y-58282000D01*
X171270000Y-54172000D02*
X171270000Y-57672000D01*
X171270000Y-57672000D02*
X180170000Y-57672000D01*
X171610000Y-53262000D02*
X170360000Y-53262000D01*
X172120000Y-53362000D02*
X172120000Y-53562000D01*
X172420000Y-53362000D02*
X172120000Y-53362000D01*
X172420000Y-53462000D02*
X172120000Y-53462000D01*
X172420000Y-53562000D02*
X172420000Y-53362000D01*
X173220000Y-53562000D02*
X173220000Y-54172000D01*
X173220000Y-54172000D02*
X171270000Y-54172000D01*
X173620000Y-57172000D02*
X173820000Y-57172000D01*
X173620000Y-57672000D02*
X173620000Y-57172000D01*
X173720000Y-57672000D02*
X173720000Y-57172000D01*
X173820000Y-57172000D02*
X173820000Y-57672000D01*
X175620000Y-57172000D02*
X175820000Y-57172000D01*
X175620000Y-57672000D02*
X175620000Y-57172000D01*
X175720000Y-57672000D02*
X175720000Y-57172000D01*
X175820000Y-57172000D02*
X175820000Y-57672000D01*
X177620000Y-57172000D02*
X177820000Y-57172000D01*
X177620000Y-57672000D02*
X177620000Y-57172000D01*
X177720000Y-57672000D02*
X177720000Y-57172000D01*
X177820000Y-57172000D02*
X177820000Y-57672000D01*
X178220000Y-54172000D02*
X178220000Y-53562000D01*
X180170000Y-54172000D02*
X178220000Y-54172000D01*
X180170000Y-57672000D02*
X180170000Y-54172000D01*
X180780000Y-53562000D02*
X170660000Y-53562000D01*
X180780000Y-54872000D02*
X180170000Y-54872000D01*
X180780000Y-56172000D02*
X180170000Y-56172000D01*
X180780000Y-58282000D02*
X180780000Y-53562000D01*
%TO.C,C1*%
X155425000Y-55100251D02*
X155425000Y-55700251D01*
X155725000Y-55400251D02*
X155125000Y-55400251D01*
X156790000Y-58440000D02*
G75*
G03*
X150550000Y-58440000I-3120000J0D01*
G01*
X150550000Y-58440000D02*
G75*
G03*
X156790000Y-58440000I3120000J0D01*
G01*
%TO.C,A2*%
X164970000Y-76320000D02*
X166370000Y-76320000D01*
X167640000Y-76320000D02*
X185550000Y-76320000D01*
X185550000Y-76320000D02*
X185550000Y-60820000D01*
X164970000Y-74920000D02*
X164970000Y-76320000D01*
X164970000Y-73650000D02*
X167640000Y-73650000D01*
X167640000Y-73650000D02*
X167640000Y-76320000D01*
X167640000Y-73650000D02*
X185550000Y-73650000D01*
X164970000Y-63490000D02*
X185550000Y-63490000D01*
X164970000Y-60820000D02*
X164970000Y-73650000D01*
X185550000Y-60820000D02*
X164970000Y-60820000D01*
%TO.C,R2*%
X198152500Y-89000000D02*
X198152500Y-89070000D01*
X199522500Y-87630000D02*
G75*
G03*
X196782500Y-87630000I-1370000J0D01*
G01*
X196782500Y-87630000D02*
G75*
G03*
X199522500Y-87630000I1370000J0D01*
G01*
%TO.C,R4*%
X158750000Y-87730000D02*
X158750000Y-87800000D01*
X160120000Y-86360000D02*
G75*
G03*
X157380000Y-86360000I-1370000J0D01*
G01*
X157380000Y-86360000D02*
G75*
G03*
X160120000Y-86360000I1370000J0D01*
G01*
%TO.C,SW10*%
X215150000Y-89860000D02*
X216650000Y-89860000D01*
X219150000Y-88610000D02*
X219150000Y-84110000D01*
X212650000Y-84110000D02*
X212650000Y-88610000D01*
X216650000Y-82860000D02*
X215150000Y-82860000D01*
%TO.C,SW2*%
X178992500Y-91507500D02*
X180375500Y-91507500D01*
X178992500Y-91507500D02*
X178992500Y-90123500D01*
X179232500Y-91267500D02*
X191692500Y-91267500D01*
X179232500Y-91267500D02*
X179232500Y-81367500D01*
X191692500Y-91267500D02*
X191692500Y-81367500D01*
X181017500Y-88347500D02*
X182287500Y-88347500D01*
X181137500Y-88347500D02*
X181137500Y-86994167D01*
X181257500Y-88347500D02*
X181257500Y-86994167D01*
X181377500Y-88347500D02*
X181377500Y-86994167D01*
X181497500Y-88347500D02*
X181497500Y-86994167D01*
X181617500Y-88347500D02*
X181617500Y-86994167D01*
X181737500Y-88347500D02*
X181737500Y-86994167D01*
X181857500Y-88347500D02*
X181857500Y-86994167D01*
X181977500Y-88347500D02*
X181977500Y-86994167D01*
X182097500Y-88347500D02*
X182097500Y-86994167D01*
X182217500Y-88347500D02*
X182217500Y-86994167D01*
X182287500Y-88347500D02*
X182287500Y-84287500D01*
X183557500Y-88347500D02*
X184827500Y-88347500D01*
X183677500Y-88347500D02*
X183677500Y-86994167D01*
X183797500Y-88347500D02*
X183797500Y-86994167D01*
X183917500Y-88347500D02*
X183917500Y-86994167D01*
X184037500Y-88347500D02*
X184037500Y-86994167D01*
X184157500Y-88347500D02*
X184157500Y-86994167D01*
X184277500Y-88347500D02*
X184277500Y-86994167D01*
X184397500Y-88347500D02*
X184397500Y-86994167D01*
X184517500Y-88347500D02*
X184517500Y-86994167D01*
X184637500Y-88347500D02*
X184637500Y-86994167D01*
X184757500Y-88347500D02*
X184757500Y-86994167D01*
X184827500Y-88347500D02*
X184827500Y-84287500D01*
X186097500Y-88347500D02*
X187367500Y-88347500D01*
X186217500Y-88347500D02*
X186217500Y-86994167D01*
X186337500Y-88347500D02*
X186337500Y-86994167D01*
X186457500Y-88347500D02*
X186457500Y-86994167D01*
X186577500Y-88347500D02*
X186577500Y-86994167D01*
X186697500Y-88347500D02*
X186697500Y-86994167D01*
X186817500Y-88347500D02*
X186817500Y-86994167D01*
X186937500Y-88347500D02*
X186937500Y-86994167D01*
X187057500Y-88347500D02*
X187057500Y-86994167D01*
X187177500Y-88347500D02*
X187177500Y-86994167D01*
X187297500Y-88347500D02*
X187297500Y-86994167D01*
X187367500Y-88347500D02*
X187367500Y-84287500D01*
X188637500Y-88347500D02*
X189907500Y-88347500D01*
X188757500Y-88347500D02*
X188757500Y-86994167D01*
X188877500Y-88347500D02*
X188877500Y-86994167D01*
X188997500Y-88347500D02*
X188997500Y-86994167D01*
X189117500Y-88347500D02*
X189117500Y-86994167D01*
X189237500Y-88347500D02*
X189237500Y-86994167D01*
X189357500Y-88347500D02*
X189357500Y-86994167D01*
X189477500Y-88347500D02*
X189477500Y-86994167D01*
X189597500Y-88347500D02*
X189597500Y-86994167D01*
X189717500Y-88347500D02*
X189717500Y-86994167D01*
X189837500Y-88347500D02*
X189837500Y-86994167D01*
X189907500Y-88347500D02*
X189907500Y-84287500D01*
X181017500Y-86994167D02*
X182287500Y-86994167D01*
X183557500Y-86994167D02*
X184827500Y-86994167D01*
X186097500Y-86994167D02*
X187367500Y-86994167D01*
X188637500Y-86994167D02*
X189907500Y-86994167D01*
X181017500Y-84287500D02*
X181017500Y-88347500D01*
X182287500Y-84287500D02*
X181017500Y-84287500D01*
X183557500Y-84287500D02*
X183557500Y-88347500D01*
X184827500Y-84287500D02*
X183557500Y-84287500D01*
X186097500Y-84287500D02*
X186097500Y-88347500D01*
X187367500Y-84287500D02*
X186097500Y-84287500D01*
X188637500Y-84287500D02*
X188637500Y-88347500D01*
X189907500Y-84287500D02*
X188637500Y-84287500D01*
X179232500Y-81367500D02*
X191692500Y-81367500D01*
%TO.C,SW1*%
X164990000Y-91507500D02*
X166373000Y-91507500D01*
X164990000Y-91507500D02*
X164990000Y-90123500D01*
X165230000Y-91267500D02*
X177690000Y-91267500D01*
X165230000Y-91267500D02*
X165230000Y-81367500D01*
X177690000Y-91267500D02*
X177690000Y-81367500D01*
X167015000Y-88347500D02*
X168285000Y-88347500D01*
X167135000Y-88347500D02*
X167135000Y-86994167D01*
X167255000Y-88347500D02*
X167255000Y-86994167D01*
X167375000Y-88347500D02*
X167375000Y-86994167D01*
X167495000Y-88347500D02*
X167495000Y-86994167D01*
X167615000Y-88347500D02*
X167615000Y-86994167D01*
X167735000Y-88347500D02*
X167735000Y-86994167D01*
X167855000Y-88347500D02*
X167855000Y-86994167D01*
X167975000Y-88347500D02*
X167975000Y-86994167D01*
X168095000Y-88347500D02*
X168095000Y-86994167D01*
X168215000Y-88347500D02*
X168215000Y-86994167D01*
X168285000Y-88347500D02*
X168285000Y-84287500D01*
X169555000Y-88347500D02*
X170825000Y-88347500D01*
X169675000Y-88347500D02*
X169675000Y-86994167D01*
X169795000Y-88347500D02*
X169795000Y-86994167D01*
X169915000Y-88347500D02*
X169915000Y-86994167D01*
X170035000Y-88347500D02*
X170035000Y-86994167D01*
X170155000Y-88347500D02*
X170155000Y-86994167D01*
X170275000Y-88347500D02*
X170275000Y-86994167D01*
X170395000Y-88347500D02*
X170395000Y-86994167D01*
X170515000Y-88347500D02*
X170515000Y-86994167D01*
X170635000Y-88347500D02*
X170635000Y-86994167D01*
X170755000Y-88347500D02*
X170755000Y-86994167D01*
X170825000Y-88347500D02*
X170825000Y-84287500D01*
X172095000Y-88347500D02*
X173365000Y-88347500D01*
X172215000Y-88347500D02*
X172215000Y-86994167D01*
X172335000Y-88347500D02*
X172335000Y-86994167D01*
X172455000Y-88347500D02*
X172455000Y-86994167D01*
X172575000Y-88347500D02*
X172575000Y-86994167D01*
X172695000Y-88347500D02*
X172695000Y-86994167D01*
X172815000Y-88347500D02*
X172815000Y-86994167D01*
X172935000Y-88347500D02*
X172935000Y-86994167D01*
X173055000Y-88347500D02*
X173055000Y-86994167D01*
X173175000Y-88347500D02*
X173175000Y-86994167D01*
X173295000Y-88347500D02*
X173295000Y-86994167D01*
X173365000Y-88347500D02*
X173365000Y-84287500D01*
X174635000Y-88347500D02*
X175905000Y-88347500D01*
X174755000Y-88347500D02*
X174755000Y-86994167D01*
X174875000Y-88347500D02*
X174875000Y-86994167D01*
X174995000Y-88347500D02*
X174995000Y-86994167D01*
X175115000Y-88347500D02*
X175115000Y-86994167D01*
X175235000Y-88347500D02*
X175235000Y-86994167D01*
X175355000Y-88347500D02*
X175355000Y-86994167D01*
X175475000Y-88347500D02*
X175475000Y-86994167D01*
X175595000Y-88347500D02*
X175595000Y-86994167D01*
X175715000Y-88347500D02*
X175715000Y-86994167D01*
X175835000Y-88347500D02*
X175835000Y-86994167D01*
X175905000Y-88347500D02*
X175905000Y-84287500D01*
X167015000Y-86994167D02*
X168285000Y-86994167D01*
X169555000Y-86994167D02*
X170825000Y-86994167D01*
X172095000Y-86994167D02*
X173365000Y-86994167D01*
X174635000Y-86994167D02*
X175905000Y-86994167D01*
X167015000Y-84287500D02*
X167015000Y-88347500D01*
X168285000Y-84287500D02*
X167015000Y-84287500D01*
X169555000Y-84287500D02*
X169555000Y-88347500D01*
X170825000Y-84287500D02*
X169555000Y-84287500D01*
X172095000Y-84287500D02*
X172095000Y-88347500D01*
X173365000Y-84287500D02*
X172095000Y-84287500D01*
X174635000Y-84287500D02*
X174635000Y-88347500D01*
X175905000Y-84287500D02*
X174635000Y-84287500D01*
X165230000Y-81367500D02*
X177690000Y-81367500D01*
%TO.C,J3*%
X153240000Y-70920000D02*
X151990000Y-70920000D01*
X152940000Y-71220000D02*
X148220000Y-71220000D01*
X151630000Y-71220000D02*
X151630000Y-71830000D01*
X150330000Y-71220000D02*
X150330000Y-71830000D01*
X148220000Y-71220000D02*
X148220000Y-83340000D01*
X152330000Y-71830000D02*
X148830000Y-71830000D01*
X148830000Y-71830000D02*
X148830000Y-82730000D01*
X153240000Y-72170000D02*
X153240000Y-70920000D01*
X153140000Y-72680000D02*
X152940000Y-72680000D01*
X153140000Y-72980000D02*
X153140000Y-72680000D01*
X153040000Y-72980000D02*
X153040000Y-72680000D01*
X152940000Y-72980000D02*
X153140000Y-72980000D01*
X152940000Y-73780000D02*
X152330000Y-73780000D01*
X152330000Y-73780000D02*
X152330000Y-71830000D01*
X149330000Y-74180000D02*
X149330000Y-74380000D01*
X148830000Y-74180000D02*
X149330000Y-74180000D01*
X148830000Y-74280000D02*
X149330000Y-74280000D01*
X149330000Y-74380000D02*
X148830000Y-74380000D01*
X149330000Y-76180000D02*
X149330000Y-76380000D01*
X148830000Y-76180000D02*
X149330000Y-76180000D01*
X148830000Y-76280000D02*
X149330000Y-76280000D01*
X149330000Y-76380000D02*
X148830000Y-76380000D01*
X149330000Y-78180000D02*
X149330000Y-78380000D01*
X148830000Y-78180000D02*
X149330000Y-78180000D01*
X148830000Y-78280000D02*
X149330000Y-78280000D01*
X149330000Y-78380000D02*
X148830000Y-78380000D01*
X149330000Y-80180000D02*
X149330000Y-80380000D01*
X148830000Y-80180000D02*
X149330000Y-80180000D01*
X148830000Y-80280000D02*
X149330000Y-80280000D01*
X149330000Y-80380000D02*
X148830000Y-80380000D01*
X152330000Y-80780000D02*
X152940000Y-80780000D01*
X152330000Y-82730000D02*
X152330000Y-80780000D01*
X148830000Y-82730000D02*
X152330000Y-82730000D01*
X152940000Y-83340000D02*
X152940000Y-71220000D01*
X151630000Y-83340000D02*
X151630000Y-82730000D01*
X150330000Y-83340000D02*
X150330000Y-82730000D01*
X148220000Y-83340000D02*
X152940000Y-83340000D01*
%TO.C,SW9*%
X204990000Y-89860000D02*
X206490000Y-89860000D01*
X208990000Y-88610000D02*
X208990000Y-84110000D01*
X202490000Y-84110000D02*
X202490000Y-88610000D01*
X206490000Y-82860000D02*
X204990000Y-82860000D01*
%TO.C,U1*%
X143130000Y-64740000D02*
X95630000Y-64740000D01*
X145130000Y-66740000D02*
X145130000Y-90740000D01*
X93630000Y-66740000D02*
X93630000Y-90740000D01*
X143860000Y-69850000D02*
X143860000Y-87630000D01*
X138780000Y-69850000D02*
X143860000Y-69850000D01*
X98140000Y-69850000D02*
X98140000Y-72390000D01*
X94330000Y-69850000D02*
X98140000Y-69850000D01*
X143098000Y-71120000D02*
X143098000Y-73660000D01*
X139542000Y-71120000D02*
X143098000Y-71120000D01*
X138130000Y-71240000D02*
X138130000Y-86240000D01*
X120130000Y-71240000D02*
X138130000Y-71240000D01*
X98140000Y-72390000D02*
X94330000Y-72390000D01*
X94330000Y-72390000D02*
X94330000Y-69850000D01*
X143098000Y-73660000D02*
X141066000Y-73660000D01*
X141066000Y-73660000D02*
X141066000Y-76200000D01*
X99630000Y-74740000D02*
X93630000Y-74740000D01*
X99630000Y-74740000D02*
X99630000Y-82740000D01*
X143098000Y-76200000D02*
X143098000Y-78740000D01*
X141066000Y-76200000D02*
X143098000Y-76200000D01*
X143098000Y-78740000D02*
X141066000Y-78740000D01*
X141066000Y-78740000D02*
X141066000Y-81280000D01*
X143098000Y-81280000D02*
X143098000Y-86360000D01*
X141066000Y-81280000D02*
X143098000Y-81280000D01*
X99630000Y-82740000D02*
X93630000Y-82740000D01*
X143098000Y-83820000D02*
X139542000Y-83820000D01*
X98140000Y-85090000D02*
X98140000Y-87630000D01*
X94330000Y-85090000D02*
X98140000Y-85090000D01*
X138130000Y-86240000D02*
X120130000Y-86240000D01*
X120130000Y-86240000D02*
X120130000Y-71240000D01*
X143098000Y-86360000D02*
X139542000Y-86360000D01*
X143860000Y-87630000D02*
X138780000Y-87630000D01*
X138780000Y-87630000D02*
X138780000Y-69850000D01*
X98140000Y-87630000D02*
X94330000Y-87630000D01*
X94330000Y-87630000D02*
X94330000Y-85090000D01*
X95630000Y-92740000D02*
X143130000Y-92740000D01*
X145130000Y-66740000D02*
G75*
G03*
X143130000Y-64740000I-1999999J1D01*
G01*
X95630000Y-64740000D02*
G75*
G03*
X93630000Y-66740000I-1J-1999999D01*
G01*
X143130000Y-92740000D02*
G75*
G03*
X145130000Y-90740000I0J2000000D01*
G01*
X93630000Y-90740000D02*
G75*
G03*
X95630000Y-92740000I2000000J0D01*
G01*
X144630000Y-67040000D02*
G75*
G03*
X141630000Y-67040000I-1500000J0D01*
G01*
X141630000Y-67040000D02*
G75*
G03*
X144630000Y-67040000I1500000J0D01*
G01*
X97130000Y-67040000D02*
G75*
G03*
X94130000Y-67040000I-1500000J0D01*
G01*
X94130000Y-67040000D02*
G75*
G03*
X97130000Y-67040000I1500000J0D01*
G01*
D12*
X96535000Y-71120000D02*
G75*
G03*
X95935000Y-71120000I-300000J0D01*
G01*
X95935000Y-71120000D02*
G75*
G03*
X96535000Y-71120000I300000J0D01*
G01*
D13*
X122670000Y-73660000D02*
G75*
G03*
X121870000Y-73660000I-400000J0D01*
G01*
X121870000Y-73660000D02*
G75*
G03*
X122670000Y-73660000I400000J0D01*
G01*
D12*
X96535000Y-86360000D02*
G75*
G03*
X95935000Y-86360000I-300000J0D01*
G01*
X95935000Y-86360000D02*
G75*
G03*
X96535000Y-86360000I300000J0D01*
G01*
D11*
X144630000Y-90440000D02*
G75*
G03*
X141630000Y-90440000I-1500000J0D01*
G01*
X141630000Y-90440000D02*
G75*
G03*
X144630000Y-90440000I1500000J0D01*
G01*
X97130000Y-90440000D02*
G75*
G03*
X94130000Y-90440000I-1500000J0D01*
G01*
X94130000Y-90440000D02*
G75*
G03*
X97130000Y-90440000I1500000J0D01*
G01*
%TO.C,J2*%
X195300000Y-53220000D02*
X195300000Y-54470000D01*
X195600000Y-53520000D02*
X195600000Y-58240000D01*
X195600000Y-54830000D02*
X196210000Y-54830000D01*
X195600000Y-56130000D02*
X196210000Y-56130000D01*
X195600000Y-58240000D02*
X205720000Y-58240000D01*
X196210000Y-54130000D02*
X196210000Y-57630000D01*
X196210000Y-57630000D02*
X205110000Y-57630000D01*
X196550000Y-53220000D02*
X195300000Y-53220000D01*
X197060000Y-53320000D02*
X197060000Y-53520000D01*
X197360000Y-53320000D02*
X197060000Y-53320000D01*
X197360000Y-53420000D02*
X197060000Y-53420000D01*
X197360000Y-53520000D02*
X197360000Y-53320000D01*
X198160000Y-53520000D02*
X198160000Y-54130000D01*
X198160000Y-54130000D02*
X196210000Y-54130000D01*
X198560000Y-57130000D02*
X198760000Y-57130000D01*
X198560000Y-57630000D02*
X198560000Y-57130000D01*
X198660000Y-57630000D02*
X198660000Y-57130000D01*
X198760000Y-57130000D02*
X198760000Y-57630000D01*
X200560000Y-57130000D02*
X200760000Y-57130000D01*
X200560000Y-57630000D02*
X200560000Y-57130000D01*
X200660000Y-57630000D02*
X200660000Y-57130000D01*
X200760000Y-57130000D02*
X200760000Y-57630000D01*
X202560000Y-57130000D02*
X202760000Y-57130000D01*
X202560000Y-57630000D02*
X202560000Y-57130000D01*
X202660000Y-57630000D02*
X202660000Y-57130000D01*
X202760000Y-57130000D02*
X202760000Y-57630000D01*
X203160000Y-54130000D02*
X203160000Y-53520000D01*
X205110000Y-54130000D02*
X203160000Y-54130000D01*
X205110000Y-57630000D02*
X205110000Y-54130000D01*
X205720000Y-53520000D02*
X195600000Y-53520000D01*
X205720000Y-54830000D02*
X205110000Y-54830000D01*
X205720000Y-56130000D02*
X205110000Y-56130000D01*
X205720000Y-58240000D02*
X205720000Y-53520000D01*
%TO.C,C2*%
X163045000Y-55100251D02*
X163045000Y-55700251D01*
X163345000Y-55400251D02*
X162745000Y-55400251D01*
X164410000Y-58440000D02*
G75*
G03*
X158170000Y-58440000I-3120000J0D01*
G01*
X158170000Y-58440000D02*
G75*
G03*
X164410000Y-58440000I3120000J0D01*
G01*
%TO.C,J7*%
X146260000Y-55900000D02*
X147320000Y-55900000D01*
X146260000Y-56960000D02*
X146260000Y-55900000D01*
X146260000Y-57960000D02*
X146260000Y-62020000D01*
X146260000Y-57960000D02*
X148380000Y-57960000D01*
X146260000Y-62020000D02*
X148380000Y-62020000D01*
X148380000Y-57960000D02*
X148380000Y-62020000D01*
%TO.C,J6*%
X104080000Y-53280000D02*
X105410000Y-53280000D01*
X104080000Y-54610000D02*
X104080000Y-53280000D01*
X104080000Y-55880000D02*
X104080000Y-63560000D01*
X104080000Y-55880000D02*
X106740000Y-55880000D01*
X104080000Y-63560000D02*
X106740000Y-63560000D01*
X106740000Y-55880000D02*
X106740000Y-63560000D01*
%TO.C,J4*%
X214080000Y-53770000D02*
X214080000Y-55020000D01*
X214380000Y-54070000D02*
X214380000Y-58790000D01*
X214380000Y-55380000D02*
X214990000Y-55380000D01*
X214380000Y-56680000D02*
X214990000Y-56680000D01*
X214380000Y-58790000D02*
X220500000Y-58790000D01*
X214990000Y-54680000D02*
X214990000Y-58180000D01*
X214990000Y-58180000D02*
X219890000Y-58180000D01*
X215330000Y-53770000D02*
X214080000Y-53770000D01*
X215840000Y-53870000D02*
X215840000Y-54070000D01*
X216140000Y-53870000D02*
X215840000Y-53870000D01*
X216140000Y-53970000D02*
X215840000Y-53970000D01*
X216140000Y-54070000D02*
X216140000Y-53870000D01*
X216940000Y-54070000D02*
X216940000Y-54680000D01*
X216940000Y-54680000D02*
X214990000Y-54680000D01*
X217340000Y-57680000D02*
X217540000Y-57680000D01*
X217340000Y-58180000D02*
X217340000Y-57680000D01*
X217440000Y-58180000D02*
X217440000Y-57680000D01*
X217540000Y-57680000D02*
X217540000Y-58180000D01*
X217940000Y-54680000D02*
X217940000Y-54070000D01*
X219890000Y-54680000D02*
X217940000Y-54680000D01*
X219890000Y-58180000D02*
X219890000Y-54680000D01*
X220500000Y-54070000D02*
X214380000Y-54070000D01*
X220500000Y-55380000D02*
X219890000Y-55380000D01*
X220500000Y-56680000D02*
X219890000Y-56680000D01*
X220500000Y-58790000D02*
X220500000Y-54070000D01*
%TO.C,J5*%
X128330000Y-88960000D02*
X127000000Y-88960000D01*
X128330000Y-87630000D02*
X128330000Y-88960000D01*
X128330000Y-86360000D02*
X128330000Y-68520000D01*
X128330000Y-86360000D02*
X125730000Y-86360000D01*
X128330000Y-68520000D02*
X123130000Y-68520000D01*
X125730000Y-88960000D02*
X123130000Y-88960000D01*
X125730000Y-86360000D02*
X125730000Y-88960000D01*
X123130000Y-88960000D02*
X123130000Y-68520000D01*
%TO.C,R1*%
X162560000Y-87730000D02*
X162560000Y-87800000D01*
X163930000Y-86360000D02*
G75*
G03*
X161190000Y-86360000I-1370000J0D01*
G01*
X161190000Y-86360000D02*
G75*
G03*
X163930000Y-86360000I1370000J0D01*
G01*
%TO.C,R3*%
X194342500Y-89000000D02*
X194342500Y-89070000D01*
X195712500Y-87630000D02*
G75*
G03*
X192972500Y-87630000I-1370000J0D01*
G01*
X192972500Y-87630000D02*
G75*
G03*
X195712500Y-87630000I1370000J0D01*
G01*
%TO.C,R9*%
X160020000Y-71220000D02*
X160020000Y-71290000D01*
X161390000Y-69850000D02*
G75*
G03*
X158650000Y-69850000I-1370000J0D01*
G01*
X158650000Y-69850000D02*
G75*
G03*
X161390000Y-69850000I1370000J0D01*
G01*
%TO.C,SW3*%
X212725000Y-76205000D02*
X212725000Y-62235000D01*
X221615000Y-76205000D02*
X212725000Y-76205000D01*
X217170000Y-72395000D02*
X213995000Y-71125000D01*
X213995000Y-71125000D02*
X213995000Y-67315000D01*
X220345000Y-71125000D02*
X217170000Y-72395000D01*
X213995000Y-67315000D02*
X217170000Y-66045000D01*
X220345000Y-67315000D02*
X220345000Y-71125000D01*
X217170000Y-66045000D02*
X220345000Y-67315000D01*
X212725000Y-62235000D02*
X221615000Y-62235000D01*
X221615000Y-62235000D02*
X221615000Y-76205000D01*
X220872654Y-69220000D02*
G75*
G03*
X213467346Y-69220000I-3702654J0D01*
G01*
X213467346Y-69220000D02*
G75*
G03*
X220872654Y-69220000I3702654J0D01*
G01*
%TO.C,A1*%
X190370000Y-76330000D02*
X191770000Y-76330000D01*
X193040000Y-76330000D02*
X210950000Y-76330000D01*
X210950000Y-76330000D02*
X210950000Y-60830000D01*
X190370000Y-74930000D02*
X190370000Y-76330000D01*
X190370000Y-73660000D02*
X193040000Y-73660000D01*
X193040000Y-73660000D02*
X193040000Y-76330000D01*
X193040000Y-73660000D02*
X210950000Y-73660000D01*
X190370000Y-63500000D02*
X210950000Y-63500000D01*
X190370000Y-60830000D02*
X190370000Y-73660000D01*
X210950000Y-60830000D02*
X190370000Y-60830000D01*
%TO.C,R10*%
X156210000Y-71220000D02*
X156210000Y-71290000D01*
X157580000Y-69850000D02*
G75*
G03*
X154840000Y-69850000I-1370000J0D01*
G01*
X154840000Y-69850000D02*
G75*
G03*
X157580000Y-69850000I1370000J0D01*
G01*
%TD*%
M02*
