M48
; DRILL file {KiCad 7.0.9} date Thu 22 Feb 2024 11:19:59 PM EST
; FORMAT={-:-/ absolute / metric / decimal}
; #@! TF.CreationDate,2024-02-22T23:19:59-05:00
; #@! TF.GenerationSoftware,Kicad,Pcbnew,7.0.9
; #@! TF.FileFunction,Plated,1,2,PTH
FMAT,2
METRIC
; #@! TA.AperFunction,Plated,PTH,ComponentDrill
T1C0.750
; #@! TA.AperFunction,Plated,PTH,ComponentDrill
T2C0.762
; #@! TA.AperFunction,Plated,PTH,ComponentDrill
T3C0.800
; #@! TA.AperFunction,Plated,PTH,ComponentDrill
T4C1.000
; #@! TA.AperFunction,Plated,PTH,ComponentDrill
T5C1.100
%
G90
G05
T1
X151.13Y-73.28
X151.13Y-75.28
X151.13Y-77.28
X151.13Y-79.28
X151.13Y-81.28
X172.72Y-55.372
X174.72Y-55.372
X176.72Y-55.372
X178.72Y-55.372
X197.66Y-55.33
X199.66Y-55.33
X201.66Y-55.33
X203.66Y-55.33
X216.44Y-55.88
X218.44Y-55.88
T2
X103.53Y-66.04
X103.53Y-91.44
X106.07Y-66.04
X106.07Y-91.44
X108.61Y-66.04
X108.61Y-91.44
X111.15Y-66.04
X111.15Y-91.44
X113.69Y-66.04
X113.69Y-91.44
X116.23Y-66.04
X116.23Y-91.44
X118.77Y-66.04
X118.77Y-91.44
X121.31Y-66.04
X121.31Y-91.44
X123.85Y-66.04
X123.85Y-91.44
X126.39Y-66.04
X126.39Y-91.44
X128.93Y-66.04
X128.93Y-91.44
X131.47Y-66.04
X131.47Y-91.44
X134.01Y-66.04
X134.01Y-91.44
X136.55Y-66.04
X136.55Y-91.44
X139.09Y-66.04
X139.09Y-91.44
T3
X147.32Y-56.96
X147.32Y-58.96
X147.32Y-60.96
X153.67Y-57.19
X153.67Y-59.69
X156.21Y-69.85
X156.21Y-72.39
X158.75Y-86.36
X158.75Y-88.9
X160.02Y-69.85
X160.02Y-72.39
X161.29Y-57.19
X161.29Y-59.69
X162.56Y-86.36
X162.56Y-88.9
X166.37Y-62.22
X166.37Y-74.92
X167.65Y-82.507
X167.65Y-90.127
X168.91Y-62.22
X168.91Y-74.92
X170.19Y-82.507
X170.19Y-90.127
X171.45Y-62.22
X171.45Y-74.92
X172.73Y-82.507
X172.73Y-90.127
X173.99Y-62.22
X173.99Y-74.92
X175.27Y-82.507
X175.27Y-90.127
X176.53Y-62.22
X176.53Y-74.92
X179.07Y-62.22
X179.07Y-74.92
X181.61Y-62.22
X181.61Y-74.92
X181.653Y-82.507
X181.653Y-90.127
X184.15Y-62.22
X184.15Y-74.92
X184.192Y-82.507
X184.192Y-90.127
X186.732Y-82.507
X186.732Y-90.127
X189.272Y-82.507
X189.272Y-90.127
X191.77Y-62.23
X191.77Y-74.93
X194.31Y-62.23
X194.31Y-74.93
X194.343Y-87.63
X194.343Y-90.17
X196.85Y-62.23
X196.85Y-74.93
X198.153Y-87.63
X198.153Y-90.17
X199.39Y-62.23
X199.39Y-74.93
X201.93Y-62.23
X201.93Y-74.93
X204.47Y-62.23
X204.47Y-74.93
X207.01Y-62.23
X207.01Y-74.93
X209.55Y-62.23
X209.55Y-74.93
T4
X105.41Y-54.61
X105.41Y-57.15
X105.41Y-59.69
X105.41Y-62.23
X124.46Y-69.85
X124.46Y-72.39
X124.46Y-74.93
X124.46Y-77.47
X124.46Y-80.01
X124.46Y-82.55
X124.46Y-85.09
X124.46Y-87.63
X127.0Y-69.85
X127.0Y-72.39
X127.0Y-74.93
X127.0Y-77.47
X127.0Y-80.01
X127.0Y-82.55
X127.0Y-85.09
X127.0Y-87.63
T5
X203.49Y-83.11
X203.49Y-89.61
X207.99Y-83.11
X207.99Y-89.61
X213.65Y-83.11
X213.65Y-89.61
X218.15Y-83.11
X218.15Y-89.61
T4
G00X216.52Y-64.77
M15
G01X217.82Y-64.77
M16
G05
G00X216.52Y-69.22
M15
G01X217.82Y-69.22
M16
G05
G00X216.52Y-73.67
M15
G01X217.82Y-73.67
M16
G05
T0
M30
