%TF.GenerationSoftware,KiCad,Pcbnew,7.0.10-7.0.10~ubuntu20.04.1*%
%TF.CreationDate,2024-02-21T21:03:59-05:00*%
%TF.ProjectId,schematics,73636865-6d61-4746-9963-732e6b696361,rev?*%
%TF.SameCoordinates,Original*%
%TF.FileFunction,Copper,L1,Top*%
%TF.FilePolarity,Positive*%
%FSLAX46Y46*%
G04 Gerber Fmt 4.6, Leading zero omitted, Abs format (unit mm)*
G04 Created by KiCad (PCBNEW 7.0.10-7.0.10~ubuntu20.04.1) date 2024-02-21 21:03:59*
%MOMM*%
%LPD*%
G01*
G04 APERTURE LIST*
G04 Aperture macros list*
%AMRoundRect*
0 Rectangle with rounded corners*
0 $1 Rounding radius*
0 $2 $3 $4 $5 $6 $7 $8 $9 X,Y pos of 4 corners*
0 Add a 4 corners polygon primitive as box body*
4,1,4,$2,$3,$4,$5,$6,$7,$8,$9,$2,$3,0*
0 Add four circle primitives for the rounded corners*
1,1,$1+$1,$2,$3*
1,1,$1+$1,$4,$5*
1,1,$1+$1,$6,$7*
1,1,$1+$1,$8,$9*
0 Add four rect primitives between the rounded corners*
20,1,$1+$1,$2,$3,$4,$5,0*
20,1,$1+$1,$4,$5,$6,$7,0*
20,1,$1+$1,$6,$7,$8,$9,0*
20,1,$1+$1,$8,$9,$2,$3,0*%
G04 Aperture macros list end*
%TA.AperFunction,ComponentPad*%
%ADD10RoundRect,0.250000X-0.350000X-0.625000X0.350000X-0.625000X0.350000X0.625000X-0.350000X0.625000X0*%
%TD*%
%TA.AperFunction,ComponentPad*%
%ADD11O,1.200000X1.750000*%
%TD*%
%TA.AperFunction,ComponentPad*%
%ADD12R,1.600000X1.600000*%
%TD*%
%TA.AperFunction,ComponentPad*%
%ADD13C,1.600000*%
%TD*%
%TA.AperFunction,ComponentPad*%
%ADD14O,1.600000X1.600000*%
%TD*%
%TA.AperFunction,ComponentPad*%
%ADD15C,2.000000*%
%TD*%
%TA.AperFunction,ComponentPad*%
%ADD16RoundRect,0.250000X-0.625000X0.350000X-0.625000X-0.350000X0.625000X-0.350000X0.625000X0.350000X0*%
%TD*%
%TA.AperFunction,ComponentPad*%
%ADD17O,1.750000X1.200000*%
%TD*%
%TA.AperFunction,ComponentPad*%
%ADD18R,1.524000X1.524000*%
%TD*%
%TA.AperFunction,ComponentPad*%
%ADD19C,1.524000*%
%TD*%
%TA.AperFunction,ComponentPad*%
%ADD20R,1.350000X1.350000*%
%TD*%
%TA.AperFunction,ComponentPad*%
%ADD21O,1.350000X1.350000*%
%TD*%
%TA.AperFunction,ComponentPad*%
%ADD22R,1.700000X1.700000*%
%TD*%
%TA.AperFunction,ComponentPad*%
%ADD23O,1.700000X1.700000*%
%TD*%
%TA.AperFunction,ComponentPad*%
%ADD24O,5.000000X3.200000*%
%TD*%
%TA.AperFunction,Conductor*%
%ADD25C,0.250000*%
%TD*%
%TA.AperFunction,Conductor*%
%ADD26C,0.400000*%
%TD*%
G04 APERTURE END LIST*
D10*
%TO.P,J1,1,Pin_1*%
%TO.N,Net-(A2-B1)*%
X172720000Y-55372000D03*
D11*
%TO.P,J1,2,Pin_2*%
%TO.N,Net-(A2-B2)*%
X174720000Y-55372000D03*
%TO.P,J1,3,Pin_3*%
%TO.N,Net-(A2-A2)*%
X176720000Y-55372000D03*
%TO.P,J1,4,Pin_4*%
%TO.N,Net-(A2-A1)*%
X178720000Y-55372000D03*
%TD*%
D12*
%TO.P,C1,1*%
%TO.N,Net-(A1-VMOT)*%
X153670000Y-57190000D03*
D13*
%TO.P,C1,2*%
%TO.N,GND*%
X153670000Y-59690000D03*
%TD*%
D12*
%TO.P,A2,1,~{ENABLE}*%
%TO.N,Net-(A1-~{ENABLE})*%
X166370000Y-74920000D03*
D14*
%TO.P,A2,2,M0*%
%TO.N,Net-(A1-M0)*%
X168910000Y-74920000D03*
%TO.P,A2,3,M1*%
%TO.N,Net-(A1-M1)*%
X171450000Y-74920000D03*
%TO.P,A2,4,DECAY0*%
%TO.N,GND*%
X173990000Y-74920000D03*
%TO.P,A2,5,DECAY1*%
X176530000Y-74920000D03*
%TO.P,A2,6,~{SLEEP}*%
%TO.N,Net-(A2-~{FAULT})*%
X179070000Y-74920000D03*
%TO.P,A2,7,STEP*%
%TO.N,Net-(A2-STEP)*%
X181610000Y-74920000D03*
%TO.P,A2,8,DIR*%
%TO.N,Net-(A2-DIR)*%
X184150000Y-74920000D03*
%TO.P,A2,9,GND*%
%TO.N,GND*%
X184150000Y-62220000D03*
%TO.P,A2,10,~{FAULT}*%
%TO.N,Net-(A2-~{FAULT})*%
X181610000Y-62220000D03*
%TO.P,A2,11,A1*%
%TO.N,Net-(A2-A1)*%
X179070000Y-62220000D03*
%TO.P,A2,12,A2*%
%TO.N,Net-(A2-A2)*%
X176530000Y-62220000D03*
%TO.P,A2,13,B2*%
%TO.N,Net-(A2-B2)*%
X173990000Y-62220000D03*
%TO.P,A2,14,B1*%
%TO.N,Net-(A2-B1)*%
X171450000Y-62220000D03*
%TO.P,A2,15,GND*%
%TO.N,GND*%
X168910000Y-62220000D03*
%TO.P,A2,16,VMOT*%
%TO.N,Net-(A1-VMOT)*%
X166370000Y-62220000D03*
%TD*%
D13*
%TO.P,R2,1*%
%TO.N,Net-(J3-Pin_2)*%
X198152500Y-87630000D03*
D14*
%TO.P,R2,2*%
%TO.N,Net-(R2-Pad2)*%
X198152500Y-90170000D03*
%TD*%
D13*
%TO.P,R4,1*%
%TO.N,Net-(J3-Pin_2)*%
X158750000Y-86360000D03*
D14*
%TO.P,R4,2*%
%TO.N,Net-(R4-Pad2)*%
X158750000Y-88900000D03*
%TD*%
D15*
%TO.P,SW10,1,1*%
%TO.N,Net-(U1-IO35)*%
X213650000Y-89610000D03*
X213650000Y-83110000D03*
%TO.P,SW10,2,2*%
%TO.N,Net-(J3-Pin_2)*%
X218150000Y-89610000D03*
X218150000Y-83110000D03*
%TD*%
D12*
%TO.P,SW2,1*%
%TO.N,Net-(R3-Pad2)*%
X181652500Y-90127500D03*
D14*
%TO.P,SW2,2*%
%TO.N,Net-(R2-Pad2)*%
X184192500Y-90127500D03*
%TO.P,SW2,3*%
%TO.N,GND*%
X186732500Y-90127500D03*
%TO.P,SW2,4*%
%TO.N,Net-(J3-Pin_2)*%
X189272500Y-90127500D03*
%TO.P,SW2,5*%
%TO.N,Net-(A1-M1)*%
X189272500Y-82507500D03*
%TO.P,SW2,6*%
X186732500Y-82507500D03*
%TO.P,SW2,7*%
X184192500Y-82507500D03*
%TO.P,SW2,8*%
X181652500Y-82507500D03*
%TD*%
D12*
%TO.P,SW1,1*%
%TO.N,Net-(R1-Pad2)*%
X167650000Y-90127500D03*
D14*
%TO.P,SW1,2*%
%TO.N,Net-(R4-Pad2)*%
X170190000Y-90127500D03*
%TO.P,SW1,3*%
%TO.N,GND*%
X172730000Y-90127500D03*
%TO.P,SW1,4*%
%TO.N,Net-(J3-Pin_2)*%
X175270000Y-90127500D03*
%TO.P,SW1,5*%
%TO.N,Net-(A1-M0)*%
X175270000Y-82507500D03*
%TO.P,SW1,6*%
X172730000Y-82507500D03*
%TO.P,SW1,7*%
X170190000Y-82507500D03*
%TO.P,SW1,8*%
X167650000Y-82507500D03*
%TD*%
D16*
%TO.P,J3,1,Pin_1*%
%TO.N,GND*%
X151130000Y-73280000D03*
D17*
%TO.P,J3,2,Pin_2*%
%TO.N,Net-(J3-Pin_2)*%
X151130000Y-75280000D03*
%TO.P,J3,3,Pin_3*%
%TO.N,Net-(J3-Pin_3)*%
X151130000Y-77280000D03*
%TO.P,J3,4,Pin_4*%
%TO.N,Net-(J3-Pin_4)*%
X151130000Y-79280000D03*
%TO.P,J3,5,Pin_5*%
%TO.N,Net-(J3-Pin_5)*%
X151130000Y-81280000D03*
%TD*%
D15*
%TO.P,SW9,1,1*%
%TO.N,Net-(U1-IO34)*%
X203490000Y-89610000D03*
X203490000Y-83110000D03*
%TO.P,SW9,2,2*%
%TO.N,Net-(J3-Pin_2)*%
X207990000Y-89610000D03*
X207990000Y-83110000D03*
%TD*%
D18*
%TO.P,U1,1,EN*%
%TO.N,unconnected-(U1-EN-Pad1)*%
X139090000Y-66040000D03*
D19*
%TO.P,U1,2,SENSOR_VP*%
%TO.N,unconnected-(U1-SENSOR_VP-Pad2)*%
X136550000Y-66040000D03*
%TO.P,U1,3,SENSOR_VN*%
%TO.N,unconnected-(U1-SENSOR_VN-Pad3)*%
X134010000Y-66040000D03*
%TO.P,U1,4,IO34*%
%TO.N,Net-(U1-IO34)*%
X131470000Y-66040000D03*
%TO.P,U1,5,IO35*%
%TO.N,Net-(U1-IO35)*%
X128930000Y-66040000D03*
%TO.P,U1,6,IO32*%
%TO.N,unconnected-(U1-IO32-Pad6)*%
X126390000Y-66040000D03*
%TO.P,U1,7,IO33*%
%TO.N,unconnected-(U1-IO33-Pad7)*%
X123850000Y-66040000D03*
%TO.P,U1,8,IO25*%
%TO.N,Net-(A2-DIR)*%
X121310000Y-66040000D03*
%TO.P,U1,9,IO26*%
%TO.N,Net-(A2-STEP)*%
X118770000Y-66040000D03*
%TO.P,U1,10,IO27*%
%TO.N,Net-(A1-DIR)*%
X116230000Y-66040000D03*
%TO.P,U1,11,IO14*%
%TO.N,unconnected-(U1-IO14-Pad11)*%
X113690000Y-66040000D03*
%TO.P,U1,12,IO12*%
%TO.N,unconnected-(U1-IO12-Pad12)*%
X111150000Y-66040000D03*
%TO.P,U1,13,IO13*%
%TO.N,Net-(A1-STEP)*%
X108610000Y-66040000D03*
%TO.P,U1,14,GND*%
%TO.N,GND*%
X106070000Y-66040000D03*
%TO.P,U1,15,VIN*%
%TO.N,unconnected-(U1-VIN-Pad15)*%
X103530000Y-66040000D03*
%TO.P,U1,16,3V3*%
%TO.N,Net-(J3-Pin_2)*%
X103530000Y-91440000D03*
%TO.P,U1,17,GND*%
%TO.N,GND*%
X106070000Y-91440000D03*
%TO.P,U1,18,IO15*%
%TO.N,unconnected-(U1-IO15-Pad18)*%
X108610000Y-91440000D03*
%TO.P,U1,19,IO2*%
%TO.N,unconnected-(U1-IO2-Pad19)*%
X111150000Y-91440000D03*
%TO.P,U1,20,IO4*%
%TO.N,Net-(J3-Pin_5)*%
X113690000Y-91440000D03*
%TO.P,U1,21,IO16*%
%TO.N,Net-(A1-~{ENABLE})*%
X116230000Y-91440000D03*
%TO.P,U1,22,IO17*%
%TO.N,unconnected-(U1-IO17-Pad22)*%
X118770000Y-91440000D03*
%TO.P,U1,23,IO5*%
%TO.N,Net-(J5-Pin_7)*%
X121310000Y-91440000D03*
%TO.P,U1,24,IO18*%
%TO.N,Net-(J5-Pin_11)*%
X123850000Y-91440000D03*
%TO.P,U1,25,IO19*%
%TO.N,Net-(J5-Pin_13)*%
X126390000Y-91440000D03*
%TO.P,U1,26,IO21*%
%TO.N,Net-(J3-Pin_3)*%
X128930000Y-91440000D03*
%TO.P,U1,27,RXD0/IO3*%
%TO.N,unconnected-(U1-RXD0{slash}IO3-Pad27)*%
X131470000Y-91440000D03*
%TO.P,U1,28,TXD0/IO1*%
%TO.N,unconnected-(U1-TXD0{slash}IO1-Pad28)*%
X134010000Y-91440000D03*
%TO.P,U1,29,IO22*%
%TO.N,Net-(J3-Pin_4)*%
X136550000Y-91440000D03*
%TO.P,U1,30,IO23*%
%TO.N,Net-(J5-Pin_10)*%
X139090000Y-91440000D03*
%TD*%
D10*
%TO.P,J2,1,Pin_1*%
%TO.N,Net-(A1-B1)*%
X197660000Y-55330000D03*
D11*
%TO.P,J2,2,Pin_2*%
%TO.N,Net-(A1-B2)*%
X199660000Y-55330000D03*
%TO.P,J2,3,Pin_3*%
%TO.N,Net-(A1-A2)*%
X201660000Y-55330000D03*
%TO.P,J2,4,Pin_4*%
%TO.N,Net-(A1-A1)*%
X203660000Y-55330000D03*
%TD*%
D12*
%TO.P,C2,1*%
%TO.N,Net-(A1-VMOT)*%
X161290000Y-57190000D03*
D13*
%TO.P,C2,2*%
%TO.N,GND*%
X161290000Y-59690000D03*
%TD*%
D20*
%TO.P,J7,1,Pin_1*%
%TO.N,Net-(A1-VMOT)*%
X147320000Y-56960000D03*
D21*
%TO.P,J7,2,Pin_2*%
%TO.N,Net-(J3-Pin_2)*%
X147320000Y-58960000D03*
%TO.P,J7,3,Pin_3*%
%TO.N,GND*%
X147320000Y-60960000D03*
%TD*%
D22*
%TO.P,J6,1,Pin_1*%
%TO.N,GND*%
X105410000Y-54610000D03*
D23*
%TO.P,J6,2,Pin_2*%
%TO.N,Net-(J3-Pin_2)*%
X105410000Y-57150000D03*
%TO.P,J6,3,Pin_3*%
%TO.N,Net-(J3-Pin_3)*%
X105410000Y-59690000D03*
%TO.P,J6,4,Pin_4*%
%TO.N,Net-(J3-Pin_4)*%
X105410000Y-62230000D03*
%TD*%
D10*
%TO.P,J4,1,Pin_1*%
%TO.N,Net-(J4-Pin_1)*%
X216440000Y-55880000D03*
D11*
%TO.P,J4,2,Pin_2*%
%TO.N,GND*%
X218440000Y-55880000D03*
%TD*%
D22*
%TO.P,J5,1,Pin_1*%
%TO.N,GND*%
X127000000Y-87630000D03*
D23*
%TO.P,J5,2,Pin_2*%
X124460000Y-87630000D03*
%TO.P,J5,3,Pin_3*%
%TO.N,Net-(J3-Pin_2)*%
X127000000Y-85090000D03*
%TO.P,J5,4,Pin_4*%
X124460000Y-85090000D03*
%TO.P,J5,5,Pin_5*%
%TO.N,unconnected-(J5-Pin_5-Pad5)*%
X127000000Y-82550000D03*
%TO.P,J5,6,Pin_6*%
%TO.N,unconnected-(J5-Pin_6-Pad6)*%
X124460000Y-82550000D03*
%TO.P,J5,7,Pin_7*%
%TO.N,Net-(J5-Pin_7)*%
X127000000Y-80010000D03*
%TO.P,J5,8,Pin_8*%
X124460000Y-80010000D03*
%TO.P,J5,9,Pin_9*%
%TO.N,Net-(J5-Pin_10)*%
X127000000Y-77470000D03*
%TO.P,J5,10,Pin_10*%
X124460000Y-77470000D03*
%TO.P,J5,11,Pin_11*%
%TO.N,Net-(J5-Pin_11)*%
X127000000Y-74930000D03*
%TO.P,J5,12,Pin_12*%
X124460000Y-74930000D03*
%TO.P,J5,13,Pin_13*%
%TO.N,Net-(J5-Pin_13)*%
X127000000Y-72390000D03*
%TO.P,J5,14,Pin_14*%
X124460000Y-72390000D03*
%TO.P,J5,15,Pin_15*%
%TO.N,unconnected-(J5-Pin_15-Pad15)*%
X127000000Y-69850000D03*
%TO.P,J5,16,Pin_16*%
%TO.N,GND*%
X124460000Y-69850000D03*
%TD*%
D13*
%TO.P,R1,1*%
%TO.N,GND*%
X162560000Y-86360000D03*
D14*
%TO.P,R1,2*%
%TO.N,Net-(R1-Pad2)*%
X162560000Y-88900000D03*
%TD*%
D13*
%TO.P,R3,1*%
%TO.N,GND*%
X194342500Y-87630000D03*
D14*
%TO.P,R3,2*%
%TO.N,Net-(R3-Pad2)*%
X194342500Y-90170000D03*
%TD*%
D13*
%TO.P,R9,1*%
%TO.N,Net-(U1-IO35)*%
X160020000Y-69850000D03*
D14*
%TO.P,R9,2*%
%TO.N,GND*%
X160020000Y-72390000D03*
%TD*%
D24*
%TO.P,SW3,1,A*%
%TO.N,unconnected-(SW3-A-Pad1)*%
X217170000Y-73670000D03*
%TO.P,SW3,2,B*%
%TO.N,Net-(A1-VMOT)*%
X217170000Y-69220000D03*
%TO.P,SW3,3,C*%
%TO.N,Net-(J4-Pin_1)*%
X217170000Y-64770000D03*
%TD*%
D12*
%TO.P,A1,1,~{ENABLE}*%
%TO.N,Net-(A1-~{ENABLE})*%
X191770000Y-74930000D03*
D14*
%TO.P,A1,2,M0*%
%TO.N,Net-(A1-M0)*%
X194310000Y-74930000D03*
%TO.P,A1,3,M1*%
%TO.N,Net-(A1-M1)*%
X196850000Y-74930000D03*
%TO.P,A1,4,DECAY0*%
%TO.N,GND*%
X199390000Y-74930000D03*
%TO.P,A1,5,DECAY1*%
X201930000Y-74930000D03*
%TO.P,A1,6,~{SLEEP}*%
%TO.N,Net-(A1-~{FAULT})*%
X204470000Y-74930000D03*
%TO.P,A1,7,STEP*%
%TO.N,Net-(A1-STEP)*%
X207010000Y-74930000D03*
%TO.P,A1,8,DIR*%
%TO.N,Net-(A1-DIR)*%
X209550000Y-74930000D03*
%TO.P,A1,9,GND*%
%TO.N,GND*%
X209550000Y-62230000D03*
%TO.P,A1,10,~{FAULT}*%
%TO.N,Net-(A1-~{FAULT})*%
X207010000Y-62230000D03*
%TO.P,A1,11,A1*%
%TO.N,Net-(A1-A1)*%
X204470000Y-62230000D03*
%TO.P,A1,12,A2*%
%TO.N,Net-(A1-A2)*%
X201930000Y-62230000D03*
%TO.P,A1,13,B2*%
%TO.N,Net-(A1-B2)*%
X199390000Y-62230000D03*
%TO.P,A1,14,B1*%
%TO.N,Net-(A1-B1)*%
X196850000Y-62230000D03*
%TO.P,A1,15,GND*%
%TO.N,GND*%
X194310000Y-62230000D03*
%TO.P,A1,16,VMOT*%
%TO.N,Net-(A1-VMOT)*%
X191770000Y-62230000D03*
%TD*%
D13*
%TO.P,R10,1*%
%TO.N,Net-(U1-IO34)*%
X156210000Y-69850000D03*
D14*
%TO.P,R10,2*%
%TO.N,GND*%
X156210000Y-72390000D03*
%TD*%
D25*
%TO.N,Net-(J3-Pin_2)*%
X152780000Y-81213148D02*
X152780000Y-82170000D01*
X152780000Y-82170000D02*
X141973000Y-92977000D01*
X141973000Y-92977000D02*
X105067000Y-92977000D01*
X105067000Y-92977000D02*
X103530000Y-91440000D01*
X152780000Y-81026000D02*
X152780000Y-81213148D01*
%TO.N,Net-(A1-DIR)*%
X207010000Y-72390000D02*
X182880000Y-72390000D01*
X209550000Y-74930000D02*
X207010000Y-72390000D01*
X182880000Y-72390000D02*
X174868299Y-64378299D01*
X174868299Y-64378299D02*
X117891701Y-64378299D01*
D26*
%TO.N,Net-(A1-VMOT)*%
X217170000Y-69220000D02*
X210750000Y-62800000D01*
X204978000Y-51816000D02*
X185918000Y-51816000D01*
X210750000Y-62800000D02*
X210750000Y-57588000D01*
X210750000Y-57588000D02*
X204978000Y-51816000D01*
X185918000Y-51816000D02*
X183637000Y-54097000D01*
D25*
%TO.N,Net-(A2-STEP)*%
X181610000Y-74920000D02*
X181610000Y-73016396D01*
X181610000Y-73016396D02*
X175903604Y-67310000D01*
X175903604Y-67310000D02*
X120040000Y-67310000D01*
X120040000Y-67310000D02*
X118770000Y-66040000D01*
%TO.N,Net-(A1-M1)*%
X171450000Y-74920000D02*
X175016000Y-78486000D01*
X175016000Y-78486000D02*
X185964000Y-78486000D01*
X185964000Y-78486000D02*
X190645000Y-73805000D01*
X190645000Y-73805000D02*
X195725000Y-73805000D01*
X195725000Y-73805000D02*
X196850000Y-74930000D01*
%TO.N,Net-(A2-DIR)*%
X122397000Y-64953000D02*
X121310000Y-66040000D01*
%TO.N,GND*%
X173990000Y-74920000D02*
X173990000Y-74930000D01*
%TO.N,Net-(A1-M0)*%
X167650000Y-82507500D02*
X175270000Y-82507500D01*
X176395000Y-81382500D02*
X187857500Y-81382500D01*
X167650000Y-76180000D02*
X168910000Y-74920000D01*
X167650000Y-82507500D02*
X167650000Y-76180000D01*
X175270000Y-82507500D02*
X176395000Y-81382500D01*
X187857500Y-81382500D02*
X194310000Y-74930000D01*
%TO.N,Net-(A1-M1)*%
X189272500Y-82507500D02*
X196850000Y-74930000D01*
X181652500Y-82507500D02*
X189272500Y-82507500D01*
%TO.N,Net-(A1-DIR)*%
X117891701Y-64378299D02*
X116230000Y-66040000D01*
D26*
%TO.N,Net-(A1-B1)*%
X196850000Y-56140000D02*
X197660000Y-55330000D01*
X196850000Y-62230000D02*
X196850000Y-56140000D01*
%TO.N,Net-(A1-B2)*%
X199390000Y-62230000D02*
X199390000Y-55600000D01*
X199390000Y-55600000D02*
X199660000Y-55330000D01*
%TO.N,Net-(A1-A1)*%
X204470000Y-56140000D02*
X203660000Y-55330000D01*
X204470000Y-62230000D02*
X204470000Y-56140000D01*
%TO.N,Net-(A1-A2)*%
X201930000Y-62230000D02*
X201930000Y-55600000D01*
X201930000Y-55600000D02*
X201660000Y-55330000D01*
D25*
%TO.N,Net-(A2-DIR)*%
X184150000Y-74920000D02*
X174183000Y-64953000D01*
X174183000Y-64953000D02*
X122397000Y-64953000D01*
D26*
%TO.N,Net-(A2-B1)*%
X171450000Y-62220000D02*
X171450000Y-56642000D01*
X171450000Y-56642000D02*
X172720000Y-55372000D01*
%TO.N,Net-(A2-B2)*%
X173990000Y-62220000D02*
X173990000Y-56102000D01*
X173990000Y-56102000D02*
X174720000Y-55372000D01*
%TO.N,Net-(A2-A2)*%
X176530000Y-62220000D02*
X176530000Y-55562000D01*
X176530000Y-55562000D02*
X176720000Y-55372000D01*
D25*
%TO.N,Net-(A1-VMOT)*%
X163739166Y-57190000D02*
X166370000Y-59820834D01*
D26*
X147550000Y-57190000D02*
X147320000Y-56960000D01*
D25*
X161290000Y-57190000D02*
X163739166Y-57190000D01*
D26*
X153670000Y-57190000D02*
X161290000Y-57190000D01*
X172093834Y-54097000D02*
X166370000Y-59820834D01*
X166370000Y-59820834D02*
X166370000Y-62220000D01*
X183637000Y-54097000D02*
X172093834Y-54097000D01*
X153670000Y-57190000D02*
X147550000Y-57190000D01*
X191770000Y-62230000D02*
X183637000Y-54097000D01*
%TO.N,Net-(A2-A1)*%
X179070000Y-62220000D02*
X179070000Y-55722000D01*
X179070000Y-55722000D02*
X178720000Y-55372000D01*
D25*
%TO.N,Net-(J5-Pin_13)*%
X124460000Y-72390000D02*
X127000000Y-72390000D01*
%TO.N,Net-(J5-Pin_11)*%
X124460000Y-74930000D02*
X127000000Y-74930000D01*
X128625000Y-76555000D02*
X128625000Y-88545000D01*
X126817000Y-90353000D02*
X124937000Y-90353000D01*
X128625000Y-88545000D02*
X126817000Y-90353000D01*
X127000000Y-74930000D02*
X128625000Y-76555000D01*
X124937000Y-90353000D02*
X123850000Y-91440000D01*
%TO.N,Net-(J5-Pin_10)*%
X127000000Y-77470000D02*
X124460000Y-77470000D01*
%TO.N,Net-(J3-Pin_2)*%
X107157000Y-87813000D02*
X103530000Y-91440000D01*
X124460000Y-85090000D02*
X121737000Y-87813000D01*
X209315000Y-81785000D02*
X216825000Y-81785000D01*
X207990000Y-83110000D02*
X207990000Y-89610000D01*
X175270000Y-90127500D02*
X172917500Y-87775000D01*
X176947500Y-88450000D02*
X175270000Y-90127500D01*
X198152500Y-87630000D02*
X197027500Y-88755000D01*
X198152500Y-87630000D02*
X198152500Y-86498630D01*
X207990000Y-83110000D02*
X209315000Y-81785000D01*
X153603148Y-81213148D02*
X152780000Y-81213148D01*
X107157000Y-58897000D02*
X107157000Y-87813000D01*
X151130000Y-75280000D02*
X152780000Y-76930000D01*
X197027500Y-88755000D02*
X190645000Y-88755000D01*
X152780000Y-76930000D02*
X152780000Y-81213148D01*
X105410000Y-57150000D02*
X107157000Y-58897000D01*
X172917500Y-87775000D02*
X160165000Y-87775000D01*
X189272500Y-90127500D02*
X187595000Y-88450000D01*
X158750000Y-86360000D02*
X153603148Y-81213148D01*
X121737000Y-87813000D02*
X107157000Y-87813000D01*
X218150000Y-83110000D02*
X218150000Y-89610000D01*
X187595000Y-88450000D02*
X176947500Y-88450000D01*
X216825000Y-81785000D02*
X218150000Y-83110000D01*
X145510000Y-57150000D02*
X105410000Y-57150000D01*
X160165000Y-87775000D02*
X158750000Y-86360000D01*
X203371130Y-81280000D02*
X206160000Y-81280000D01*
X147320000Y-58960000D02*
X145510000Y-57150000D01*
X190645000Y-88755000D02*
X189272500Y-90127500D01*
X206160000Y-81280000D02*
X207990000Y-83110000D01*
X198152500Y-86498630D02*
X203371130Y-81280000D01*
X124460000Y-85090000D02*
X127000000Y-85090000D01*
%TO.N,Net-(J3-Pin_3)*%
X151130000Y-77280000D02*
X143090000Y-77280000D01*
X143090000Y-77280000D02*
X128930000Y-91440000D01*
%TO.N,Net-(J3-Pin_4)*%
X151130000Y-79280000D02*
X148710000Y-79280000D01*
X148710000Y-79280000D02*
X136550000Y-91440000D01*
%TO.N,Net-(R3-Pad2)*%
X182880000Y-88900000D02*
X181652500Y-90127500D01*
X186266509Y-91252500D02*
X185452500Y-90438491D01*
X185452500Y-90438491D02*
X185452500Y-89796509D01*
X194342500Y-90170000D02*
X193260000Y-91252500D01*
X193260000Y-91252500D02*
X186266509Y-91252500D01*
X185452500Y-89796509D02*
X184555991Y-88900000D01*
X184555991Y-88900000D02*
X182880000Y-88900000D01*
%TO.N,Net-(R4-Pad2)*%
X161102500Y-91252500D02*
X169065000Y-91252500D01*
X169065000Y-91252500D02*
X170190000Y-90127500D01*
X158750000Y-88900000D02*
X161102500Y-91252500D01*
%TO.N,Net-(U1-IO35)*%
X213650000Y-83110000D02*
X213650000Y-89610000D01*
%TO.N,Net-(U1-IO34)*%
X203490000Y-83110000D02*
X203490000Y-89610000D01*
%TO.N,Net-(A1-STEP)*%
X148685000Y-73755000D02*
X149285000Y-74355000D01*
X149285000Y-74355000D02*
X151788148Y-74355000D01*
X116935000Y-73755000D02*
X148685000Y-73755000D01*
X109220000Y-66040000D02*
X116935000Y-73755000D01*
X108610000Y-66040000D02*
X109220000Y-66040000D01*
X161065648Y-83632500D02*
X151788148Y-74355000D01*
X198307500Y-83632500D02*
X161065648Y-83632500D01*
X207010000Y-74930000D02*
X198307500Y-83632500D01*
%TO.N,Net-(J3-Pin_5)*%
X129380251Y-92527000D02*
X114777000Y-92527000D01*
X142651749Y-78355000D02*
X130017000Y-90989749D01*
X152330000Y-78896852D02*
X151788148Y-78355000D01*
X151788148Y-78355000D02*
X142651749Y-78355000D01*
X152330000Y-80080000D02*
X152330000Y-78896852D01*
X151130000Y-81280000D02*
X152330000Y-80080000D01*
X114777000Y-92527000D02*
X113690000Y-91440000D01*
X130017000Y-90989749D02*
X130017000Y-91890251D01*
X130017000Y-91890251D02*
X129380251Y-92527000D01*
%TO.N,Net-(R1-Pad2)*%
X167607500Y-90170000D02*
X167650000Y-90127500D01*
X167650000Y-90127500D02*
X163787500Y-90127500D01*
X163787500Y-90127500D02*
X162560000Y-88900000D01*
%TO.N,Net-(R2-Pad2)*%
X198152500Y-90170000D02*
X196620000Y-91702500D01*
X185767500Y-91702500D02*
X184192500Y-90127500D01*
X196620000Y-91702500D02*
X185767500Y-91702500D01*
%TO.N,Net-(J5-Pin_7)*%
X128175000Y-85576701D02*
X127486701Y-86265000D01*
X128175000Y-81185000D02*
X128175000Y-85576701D01*
X127486701Y-86265000D02*
X123921396Y-86265000D01*
X123921396Y-86265000D02*
X121310000Y-88876396D01*
X127000000Y-80010000D02*
X128175000Y-81185000D01*
X121310000Y-88876396D02*
X121310000Y-91440000D01*
X124460000Y-80010000D02*
X127000000Y-80010000D01*
D26*
%TO.N,Net-(J4-Pin_1)*%
X216440000Y-64040000D02*
X217170000Y-64770000D01*
X216440000Y-55880000D02*
X216440000Y-64040000D01*
%TD*%
%TA.AperFunction,Conductor*%
%TO.N,GND*%
G36*
X120694311Y-88458185D02*
G01*
X120740066Y-88510989D01*
X120750010Y-88580147D01*
X120735934Y-88622237D01*
X120723803Y-88644301D01*
X120718822Y-88663703D01*
X120712521Y-88682106D01*
X120704562Y-88700498D01*
X120704561Y-88700501D01*
X120697728Y-88743639D01*
X120695360Y-88755070D01*
X120684501Y-88797367D01*
X120684500Y-88797378D01*
X120684500Y-88817412D01*
X120682973Y-88836811D01*
X120679840Y-88856590D01*
X120679840Y-88856591D01*
X120683950Y-88900070D01*
X120684500Y-88911739D01*
X120684500Y-90272201D01*
X120664815Y-90339240D01*
X120631623Y-90373776D01*
X120495377Y-90469175D01*
X120339175Y-90625377D01*
X120212466Y-90806338D01*
X120212465Y-90806340D01*
X120152382Y-90935189D01*
X120106209Y-90987628D01*
X120039016Y-91006780D01*
X119972135Y-90986564D01*
X119927618Y-90935189D01*
X119875178Y-90822732D01*
X119867534Y-90806339D01*
X119772249Y-90670257D01*
X119740827Y-90625381D01*
X119669957Y-90554511D01*
X119584620Y-90469174D01*
X119584616Y-90469171D01*
X119584615Y-90469170D01*
X119403666Y-90342468D01*
X119403662Y-90342466D01*
X119353763Y-90319198D01*
X119203450Y-90249106D01*
X119203447Y-90249105D01*
X119203445Y-90249104D01*
X118990070Y-90191930D01*
X118990062Y-90191929D01*
X118770002Y-90172677D01*
X118769998Y-90172677D01*
X118549937Y-90191929D01*
X118549929Y-90191930D01*
X118336554Y-90249104D01*
X118336548Y-90249107D01*
X118136340Y-90342465D01*
X118136338Y-90342466D01*
X117955377Y-90469175D01*
X117799175Y-90625377D01*
X117672466Y-90806338D01*
X117672465Y-90806340D01*
X117612382Y-90935189D01*
X117566209Y-90987628D01*
X117499016Y-91006780D01*
X117432135Y-90986564D01*
X117387618Y-90935189D01*
X117335178Y-90822732D01*
X117327534Y-90806339D01*
X117232249Y-90670257D01*
X117200827Y-90625381D01*
X117129957Y-90554511D01*
X117044620Y-90469174D01*
X117044616Y-90469171D01*
X117044615Y-90469170D01*
X116863666Y-90342468D01*
X116863662Y-90342466D01*
X116813763Y-90319198D01*
X116663450Y-90249106D01*
X116663447Y-90249105D01*
X116663445Y-90249104D01*
X116450070Y-90191930D01*
X116450062Y-90191929D01*
X116230002Y-90172677D01*
X116229998Y-90172677D01*
X116009937Y-90191929D01*
X116009929Y-90191930D01*
X115796554Y-90249104D01*
X115796548Y-90249107D01*
X115596340Y-90342465D01*
X115596338Y-90342466D01*
X115415377Y-90469175D01*
X115259175Y-90625377D01*
X115132466Y-90806338D01*
X115132465Y-90806340D01*
X115072382Y-90935189D01*
X115026209Y-90987628D01*
X114959016Y-91006780D01*
X114892135Y-90986564D01*
X114847618Y-90935189D01*
X114795178Y-90822732D01*
X114787534Y-90806339D01*
X114692249Y-90670257D01*
X114660827Y-90625381D01*
X114589957Y-90554511D01*
X114504620Y-90469174D01*
X114504616Y-90469171D01*
X114504615Y-90469170D01*
X114323666Y-90342468D01*
X114323662Y-90342466D01*
X114273763Y-90319198D01*
X114123450Y-90249106D01*
X114123447Y-90249105D01*
X114123445Y-90249104D01*
X113910070Y-90191930D01*
X113910062Y-90191929D01*
X113690002Y-90172677D01*
X113689998Y-90172677D01*
X113469937Y-90191929D01*
X113469929Y-90191930D01*
X113256554Y-90249104D01*
X113256548Y-90249107D01*
X113056340Y-90342465D01*
X113056338Y-90342466D01*
X112875377Y-90469175D01*
X112719175Y-90625377D01*
X112592466Y-90806338D01*
X112592465Y-90806340D01*
X112532382Y-90935189D01*
X112486209Y-90987628D01*
X112419016Y-91006780D01*
X112352135Y-90986564D01*
X112307618Y-90935189D01*
X112255178Y-90822732D01*
X112247534Y-90806339D01*
X112152249Y-90670257D01*
X112120827Y-90625381D01*
X112049957Y-90554511D01*
X111964620Y-90469174D01*
X111964616Y-90469171D01*
X111964615Y-90469170D01*
X111783666Y-90342468D01*
X111783662Y-90342466D01*
X111733763Y-90319198D01*
X111583450Y-90249106D01*
X111583447Y-90249105D01*
X111583445Y-90249104D01*
X111370070Y-90191930D01*
X111370062Y-90191929D01*
X111150002Y-90172677D01*
X111149998Y-90172677D01*
X110929937Y-90191929D01*
X110929929Y-90191930D01*
X110716554Y-90249104D01*
X110716548Y-90249107D01*
X110516340Y-90342465D01*
X110516338Y-90342466D01*
X110335377Y-90469175D01*
X110179175Y-90625377D01*
X110052466Y-90806338D01*
X110052465Y-90806340D01*
X109992382Y-90935189D01*
X109946209Y-90987628D01*
X109879016Y-91006780D01*
X109812135Y-90986564D01*
X109767618Y-90935189D01*
X109715178Y-90822732D01*
X109707534Y-90806339D01*
X109612249Y-90670257D01*
X109580827Y-90625381D01*
X109509957Y-90554511D01*
X109424620Y-90469174D01*
X109424616Y-90469171D01*
X109424615Y-90469170D01*
X109243666Y-90342468D01*
X109243662Y-90342466D01*
X109193763Y-90319198D01*
X109043450Y-90249106D01*
X109043447Y-90249105D01*
X109043445Y-90249104D01*
X108830070Y-90191930D01*
X108830062Y-90191929D01*
X108610002Y-90172677D01*
X108609998Y-90172677D01*
X108389937Y-90191929D01*
X108389929Y-90191930D01*
X108176554Y-90249104D01*
X108176548Y-90249107D01*
X107976340Y-90342465D01*
X107976338Y-90342466D01*
X107795377Y-90469175D01*
X107639175Y-90625377D01*
X107512467Y-90806337D01*
X107452105Y-90935782D01*
X107405932Y-90988221D01*
X107338738Y-91007372D01*
X107271857Y-90987156D01*
X107227341Y-90935780D01*
X107167098Y-90806589D01*
X107167097Y-90806587D01*
X107121741Y-90741811D01*
X107121740Y-90741810D01*
X106454903Y-91408646D01*
X106454949Y-91408102D01*
X106423734Y-91284838D01*
X106354187Y-91178388D01*
X106253843Y-91100287D01*
X106133578Y-91059000D01*
X106097447Y-91059000D01*
X106768188Y-90388258D01*
X106703411Y-90342901D01*
X106703405Y-90342898D01*
X106503284Y-90249580D01*
X106503270Y-90249575D01*
X106289986Y-90192426D01*
X106289976Y-90192424D01*
X106070001Y-90173179D01*
X106069998Y-90173179D01*
X105983542Y-90180743D01*
X105915042Y-90166976D01*
X105864859Y-90118361D01*
X105848926Y-90050333D01*
X105872301Y-89984489D01*
X105885045Y-89969543D01*
X107379771Y-88474819D01*
X107441094Y-88441334D01*
X107467452Y-88438500D01*
X120627272Y-88438500D01*
X120694311Y-88458185D01*
G37*
%TD.AperFunction*%
%TA.AperFunction,Conductor*%
G36*
X123125873Y-88047625D02*
G01*
X123181806Y-88089497D01*
X123194921Y-88111402D01*
X123286399Y-88307578D01*
X123421894Y-88501082D01*
X123588917Y-88668105D01*
X123782421Y-88803600D01*
X123996507Y-88903429D01*
X123996516Y-88903433D01*
X124210000Y-88960634D01*
X124210000Y-88065501D01*
X124317685Y-88114680D01*
X124424237Y-88130000D01*
X124495763Y-88130000D01*
X124602315Y-88114680D01*
X124710000Y-88065501D01*
X124710000Y-88960633D01*
X124923483Y-88903433D01*
X124923492Y-88903429D01*
X125137578Y-88803600D01*
X125331078Y-88668108D01*
X125453521Y-88545665D01*
X125514844Y-88512180D01*
X125584536Y-88517164D01*
X125640470Y-88559035D01*
X125657385Y-88590013D01*
X125706645Y-88722086D01*
X125706649Y-88722093D01*
X125792809Y-88837187D01*
X125792812Y-88837190D01*
X125907906Y-88923350D01*
X125907913Y-88923354D01*
X126042620Y-88973596D01*
X126042627Y-88973598D01*
X126102155Y-88979999D01*
X126102172Y-88980000D01*
X126750000Y-88980000D01*
X126750000Y-88065501D01*
X126857685Y-88114680D01*
X126964237Y-88130000D01*
X127035763Y-88130000D01*
X127142315Y-88114680D01*
X127250000Y-88065501D01*
X127250000Y-88984047D01*
X127230315Y-89051086D01*
X127213681Y-89071728D01*
X126594228Y-89691181D01*
X126532905Y-89724666D01*
X126506547Y-89727500D01*
X125019738Y-89727500D01*
X125004121Y-89725776D01*
X125004094Y-89726062D01*
X124996332Y-89725327D01*
X124929145Y-89727439D01*
X124925251Y-89727500D01*
X124897650Y-89727500D01*
X124893962Y-89727965D01*
X124893649Y-89728005D01*
X124882031Y-89728918D01*
X124838373Y-89730290D01*
X124838372Y-89730290D01*
X124819129Y-89735881D01*
X124800079Y-89739825D01*
X124780211Y-89742334D01*
X124780210Y-89742335D01*
X124739600Y-89758413D01*
X124728553Y-89762195D01*
X124686610Y-89774381D01*
X124686609Y-89774382D01*
X124669367Y-89784579D01*
X124651899Y-89793137D01*
X124633269Y-89800513D01*
X124633266Y-89800515D01*
X124597939Y-89826181D01*
X124588180Y-89832592D01*
X124550579Y-89854830D01*
X124536408Y-89869000D01*
X124521623Y-89881628D01*
X124505412Y-89893407D01*
X124477571Y-89927059D01*
X124469711Y-89935696D01*
X124233794Y-90171613D01*
X124172471Y-90205098D01*
X124114020Y-90203707D01*
X124070068Y-90191930D01*
X123935899Y-90180192D01*
X123850002Y-90172677D01*
X123849998Y-90172677D01*
X123629937Y-90191929D01*
X123629929Y-90191930D01*
X123416554Y-90249104D01*
X123416548Y-90249107D01*
X123216340Y-90342465D01*
X123216338Y-90342466D01*
X123035377Y-90469175D01*
X122879175Y-90625377D01*
X122752466Y-90806338D01*
X122752465Y-90806340D01*
X122692382Y-90935189D01*
X122646209Y-90987628D01*
X122579016Y-91006780D01*
X122512135Y-90986564D01*
X122467618Y-90935189D01*
X122415178Y-90822732D01*
X122407534Y-90806339D01*
X122312249Y-90670257D01*
X122280827Y-90625381D01*
X122209957Y-90554511D01*
X122124620Y-90469174D01*
X121988376Y-90373775D01*
X121944752Y-90319198D01*
X121935500Y-90272200D01*
X121935500Y-89186847D01*
X121955185Y-89119808D01*
X121971814Y-89099171D01*
X122994862Y-88076123D01*
X123056181Y-88042641D01*
X123125873Y-88047625D01*
G37*
%TD.AperFunction*%
%TA.AperFunction,Conductor*%
G36*
X172674087Y-88420185D02*
G01*
X172694729Y-88436819D01*
X172951616Y-88693706D01*
X172985101Y-88755029D01*
X172980117Y-88824721D01*
X172980000Y-88824879D01*
X172980000Y-89811814D01*
X172968045Y-89799859D01*
X172855148Y-89742335D01*
X172761481Y-89727500D01*
X172698519Y-89727500D01*
X172604852Y-89742335D01*
X172491955Y-89799859D01*
X172480000Y-89811814D01*
X172480000Y-88848627D01*
X172283671Y-88901234D01*
X172077517Y-88997365D01*
X171891179Y-89127842D01*
X171730342Y-89288679D01*
X171599867Y-89475015D01*
X171572657Y-89533367D01*
X171526484Y-89585806D01*
X171459290Y-89604957D01*
X171392409Y-89584741D01*
X171347893Y-89533365D01*
X171340386Y-89517267D01*
X171320568Y-89474766D01*
X171190047Y-89288361D01*
X171190045Y-89288358D01*
X171029141Y-89127454D01*
X170842734Y-88996932D01*
X170842732Y-88996931D01*
X170636497Y-88900761D01*
X170636488Y-88900758D01*
X170416697Y-88841866D01*
X170416693Y-88841865D01*
X170416692Y-88841865D01*
X170416691Y-88841864D01*
X170416686Y-88841864D01*
X170190002Y-88822032D01*
X170189998Y-88822032D01*
X169963313Y-88841864D01*
X169963302Y-88841866D01*
X169743511Y-88900758D01*
X169743502Y-88900761D01*
X169537267Y-88996931D01*
X169537265Y-88996932D01*
X169350858Y-89127454D01*
X169189954Y-89288358D01*
X169172725Y-89312964D01*
X169118147Y-89356588D01*
X169048648Y-89363780D01*
X168986294Y-89332257D01*
X168950882Y-89272026D01*
X168947861Y-89255091D01*
X168947086Y-89247885D01*
X168944091Y-89220017D01*
X168936803Y-89200478D01*
X168893797Y-89085171D01*
X168893793Y-89085164D01*
X168807547Y-88969955D01*
X168807544Y-88969952D01*
X168692335Y-88883706D01*
X168692328Y-88883702D01*
X168557482Y-88833408D01*
X168557483Y-88833408D01*
X168497883Y-88827001D01*
X168497881Y-88827000D01*
X168497873Y-88827000D01*
X168497864Y-88827000D01*
X166802129Y-88827000D01*
X166802123Y-88827001D01*
X166742516Y-88833408D01*
X166607671Y-88883702D01*
X166607664Y-88883706D01*
X166492455Y-88969952D01*
X166492452Y-88969955D01*
X166406206Y-89085164D01*
X166406202Y-89085171D01*
X166355908Y-89220017D01*
X166349501Y-89279616D01*
X166349500Y-89279635D01*
X166349500Y-89378000D01*
X166329815Y-89445039D01*
X166277011Y-89490794D01*
X166225500Y-89502000D01*
X164097953Y-89502000D01*
X164030914Y-89482315D01*
X164010272Y-89465681D01*
X163859413Y-89314822D01*
X163825928Y-89253499D01*
X163827319Y-89195048D01*
X163829516Y-89186847D01*
X163845635Y-89126692D01*
X163865360Y-88901234D01*
X163865468Y-88900001D01*
X163865468Y-88899998D01*
X163858242Y-88817412D01*
X163845635Y-88673308D01*
X163823757Y-88591657D01*
X163814362Y-88556593D01*
X163816025Y-88486743D01*
X163855188Y-88428881D01*
X163919417Y-88401377D01*
X163934137Y-88400500D01*
X172607048Y-88400500D01*
X172674087Y-88420185D01*
G37*
%TD.AperFunction*%
%TA.AperFunction,Conductor*%
G36*
X126540507Y-87420156D02*
G01*
X126500000Y-87558111D01*
X126500000Y-87701889D01*
X126540507Y-87839844D01*
X126566314Y-87880000D01*
X124893686Y-87880000D01*
X124919493Y-87839844D01*
X124960000Y-87701889D01*
X124960000Y-87558111D01*
X124919493Y-87420156D01*
X124893686Y-87380000D01*
X126566314Y-87380000D01*
X126540507Y-87420156D01*
G37*
%TD.AperFunction*%
%TA.AperFunction,Conductor*%
G36*
X117567865Y-66493435D02*
G01*
X117612382Y-66544811D01*
X117672464Y-66673658D01*
X117672468Y-66673666D01*
X117799170Y-66854615D01*
X117799175Y-66854621D01*
X117955378Y-67010824D01*
X117955384Y-67010829D01*
X118136333Y-67137531D01*
X118136335Y-67137532D01*
X118136338Y-67137534D01*
X118336550Y-67230894D01*
X118549932Y-67288070D01*
X118707123Y-67301822D01*
X118769998Y-67307323D01*
X118770000Y-67307323D01*
X118770002Y-67307323D01*
X118800502Y-67304654D01*
X118990068Y-67288070D01*
X118991916Y-67287575D01*
X118998720Y-67285751D01*
X119034019Y-67276293D01*
X119103868Y-67277954D01*
X119153795Y-67308386D01*
X119539197Y-67693788D01*
X119549022Y-67706051D01*
X119549243Y-67705869D01*
X119554211Y-67711874D01*
X119603222Y-67757899D01*
X119606021Y-67760612D01*
X119625522Y-67780114D01*
X119625526Y-67780117D01*
X119625529Y-67780120D01*
X119628702Y-67782581D01*
X119637574Y-67790159D01*
X119669418Y-67820062D01*
X119686976Y-67829714D01*
X119703235Y-67840395D01*
X119719064Y-67852673D01*
X119759155Y-67870021D01*
X119769626Y-67875151D01*
X119792180Y-67887550D01*
X119807902Y-67896194D01*
X119807904Y-67896195D01*
X119807908Y-67896197D01*
X119827316Y-67901180D01*
X119845719Y-67907481D01*
X119864101Y-67915436D01*
X119864102Y-67915436D01*
X119864104Y-67915437D01*
X119907250Y-67922270D01*
X119918672Y-67924636D01*
X119960981Y-67935500D01*
X119981016Y-67935500D01*
X120000414Y-67937026D01*
X120020194Y-67940159D01*
X120020195Y-67940160D01*
X120020195Y-67940159D01*
X120020196Y-67940160D01*
X120063675Y-67936050D01*
X120075344Y-67935500D01*
X175593152Y-67935500D01*
X175660191Y-67955185D01*
X175680833Y-67971819D01*
X180948181Y-73239167D01*
X180981666Y-73300490D01*
X180984500Y-73326848D01*
X180984500Y-73705811D01*
X180964815Y-73772850D01*
X180931623Y-73807386D01*
X180770859Y-73919953D01*
X180609954Y-74080858D01*
X180479432Y-74267265D01*
X180479431Y-74267267D01*
X180452382Y-74325275D01*
X180406209Y-74377714D01*
X180339016Y-74396866D01*
X180272135Y-74376650D01*
X180227618Y-74325275D01*
X180222837Y-74315022D01*
X180200568Y-74267266D01*
X180070047Y-74080861D01*
X180070045Y-74080858D01*
X179909141Y-73919954D01*
X179841325Y-73872469D01*
X179722734Y-73789432D01*
X179619615Y-73741346D01*
X179516497Y-73693261D01*
X179516488Y-73693258D01*
X179296697Y-73634366D01*
X179296693Y-73634365D01*
X179296692Y-73634365D01*
X179296691Y-73634364D01*
X179296686Y-73634364D01*
X179070002Y-73614532D01*
X179069998Y-73614532D01*
X178843313Y-73634364D01*
X178843302Y-73634366D01*
X178623511Y-73693258D01*
X178623502Y-73693261D01*
X178417266Y-73789432D01*
X178230858Y-73919954D01*
X178069954Y-74080858D01*
X177939433Y-74267264D01*
X177939432Y-74267266D01*
X177925253Y-74297674D01*
X177912106Y-74325867D01*
X177865933Y-74378306D01*
X177798739Y-74397457D01*
X177731858Y-74377241D01*
X177687342Y-74325865D01*
X177660135Y-74267520D01*
X177660134Y-74267518D01*
X177529657Y-74081179D01*
X177368820Y-73920342D01*
X177182482Y-73789865D01*
X176976328Y-73693734D01*
X176780000Y-73641127D01*
X176780000Y-74604314D01*
X176768045Y-74592359D01*
X176655148Y-74534835D01*
X176561481Y-74520000D01*
X176498519Y-74520000D01*
X176404852Y-74534835D01*
X176291955Y-74592359D01*
X176280000Y-74604314D01*
X176280000Y-73641127D01*
X176083671Y-73693734D01*
X175877517Y-73789865D01*
X175691179Y-73920342D01*
X175530342Y-74081179D01*
X175399865Y-74267517D01*
X175372382Y-74326457D01*
X175326210Y-74378896D01*
X175259016Y-74398048D01*
X175192135Y-74377832D01*
X175147618Y-74326457D01*
X175120134Y-74267517D01*
X174989657Y-74081179D01*
X174828820Y-73920342D01*
X174642482Y-73789865D01*
X174436328Y-73693734D01*
X174240000Y-73641127D01*
X174240000Y-74604314D01*
X174228045Y-74592359D01*
X174115148Y-74534835D01*
X174021481Y-74520000D01*
X173958519Y-74520000D01*
X173864852Y-74534835D01*
X173751955Y-74592359D01*
X173740000Y-74604314D01*
X173740000Y-73641127D01*
X173543671Y-73693734D01*
X173337517Y-73789865D01*
X173151179Y-73920342D01*
X172990342Y-74081179D01*
X172859867Y-74267515D01*
X172832657Y-74325867D01*
X172786484Y-74378306D01*
X172719290Y-74397457D01*
X172652409Y-74377241D01*
X172607893Y-74325865D01*
X172594747Y-74297674D01*
X172580568Y-74267266D01*
X172450047Y-74080861D01*
X172450045Y-74080858D01*
X172289141Y-73919954D01*
X172221325Y-73872469D01*
X172102734Y-73789432D01*
X171999615Y-73741346D01*
X171896497Y-73693261D01*
X171896488Y-73693258D01*
X171676697Y-73634366D01*
X171676693Y-73634365D01*
X171676692Y-73634365D01*
X171676691Y-73634364D01*
X171676686Y-73634364D01*
X171450002Y-73614532D01*
X171449998Y-73614532D01*
X171223313Y-73634364D01*
X171223302Y-73634366D01*
X171003511Y-73693258D01*
X171003502Y-73693261D01*
X170797266Y-73789432D01*
X170610858Y-73919954D01*
X170449954Y-74080858D01*
X170319432Y-74267265D01*
X170319431Y-74267267D01*
X170292382Y-74325275D01*
X170246209Y-74377714D01*
X170179016Y-74396866D01*
X170112135Y-74376650D01*
X170067618Y-74325275D01*
X170062837Y-74315022D01*
X170040568Y-74267266D01*
X169910047Y-74080861D01*
X169910045Y-74080858D01*
X169749141Y-73919954D01*
X169681325Y-73872469D01*
X169562734Y-73789432D01*
X169459615Y-73741346D01*
X169356497Y-73693261D01*
X169356488Y-73693258D01*
X169136697Y-73634366D01*
X169136693Y-73634365D01*
X169136692Y-73634365D01*
X169136691Y-73634364D01*
X169136686Y-73634364D01*
X168910002Y-73614532D01*
X168909998Y-73614532D01*
X168683313Y-73634364D01*
X168683302Y-73634366D01*
X168463511Y-73693258D01*
X168463502Y-73693261D01*
X168257266Y-73789432D01*
X168070858Y-73919954D01*
X167909954Y-74080858D01*
X167892725Y-74105464D01*
X167838147Y-74149088D01*
X167768648Y-74156280D01*
X167706294Y-74124757D01*
X167670882Y-74064526D01*
X167667861Y-74047591D01*
X167664091Y-74012516D01*
X167613797Y-73877671D01*
X167613793Y-73877664D01*
X167527547Y-73762455D01*
X167527544Y-73762452D01*
X167412335Y-73676206D01*
X167412328Y-73676202D01*
X167277482Y-73625908D01*
X167277483Y-73625908D01*
X167217883Y-73619501D01*
X167217881Y-73619500D01*
X167217873Y-73619500D01*
X167217864Y-73619500D01*
X165522129Y-73619500D01*
X165522123Y-73619501D01*
X165462516Y-73625908D01*
X165327671Y-73676202D01*
X165327664Y-73676206D01*
X165212455Y-73762452D01*
X165212452Y-73762455D01*
X165126206Y-73877664D01*
X165126202Y-73877671D01*
X165075908Y-74012517D01*
X165069501Y-74072116D01*
X165069500Y-74072135D01*
X165069500Y-75767870D01*
X165069501Y-75767876D01*
X165075908Y-75827483D01*
X165126202Y-75962328D01*
X165126206Y-75962335D01*
X165212452Y-76077544D01*
X165212455Y-76077547D01*
X165327664Y-76163793D01*
X165327671Y-76163797D01*
X165462517Y-76214091D01*
X165462516Y-76214091D01*
X165469444Y-76214835D01*
X165522127Y-76220500D01*
X166900500Y-76220499D01*
X166967539Y-76240184D01*
X167013294Y-76292987D01*
X167024500Y-76344499D01*
X167024500Y-81293311D01*
X167004815Y-81360350D01*
X166971623Y-81394886D01*
X166810859Y-81507453D01*
X166649954Y-81668358D01*
X166519432Y-81854765D01*
X166519431Y-81854767D01*
X166423261Y-82061002D01*
X166423258Y-82061011D01*
X166364366Y-82280802D01*
X166364364Y-82280813D01*
X166344532Y-82507498D01*
X166344532Y-82507501D01*
X166364364Y-82734186D01*
X166364366Y-82734197D01*
X166395638Y-82850907D01*
X166393975Y-82920757D01*
X166354812Y-82978619D01*
X166290583Y-83006123D01*
X166275863Y-83007000D01*
X161376101Y-83007000D01*
X161309062Y-82987315D01*
X161288420Y-82970681D01*
X152442880Y-74125141D01*
X152409395Y-74063818D01*
X152414379Y-73994126D01*
X152425024Y-73972361D01*
X152439354Y-73949128D01*
X152439358Y-73949120D01*
X152494505Y-73782697D01*
X152494506Y-73782690D01*
X152504999Y-73679986D01*
X152505000Y-73679973D01*
X152505000Y-73530000D01*
X151409560Y-73530000D01*
X151448278Y-73487941D01*
X151498551Y-73373330D01*
X151508886Y-73248605D01*
X151478163Y-73127281D01*
X151414606Y-73030000D01*
X152504999Y-73030000D01*
X152504999Y-72880028D01*
X152504998Y-72880013D01*
X152494505Y-72777302D01*
X152439358Y-72610880D01*
X152439356Y-72610875D01*
X152347315Y-72461654D01*
X152223345Y-72337684D01*
X152074124Y-72245643D01*
X152074119Y-72245641D01*
X151907697Y-72190494D01*
X151907690Y-72190493D01*
X151804986Y-72180000D01*
X151380000Y-72180000D01*
X151380000Y-72999382D01*
X151310948Y-72945637D01*
X151192576Y-72905000D01*
X151098927Y-72905000D01*
X151006554Y-72920414D01*
X150896486Y-72979981D01*
X150880000Y-72997889D01*
X150880000Y-72180000D01*
X150455028Y-72180000D01*
X150455012Y-72180001D01*
X150352302Y-72190494D01*
X150185880Y-72245641D01*
X150185875Y-72245643D01*
X150036654Y-72337684D01*
X149912684Y-72461654D01*
X149820643Y-72610875D01*
X149820641Y-72610880D01*
X149765494Y-72777302D01*
X149765493Y-72777309D01*
X149755000Y-72880013D01*
X149755000Y-73030000D01*
X150850440Y-73030000D01*
X150811722Y-73072059D01*
X150761449Y-73186670D01*
X150751114Y-73311395D01*
X150781837Y-73432719D01*
X150845394Y-73530000D01*
X149755001Y-73530000D01*
X149755001Y-73605500D01*
X149735316Y-73672539D01*
X149682512Y-73718294D01*
X149631001Y-73729500D01*
X149595453Y-73729500D01*
X149528414Y-73709815D01*
X149507772Y-73693181D01*
X149185803Y-73371212D01*
X149175980Y-73358950D01*
X149175759Y-73359134D01*
X149170786Y-73353122D01*
X149121776Y-73307099D01*
X149118977Y-73304386D01*
X149099477Y-73284885D01*
X149099471Y-73284880D01*
X149096286Y-73282409D01*
X149087434Y-73274848D01*
X149055582Y-73244938D01*
X149055580Y-73244936D01*
X149055577Y-73244935D01*
X149038029Y-73235288D01*
X149021763Y-73224604D01*
X149005932Y-73212324D01*
X148965849Y-73194978D01*
X148955363Y-73189841D01*
X148917094Y-73168803D01*
X148917092Y-73168802D01*
X148897693Y-73163822D01*
X148879281Y-73157518D01*
X148860898Y-73149562D01*
X148860892Y-73149560D01*
X148817760Y-73142729D01*
X148806322Y-73140361D01*
X148764020Y-73129500D01*
X148764019Y-73129500D01*
X148743984Y-73129500D01*
X148724586Y-73127973D01*
X148717162Y-73126797D01*
X148704805Y-73124840D01*
X148704804Y-73124840D01*
X148661325Y-73128950D01*
X148649656Y-73129500D01*
X128339919Y-73129500D01*
X128272880Y-73109815D01*
X128227125Y-73057011D01*
X128217181Y-72987853D01*
X128227537Y-72953095D01*
X128242776Y-72920414D01*
X128273903Y-72853663D01*
X128335063Y-72625408D01*
X128355659Y-72390000D01*
X128335063Y-72154592D01*
X128277771Y-71940773D01*
X128273905Y-71926344D01*
X128273904Y-71926343D01*
X128273903Y-71926337D01*
X128174035Y-71712171D01*
X128168425Y-71704158D01*
X128038494Y-71518597D01*
X127871402Y-71351506D01*
X127871396Y-71351501D01*
X127685842Y-71221575D01*
X127642217Y-71166998D01*
X127635023Y-71097500D01*
X127666546Y-71035145D01*
X127685842Y-71018425D01*
X127739910Y-70980566D01*
X127871401Y-70888495D01*
X128038495Y-70721401D01*
X128174035Y-70527830D01*
X128273903Y-70313663D01*
X128335063Y-70085408D01*
X128355659Y-69850001D01*
X154904532Y-69850001D01*
X154924364Y-70076686D01*
X154924366Y-70076697D01*
X154983258Y-70296488D01*
X154983261Y-70296497D01*
X155079431Y-70502732D01*
X155079432Y-70502734D01*
X155209954Y-70689141D01*
X155370858Y-70850045D01*
X155370861Y-70850047D01*
X155557266Y-70980568D01*
X155615865Y-71007893D01*
X155668305Y-71054065D01*
X155687457Y-71121258D01*
X155667242Y-71188139D01*
X155615867Y-71232657D01*
X155557515Y-71259867D01*
X155371179Y-71390342D01*
X155210342Y-71551179D01*
X155079865Y-71737517D01*
X154983734Y-71943673D01*
X154983730Y-71943682D01*
X154931127Y-72139999D01*
X154931128Y-72140000D01*
X155894314Y-72140000D01*
X155882359Y-72151955D01*
X155824835Y-72264852D01*
X155805014Y-72390000D01*
X155824835Y-72515148D01*
X155882359Y-72628045D01*
X155894314Y-72640000D01*
X154931128Y-72640000D01*
X154983730Y-72836317D01*
X154983734Y-72836326D01*
X155079865Y-73042482D01*
X155210342Y-73228820D01*
X155371179Y-73389657D01*
X155557517Y-73520134D01*
X155763673Y-73616265D01*
X155763682Y-73616269D01*
X155959999Y-73668872D01*
X155960000Y-73668871D01*
X155960000Y-72705686D01*
X155971955Y-72717641D01*
X156084852Y-72775165D01*
X156178519Y-72790000D01*
X156241481Y-72790000D01*
X156335148Y-72775165D01*
X156448045Y-72717641D01*
X156460000Y-72705686D01*
X156460000Y-73668872D01*
X156656317Y-73616269D01*
X156656326Y-73616265D01*
X156862482Y-73520134D01*
X157048820Y-73389657D01*
X157209657Y-73228820D01*
X157340134Y-73042482D01*
X157436265Y-72836326D01*
X157436269Y-72836317D01*
X157488872Y-72640000D01*
X156525686Y-72640000D01*
X156537641Y-72628045D01*
X156595165Y-72515148D01*
X156614986Y-72390000D01*
X156595165Y-72264852D01*
X156537641Y-72151955D01*
X156525686Y-72140000D01*
X157488872Y-72140000D01*
X157488872Y-72139999D01*
X157436269Y-71943682D01*
X157436265Y-71943673D01*
X157340134Y-71737517D01*
X157209657Y-71551179D01*
X157048820Y-71390342D01*
X156862482Y-71259865D01*
X156804133Y-71232657D01*
X156751694Y-71186484D01*
X156732542Y-71119291D01*
X156752758Y-71052410D01*
X156804129Y-71007895D01*
X156862734Y-70980568D01*
X157049139Y-70850047D01*
X157210047Y-70689139D01*
X157340568Y-70502734D01*
X157436739Y-70296496D01*
X157495635Y-70076692D01*
X157515468Y-69850001D01*
X158714532Y-69850001D01*
X158734364Y-70076686D01*
X158734366Y-70076697D01*
X158793258Y-70296488D01*
X158793261Y-70296497D01*
X158889431Y-70502732D01*
X158889432Y-70502734D01*
X159019954Y-70689141D01*
X159180858Y-70850045D01*
X159180861Y-70850047D01*
X159367266Y-70980568D01*
X159425865Y-71007893D01*
X159478305Y-71054065D01*
X159497457Y-71121258D01*
X159477242Y-71188139D01*
X159425867Y-71232657D01*
X159367515Y-71259867D01*
X159181179Y-71390342D01*
X159020342Y-71551179D01*
X158889865Y-71737517D01*
X158793734Y-71943673D01*
X158793730Y-71943682D01*
X158741127Y-72139999D01*
X158741128Y-72140000D01*
X159704314Y-72140000D01*
X159692359Y-72151955D01*
X159634835Y-72264852D01*
X159615014Y-72390000D01*
X159634835Y-72515148D01*
X159692359Y-72628045D01*
X159704314Y-72640000D01*
X158741128Y-72640000D01*
X158793730Y-72836317D01*
X158793734Y-72836326D01*
X158889865Y-73042482D01*
X159020342Y-73228820D01*
X159181179Y-73389657D01*
X159367517Y-73520134D01*
X159573673Y-73616265D01*
X159573682Y-73616269D01*
X159769999Y-73668872D01*
X159770000Y-73668871D01*
X159770000Y-72705686D01*
X159781955Y-72717641D01*
X159894852Y-72775165D01*
X159988519Y-72790000D01*
X160051481Y-72790000D01*
X160145148Y-72775165D01*
X160258045Y-72717641D01*
X160270000Y-72705686D01*
X160270000Y-73668872D01*
X160466317Y-73616269D01*
X160466326Y-73616265D01*
X160672482Y-73520134D01*
X160858820Y-73389657D01*
X161019657Y-73228820D01*
X161150134Y-73042482D01*
X161246265Y-72836326D01*
X161246269Y-72836317D01*
X161298872Y-72640000D01*
X160335686Y-72640000D01*
X160347641Y-72628045D01*
X160405165Y-72515148D01*
X160424986Y-72390000D01*
X160405165Y-72264852D01*
X160347641Y-72151955D01*
X160335686Y-72140000D01*
X161298872Y-72140000D01*
X161298872Y-72139999D01*
X161246269Y-71943682D01*
X161246265Y-71943673D01*
X161150134Y-71737517D01*
X161019657Y-71551179D01*
X160858820Y-71390342D01*
X160672482Y-71259865D01*
X160614133Y-71232657D01*
X160561694Y-71186484D01*
X160542542Y-71119291D01*
X160562758Y-71052410D01*
X160614129Y-71007895D01*
X160672734Y-70980568D01*
X160859139Y-70850047D01*
X161020047Y-70689139D01*
X161150568Y-70502734D01*
X161246739Y-70296496D01*
X161305635Y-70076692D01*
X161325468Y-69850000D01*
X161305635Y-69623308D01*
X161246739Y-69403504D01*
X161150568Y-69197266D01*
X161020047Y-69010861D01*
X161020045Y-69010858D01*
X160859141Y-68849954D01*
X160672734Y-68719432D01*
X160672732Y-68719431D01*
X160466497Y-68623261D01*
X160466488Y-68623258D01*
X160246697Y-68564366D01*
X160246693Y-68564365D01*
X160246692Y-68564365D01*
X160246691Y-68564364D01*
X160246686Y-68564364D01*
X160020002Y-68544532D01*
X160019998Y-68544532D01*
X159793313Y-68564364D01*
X159793302Y-68564366D01*
X159573511Y-68623258D01*
X159573502Y-68623261D01*
X159367267Y-68719431D01*
X159367265Y-68719432D01*
X159180858Y-68849954D01*
X159019954Y-69010858D01*
X158889432Y-69197265D01*
X158889431Y-69197267D01*
X158793261Y-69403502D01*
X158793258Y-69403511D01*
X158734366Y-69623302D01*
X158734364Y-69623313D01*
X158714532Y-69849998D01*
X158714532Y-69850001D01*
X157515468Y-69850001D01*
X157515468Y-69850000D01*
X157495635Y-69623308D01*
X157436739Y-69403504D01*
X157340568Y-69197266D01*
X157210047Y-69010861D01*
X157210045Y-69010858D01*
X157049141Y-68849954D01*
X156862734Y-68719432D01*
X156862732Y-68719431D01*
X156656497Y-68623261D01*
X156656488Y-68623258D01*
X156436697Y-68564366D01*
X156436693Y-68564365D01*
X156436692Y-68564365D01*
X156436691Y-68564364D01*
X156436686Y-68564364D01*
X156210002Y-68544532D01*
X156209998Y-68544532D01*
X155983313Y-68564364D01*
X155983302Y-68564366D01*
X155763511Y-68623258D01*
X155763502Y-68623261D01*
X155557267Y-68719431D01*
X155557265Y-68719432D01*
X155370858Y-68849954D01*
X155209954Y-69010858D01*
X155079432Y-69197265D01*
X155079431Y-69197267D01*
X154983261Y-69403502D01*
X154983258Y-69403511D01*
X154924366Y-69623302D01*
X154924364Y-69623313D01*
X154904532Y-69849998D01*
X154904532Y-69850001D01*
X128355659Y-69850001D01*
X128355659Y-69850000D01*
X128335063Y-69614592D01*
X128273903Y-69386337D01*
X128174035Y-69172171D01*
X128168731Y-69164595D01*
X128038494Y-68978597D01*
X127871402Y-68811506D01*
X127871395Y-68811501D01*
X127677834Y-68675967D01*
X127677830Y-68675965D01*
X127564806Y-68623261D01*
X127463663Y-68576097D01*
X127463659Y-68576096D01*
X127463655Y-68576094D01*
X127235413Y-68514938D01*
X127235403Y-68514936D01*
X127000001Y-68494341D01*
X126999999Y-68494341D01*
X126764596Y-68514936D01*
X126764586Y-68514938D01*
X126536344Y-68576094D01*
X126536335Y-68576098D01*
X126322171Y-68675964D01*
X126322169Y-68675965D01*
X126128597Y-68811505D01*
X125961508Y-68978594D01*
X125831269Y-69164595D01*
X125776692Y-69208219D01*
X125707193Y-69215412D01*
X125644839Y-69183890D01*
X125628119Y-69164594D01*
X125498113Y-68978926D01*
X125498108Y-68978920D01*
X125331082Y-68811894D01*
X125137578Y-68676399D01*
X124923492Y-68576570D01*
X124923486Y-68576567D01*
X124710000Y-68519364D01*
X124710000Y-69414498D01*
X124602315Y-69365320D01*
X124495763Y-69350000D01*
X124424237Y-69350000D01*
X124317685Y-69365320D01*
X124210000Y-69414498D01*
X124210000Y-68519364D01*
X124209999Y-68519364D01*
X123996513Y-68576567D01*
X123996507Y-68576570D01*
X123782422Y-68676399D01*
X123782420Y-68676400D01*
X123588926Y-68811886D01*
X123588920Y-68811891D01*
X123421891Y-68978920D01*
X123421886Y-68978926D01*
X123286400Y-69172420D01*
X123286399Y-69172422D01*
X123186570Y-69386507D01*
X123186567Y-69386513D01*
X123129364Y-69599999D01*
X123129364Y-69600000D01*
X124026314Y-69600000D01*
X124000507Y-69640156D01*
X123960000Y-69778111D01*
X123960000Y-69921889D01*
X124000507Y-70059844D01*
X124026314Y-70100000D01*
X123129364Y-70100000D01*
X123186567Y-70313486D01*
X123186570Y-70313492D01*
X123286399Y-70527578D01*
X123421894Y-70721082D01*
X123588917Y-70888105D01*
X123774595Y-71018119D01*
X123818219Y-71072696D01*
X123825412Y-71142195D01*
X123793890Y-71204549D01*
X123774595Y-71221269D01*
X123588594Y-71351508D01*
X123421505Y-71518597D01*
X123285965Y-71712169D01*
X123285964Y-71712171D01*
X123186098Y-71926335D01*
X123186094Y-71926344D01*
X123124938Y-72154586D01*
X123124936Y-72154596D01*
X123104341Y-72389999D01*
X123104341Y-72390000D01*
X123124936Y-72625403D01*
X123124938Y-72625413D01*
X123186094Y-72853655D01*
X123186096Y-72853659D01*
X123186097Y-72853663D01*
X123210036Y-72905000D01*
X123232463Y-72953095D01*
X123242955Y-73022173D01*
X123214435Y-73085957D01*
X123155959Y-73124196D01*
X123120081Y-73129500D01*
X117245452Y-73129500D01*
X117178413Y-73109815D01*
X117157771Y-73093181D01*
X111508207Y-67443616D01*
X111474722Y-67382293D01*
X111479706Y-67312601D01*
X111521578Y-67256668D01*
X111563796Y-67236160D01*
X111583450Y-67230894D01*
X111783662Y-67137534D01*
X111964620Y-67010826D01*
X112120826Y-66854620D01*
X112247534Y-66673662D01*
X112307618Y-66544811D01*
X112353790Y-66492371D01*
X112420983Y-66473219D01*
X112487865Y-66493435D01*
X112532382Y-66544811D01*
X112592464Y-66673658D01*
X112592468Y-66673666D01*
X112719170Y-66854615D01*
X112719175Y-66854621D01*
X112875378Y-67010824D01*
X112875384Y-67010829D01*
X113056333Y-67137531D01*
X113056335Y-67137532D01*
X113056338Y-67137534D01*
X113256550Y-67230894D01*
X113469932Y-67288070D01*
X113627123Y-67301822D01*
X113689998Y-67307323D01*
X113690000Y-67307323D01*
X113690002Y-67307323D01*
X113745017Y-67302509D01*
X113910068Y-67288070D01*
X114123450Y-67230894D01*
X114323662Y-67137534D01*
X114504620Y-67010826D01*
X114660826Y-66854620D01*
X114787534Y-66673662D01*
X114847618Y-66544811D01*
X114893790Y-66492371D01*
X114960983Y-66473219D01*
X115027865Y-66493435D01*
X115072382Y-66544811D01*
X115132464Y-66673658D01*
X115132468Y-66673666D01*
X115259170Y-66854615D01*
X115259175Y-66854621D01*
X115415378Y-67010824D01*
X115415384Y-67010829D01*
X115596333Y-67137531D01*
X115596335Y-67137532D01*
X115596338Y-67137534D01*
X115796550Y-67230894D01*
X116009932Y-67288070D01*
X116167123Y-67301822D01*
X116229998Y-67307323D01*
X116230000Y-67307323D01*
X116230002Y-67307323D01*
X116285017Y-67302509D01*
X116450068Y-67288070D01*
X116663450Y-67230894D01*
X116863662Y-67137534D01*
X117044620Y-67010826D01*
X117200826Y-66854620D01*
X117327534Y-66673662D01*
X117387618Y-66544811D01*
X117433790Y-66492371D01*
X117500983Y-66473219D01*
X117567865Y-66493435D01*
G37*
%TD.AperFunction*%
%TA.AperFunction,Conductor*%
G36*
X202180000Y-76208872D02*
G01*
X202376317Y-76156269D01*
X202376326Y-76156265D01*
X202582482Y-76060134D01*
X202768820Y-75929657D01*
X202929657Y-75768820D01*
X203060132Y-75582484D01*
X203087341Y-75524134D01*
X203133513Y-75471695D01*
X203200707Y-75452542D01*
X203267588Y-75472757D01*
X203312105Y-75524132D01*
X203331173Y-75565023D01*
X203339431Y-75582732D01*
X203339432Y-75582734D01*
X203469954Y-75769141D01*
X203630858Y-75930045D01*
X203630861Y-75930047D01*
X203817266Y-76060568D01*
X204023504Y-76156739D01*
X204243308Y-76215635D01*
X204400780Y-76229412D01*
X204469998Y-76235468D01*
X204469999Y-76235468D01*
X204469999Y-76235467D01*
X204470000Y-76235468D01*
X204514102Y-76231609D01*
X204582600Y-76245375D01*
X204632784Y-76293989D01*
X204648718Y-76362018D01*
X204625344Y-76427862D01*
X204612590Y-76442818D01*
X198084728Y-82970681D01*
X198023405Y-83004166D01*
X197997047Y-83007000D01*
X190646637Y-83007000D01*
X190579598Y-82987315D01*
X190533843Y-82934511D01*
X190523899Y-82865353D01*
X190526862Y-82850907D01*
X190544413Y-82785403D01*
X190558135Y-82734192D01*
X190577968Y-82507500D01*
X190558135Y-82280808D01*
X190539818Y-82212448D01*
X190541481Y-82142603D01*
X190571910Y-82092679D01*
X196435179Y-76229410D01*
X196496500Y-76195927D01*
X196554947Y-76197317D01*
X196623308Y-76215635D01*
X196780780Y-76229412D01*
X196849998Y-76235468D01*
X196850000Y-76235468D01*
X196850002Y-76235468D01*
X196919220Y-76229412D01*
X197076692Y-76215635D01*
X197296496Y-76156739D01*
X197502734Y-76060568D01*
X197689139Y-75930047D01*
X197850047Y-75769139D01*
X197980568Y-75582734D01*
X198007895Y-75524129D01*
X198054064Y-75471695D01*
X198121257Y-75452542D01*
X198188139Y-75472757D01*
X198232657Y-75524133D01*
X198259865Y-75582482D01*
X198390342Y-75768820D01*
X198551179Y-75929657D01*
X198737517Y-76060134D01*
X198943673Y-76156265D01*
X198943682Y-76156269D01*
X199139999Y-76208872D01*
X199140000Y-76208871D01*
X199140000Y-75245686D01*
X199151955Y-75257641D01*
X199264852Y-75315165D01*
X199358519Y-75330000D01*
X199421481Y-75330000D01*
X199515148Y-75315165D01*
X199628045Y-75257641D01*
X199640000Y-75245686D01*
X199640000Y-76208872D01*
X199836317Y-76156269D01*
X199836326Y-76156265D01*
X200042482Y-76060134D01*
X200228820Y-75929657D01*
X200389657Y-75768820D01*
X200520134Y-75582481D01*
X200520135Y-75582479D01*
X200547618Y-75523543D01*
X200593790Y-75471103D01*
X200660983Y-75451951D01*
X200727864Y-75472166D01*
X200772382Y-75523543D01*
X200799864Y-75582479D01*
X200799865Y-75582481D01*
X200930342Y-75768820D01*
X201091179Y-75929657D01*
X201277517Y-76060134D01*
X201483673Y-76156265D01*
X201483682Y-76156269D01*
X201679999Y-76208872D01*
X201680000Y-76208871D01*
X201680000Y-75245686D01*
X201691955Y-75257641D01*
X201804852Y-75315165D01*
X201898519Y-75330000D01*
X201961481Y-75330000D01*
X202055148Y-75315165D01*
X202168045Y-75257641D01*
X202180000Y-75245686D01*
X202180000Y-76208872D01*
G37*
%TD.AperFunction*%
%TA.AperFunction,Conductor*%
G36*
X190356906Y-73035185D02*
G01*
X190402661Y-73087989D01*
X190412605Y-73157147D01*
X190383580Y-73220703D01*
X190346956Y-73246675D01*
X190348101Y-73248758D01*
X190341262Y-73252517D01*
X190305933Y-73278185D01*
X190296173Y-73284596D01*
X190258580Y-73306829D01*
X190244414Y-73320995D01*
X190229624Y-73333627D01*
X190213414Y-73345404D01*
X190213411Y-73345407D01*
X190185573Y-73379058D01*
X190177711Y-73387697D01*
X185741228Y-77824181D01*
X185679905Y-77857666D01*
X185653547Y-77860500D01*
X175326452Y-77860500D01*
X175259413Y-77840815D01*
X175238771Y-77824181D01*
X174013187Y-76598597D01*
X173768381Y-76353790D01*
X173734897Y-76292469D01*
X173739881Y-76222777D01*
X173740000Y-76222616D01*
X173740000Y-75235686D01*
X173751955Y-75247641D01*
X173864852Y-75305165D01*
X173958519Y-75320000D01*
X174021481Y-75320000D01*
X174115148Y-75305165D01*
X174228045Y-75247641D01*
X174240000Y-75235686D01*
X174240000Y-76198872D01*
X174436317Y-76146269D01*
X174436326Y-76146265D01*
X174642482Y-76050134D01*
X174828820Y-75919657D01*
X174989657Y-75758820D01*
X175120134Y-75572481D01*
X175120135Y-75572479D01*
X175147618Y-75513543D01*
X175193790Y-75461103D01*
X175260983Y-75441951D01*
X175327864Y-75462166D01*
X175372382Y-75513543D01*
X175399864Y-75572479D01*
X175399865Y-75572481D01*
X175530342Y-75758820D01*
X175691179Y-75919657D01*
X175877517Y-76050134D01*
X176083673Y-76146265D01*
X176083682Y-76146269D01*
X176279999Y-76198872D01*
X176280000Y-76198871D01*
X176280000Y-75235686D01*
X176291955Y-75247641D01*
X176404852Y-75305165D01*
X176498519Y-75320000D01*
X176561481Y-75320000D01*
X176655148Y-75305165D01*
X176768045Y-75247641D01*
X176780000Y-75235686D01*
X176780000Y-76198872D01*
X176976317Y-76146269D01*
X176976326Y-76146265D01*
X177182482Y-76050134D01*
X177368820Y-75919657D01*
X177529657Y-75758820D01*
X177660132Y-75572484D01*
X177687341Y-75514134D01*
X177733513Y-75461695D01*
X177800707Y-75442542D01*
X177867588Y-75462757D01*
X177912105Y-75514132D01*
X177917045Y-75524725D01*
X177939431Y-75572732D01*
X177939432Y-75572734D01*
X178069954Y-75759141D01*
X178230858Y-75920045D01*
X178230861Y-75920047D01*
X178417266Y-76050568D01*
X178623504Y-76146739D01*
X178623509Y-76146740D01*
X178623511Y-76146741D01*
X178660821Y-76156738D01*
X178843308Y-76205635D01*
X179000780Y-76219412D01*
X179069998Y-76225468D01*
X179070000Y-76225468D01*
X179070002Y-76225468D01*
X179139220Y-76219412D01*
X179296692Y-76205635D01*
X179516496Y-76146739D01*
X179722734Y-76050568D01*
X179909139Y-75920047D01*
X180070047Y-75759139D01*
X180200568Y-75572734D01*
X180227618Y-75514724D01*
X180273790Y-75462285D01*
X180340983Y-75443133D01*
X180407865Y-75463348D01*
X180452382Y-75514725D01*
X180479429Y-75572728D01*
X180479432Y-75572734D01*
X180609954Y-75759141D01*
X180770858Y-75920045D01*
X180770861Y-75920047D01*
X180957266Y-76050568D01*
X181163504Y-76146739D01*
X181163509Y-76146740D01*
X181163511Y-76146741D01*
X181200821Y-76156738D01*
X181383308Y-76205635D01*
X181540780Y-76219412D01*
X181609998Y-76225468D01*
X181610000Y-76225468D01*
X181610002Y-76225468D01*
X181679220Y-76219412D01*
X181836692Y-76205635D01*
X182056496Y-76146739D01*
X182262734Y-76050568D01*
X182449139Y-75920047D01*
X182610047Y-75759139D01*
X182740568Y-75572734D01*
X182767618Y-75514724D01*
X182813790Y-75462285D01*
X182880983Y-75443133D01*
X182947865Y-75463348D01*
X182992382Y-75514725D01*
X183019429Y-75572728D01*
X183019432Y-75572734D01*
X183149954Y-75759141D01*
X183310858Y-75920045D01*
X183310861Y-75920047D01*
X183497266Y-76050568D01*
X183703504Y-76146739D01*
X183703509Y-76146740D01*
X183703511Y-76146741D01*
X183740821Y-76156738D01*
X183923308Y-76205635D01*
X184080780Y-76219412D01*
X184149998Y-76225468D01*
X184150000Y-76225468D01*
X184150002Y-76225468D01*
X184219220Y-76219412D01*
X184376692Y-76205635D01*
X184596496Y-76146739D01*
X184802734Y-76050568D01*
X184989139Y-75920047D01*
X185150047Y-75759139D01*
X185280568Y-75572734D01*
X185376739Y-75366496D01*
X185435635Y-75146692D01*
X185454593Y-74929998D01*
X185455468Y-74920001D01*
X185455468Y-74919998D01*
X185447167Y-74825120D01*
X185435635Y-74693308D01*
X185379420Y-74483511D01*
X185376741Y-74473511D01*
X185376738Y-74473502D01*
X185350306Y-74416819D01*
X185280568Y-74267266D01*
X185150047Y-74080861D01*
X185150045Y-74080858D01*
X184989141Y-73919954D01*
X184921325Y-73872469D01*
X184802734Y-73789432D01*
X184699615Y-73741346D01*
X184596497Y-73693261D01*
X184596488Y-73693258D01*
X184376697Y-73634366D01*
X184376693Y-73634365D01*
X184376692Y-73634365D01*
X184376691Y-73634364D01*
X184376686Y-73634364D01*
X184150002Y-73614532D01*
X184149999Y-73614532D01*
X183923313Y-73634364D01*
X183923296Y-73634367D01*
X183854949Y-73652680D01*
X183785099Y-73651016D01*
X183735177Y-73620586D01*
X183547310Y-73432719D01*
X183341770Y-73227180D01*
X183308286Y-73165858D01*
X183313270Y-73096167D01*
X183355141Y-73040233D01*
X183420606Y-73015816D01*
X183429452Y-73015500D01*
X190289867Y-73015500D01*
X190356906Y-73035185D01*
G37*
%TD.AperFunction*%
%TA.AperFunction,Conductor*%
G36*
X201602359Y-74691955D02*
G01*
X201544835Y-74804852D01*
X201525014Y-74930000D01*
X201544835Y-75055148D01*
X201602359Y-75168045D01*
X201614314Y-75180000D01*
X199705686Y-75180000D01*
X199717641Y-75168045D01*
X199775165Y-75055148D01*
X199794986Y-74930000D01*
X199775165Y-74804852D01*
X199717641Y-74691955D01*
X199705686Y-74680000D01*
X201614314Y-74680000D01*
X201602359Y-74691955D01*
G37*
%TD.AperFunction*%
%TA.AperFunction,Conductor*%
G36*
X176202359Y-74681955D02*
G01*
X176144835Y-74794852D01*
X176125014Y-74920000D01*
X176144835Y-75045148D01*
X176202359Y-75158045D01*
X176214314Y-75170000D01*
X174305686Y-75170000D01*
X174317641Y-75158045D01*
X174375165Y-75045148D01*
X174394986Y-74920000D01*
X174375165Y-74794852D01*
X174317641Y-74681955D01*
X174305686Y-74670000D01*
X176214314Y-74670000D01*
X176202359Y-74681955D01*
G37*
%TD.AperFunction*%
%TA.AperFunction,Conductor*%
G36*
X206766587Y-73035185D02*
G01*
X206787229Y-73051819D01*
X207152591Y-73417181D01*
X207186076Y-73478504D01*
X207181092Y-73548196D01*
X207139220Y-73604129D01*
X207073756Y-73628546D01*
X207054104Y-73628390D01*
X207010003Y-73624532D01*
X207009998Y-73624532D01*
X206783313Y-73644364D01*
X206783302Y-73644366D01*
X206563511Y-73703258D01*
X206563502Y-73703261D01*
X206357267Y-73799431D01*
X206357265Y-73799432D01*
X206170858Y-73929954D01*
X206009954Y-74090858D01*
X205879432Y-74277265D01*
X205879431Y-74277267D01*
X205852382Y-74335275D01*
X205806209Y-74387714D01*
X205739016Y-74406866D01*
X205672135Y-74386650D01*
X205627618Y-74335275D01*
X205600686Y-74277520D01*
X205600568Y-74277266D01*
X205470047Y-74090861D01*
X205470045Y-74090858D01*
X205309141Y-73929954D01*
X205122734Y-73799432D01*
X205122732Y-73799431D01*
X204916497Y-73703261D01*
X204916488Y-73703258D01*
X204696697Y-73644366D01*
X204696693Y-73644365D01*
X204696692Y-73644365D01*
X204696691Y-73644364D01*
X204696686Y-73644364D01*
X204470002Y-73624532D01*
X204469998Y-73624532D01*
X204243313Y-73644364D01*
X204243302Y-73644366D01*
X204023511Y-73703258D01*
X204023502Y-73703261D01*
X203817267Y-73799431D01*
X203817265Y-73799432D01*
X203630858Y-73929954D01*
X203469954Y-74090858D01*
X203339433Y-74277264D01*
X203339432Y-74277266D01*
X203339315Y-74277518D01*
X203312106Y-74335867D01*
X203265933Y-74388306D01*
X203198739Y-74407457D01*
X203131858Y-74387241D01*
X203087342Y-74335865D01*
X203060135Y-74277520D01*
X203060134Y-74277518D01*
X202929657Y-74091179D01*
X202768820Y-73930342D01*
X202582482Y-73799865D01*
X202376328Y-73703734D01*
X202180000Y-73651127D01*
X202180000Y-74614314D01*
X202168045Y-74602359D01*
X202055148Y-74544835D01*
X201961481Y-74530000D01*
X201898519Y-74530000D01*
X201804852Y-74544835D01*
X201691955Y-74602359D01*
X201680000Y-74614314D01*
X201680000Y-73651127D01*
X201483671Y-73703734D01*
X201277517Y-73799865D01*
X201091179Y-73930342D01*
X200930342Y-74091179D01*
X200799865Y-74277517D01*
X200772382Y-74336457D01*
X200726210Y-74388896D01*
X200659016Y-74408048D01*
X200592135Y-74387832D01*
X200547618Y-74336457D01*
X200520134Y-74277517D01*
X200389657Y-74091179D01*
X200228820Y-73930342D01*
X200042482Y-73799865D01*
X199836328Y-73703734D01*
X199640000Y-73651127D01*
X199640000Y-74614314D01*
X199628045Y-74602359D01*
X199515148Y-74544835D01*
X199421481Y-74530000D01*
X199358519Y-74530000D01*
X199264852Y-74544835D01*
X199151955Y-74602359D01*
X199140000Y-74614314D01*
X199140000Y-73651127D01*
X198943671Y-73703734D01*
X198737517Y-73799865D01*
X198551179Y-73930342D01*
X198390342Y-74091179D01*
X198259867Y-74277515D01*
X198232657Y-74335867D01*
X198186484Y-74388306D01*
X198119290Y-74407457D01*
X198052409Y-74387241D01*
X198007893Y-74335865D01*
X197980685Y-74277518D01*
X197980568Y-74277266D01*
X197850047Y-74090861D01*
X197850045Y-74090858D01*
X197689141Y-73929954D01*
X197502734Y-73799432D01*
X197502732Y-73799431D01*
X197296497Y-73703261D01*
X197296488Y-73703258D01*
X197076697Y-73644366D01*
X197076693Y-73644365D01*
X197076692Y-73644365D01*
X197076691Y-73644364D01*
X197076686Y-73644364D01*
X196850002Y-73624532D01*
X196849999Y-73624532D01*
X196623313Y-73644364D01*
X196623296Y-73644367D01*
X196554949Y-73662680D01*
X196485099Y-73661016D01*
X196435177Y-73630586D01*
X196225803Y-73421212D01*
X196215980Y-73408950D01*
X196215759Y-73409134D01*
X196210786Y-73403122D01*
X196161776Y-73357099D01*
X196158977Y-73354386D01*
X196139477Y-73334885D01*
X196139471Y-73334880D01*
X196136286Y-73332409D01*
X196127434Y-73324848D01*
X196095582Y-73294938D01*
X196095580Y-73294936D01*
X196095577Y-73294935D01*
X196078029Y-73285288D01*
X196061763Y-73274604D01*
X196045936Y-73262327D01*
X196025079Y-73253301D01*
X195971372Y-73208610D01*
X195950352Y-73141977D01*
X195968693Y-73074558D01*
X196020572Y-73027757D01*
X196074327Y-73015500D01*
X206699548Y-73015500D01*
X206766587Y-73035185D01*
G37*
%TD.AperFunction*%
%TA.AperFunction,Conductor*%
G36*
X145266587Y-57795185D02*
G01*
X145287229Y-57811819D01*
X146123401Y-58647991D01*
X146156886Y-58709314D01*
X146159191Y-58747113D01*
X146139464Y-58959999D01*
X146139464Y-58960000D01*
X146159564Y-59176918D01*
X146159564Y-59176920D01*
X146159565Y-59176923D01*
X146212326Y-59362359D01*
X146219184Y-59386462D01*
X146316288Y-59581472D01*
X146447574Y-59755324D01*
X146571944Y-59868701D01*
X146608226Y-59928412D01*
X146606465Y-59998259D01*
X146571944Y-60051975D01*
X146447945Y-60165013D01*
X146316715Y-60338791D01*
X146219651Y-60533719D01*
X146169494Y-60709999D01*
X146169495Y-60710000D01*
X147004314Y-60710000D01*
X146992359Y-60721955D01*
X146934835Y-60834852D01*
X146915014Y-60960000D01*
X146934835Y-61085148D01*
X146992359Y-61198045D01*
X147004314Y-61210000D01*
X146169495Y-61210000D01*
X146219651Y-61386280D01*
X146316715Y-61581208D01*
X146447945Y-61754985D01*
X146608868Y-61901685D01*
X146794012Y-62016322D01*
X146794023Y-62016327D01*
X146997060Y-62094984D01*
X147070000Y-62108619D01*
X147070000Y-61275686D01*
X147081955Y-61287641D01*
X147194852Y-61345165D01*
X147288519Y-61360000D01*
X147351481Y-61360000D01*
X147445148Y-61345165D01*
X147558045Y-61287641D01*
X147570000Y-61275686D01*
X147570000Y-62108619D01*
X147642939Y-62094984D01*
X147845976Y-62016327D01*
X147845987Y-62016322D01*
X148031130Y-61901685D01*
X148031131Y-61901685D01*
X148192054Y-61754985D01*
X148323284Y-61581208D01*
X148420348Y-61386280D01*
X148470505Y-61210000D01*
X147635686Y-61210000D01*
X147647641Y-61198045D01*
X147705165Y-61085148D01*
X147724986Y-60960000D01*
X147705165Y-60834852D01*
X147647641Y-60721955D01*
X147635686Y-60710000D01*
X148470505Y-60710000D01*
X148470505Y-60709999D01*
X148420348Y-60533719D01*
X148323284Y-60338791D01*
X148192056Y-60165017D01*
X148068055Y-60051976D01*
X148031774Y-59992265D01*
X148033534Y-59922417D01*
X148068052Y-59868704D01*
X148192427Y-59755322D01*
X148323712Y-59581472D01*
X148420817Y-59386459D01*
X148480435Y-59176923D01*
X148500536Y-58960000D01*
X148480435Y-58743077D01*
X148420817Y-58533541D01*
X148323712Y-58338528D01*
X148242251Y-58230656D01*
X148217560Y-58165297D01*
X148232125Y-58096962D01*
X148266895Y-58056665D01*
X148313999Y-58021402D01*
X148352546Y-57992546D01*
X148356563Y-57987181D01*
X148391740Y-57940190D01*
X148447674Y-57898318D01*
X148491007Y-57890500D01*
X152245501Y-57890500D01*
X152312540Y-57910185D01*
X152358295Y-57962989D01*
X152369501Y-58014500D01*
X152369501Y-58037876D01*
X152375908Y-58097483D01*
X152426202Y-58232328D01*
X152426206Y-58232335D01*
X152512452Y-58347544D01*
X152512455Y-58347547D01*
X152627664Y-58433793D01*
X152627671Y-58433797D01*
X152672618Y-58450561D01*
X152762517Y-58484091D01*
X152822127Y-58490500D01*
X152822153Y-58490499D01*
X152825453Y-58490678D01*
X152825372Y-58492183D01*
X152886672Y-58510112D01*
X152932483Y-58562867D01*
X152940016Y-58606464D01*
X153625599Y-59292046D01*
X153544852Y-59304835D01*
X153431955Y-59362359D01*
X153342359Y-59451955D01*
X153284835Y-59564852D01*
X153272046Y-59645598D01*
X152590974Y-58964526D01*
X152590973Y-58964526D01*
X152539868Y-59037512D01*
X152539866Y-59037516D01*
X152443734Y-59243673D01*
X152443730Y-59243682D01*
X152384860Y-59463389D01*
X152384858Y-59463400D01*
X152365034Y-59689997D01*
X152365034Y-59690002D01*
X152384858Y-59916599D01*
X152384860Y-59916610D01*
X152443730Y-60136317D01*
X152443735Y-60136331D01*
X152539863Y-60342478D01*
X152590974Y-60415472D01*
X153272046Y-59734400D01*
X153284835Y-59815148D01*
X153342359Y-59928045D01*
X153431955Y-60017641D01*
X153544852Y-60075165D01*
X153625599Y-60087953D01*
X152944526Y-60769025D01*
X153017513Y-60820132D01*
X153017521Y-60820136D01*
X153223668Y-60916264D01*
X153223682Y-60916269D01*
X153443389Y-60975139D01*
X153443400Y-60975141D01*
X153669998Y-60994966D01*
X153670002Y-60994966D01*
X153896599Y-60975141D01*
X153896610Y-60975139D01*
X154116317Y-60916269D01*
X154116331Y-60916264D01*
X154322478Y-60820136D01*
X154395471Y-60769024D01*
X153714400Y-60087953D01*
X153795148Y-60075165D01*
X153908045Y-60017641D01*
X153997641Y-59928045D01*
X154055165Y-59815148D01*
X154067953Y-59734400D01*
X154749024Y-60415471D01*
X154800136Y-60342478D01*
X154896264Y-60136331D01*
X154896269Y-60136317D01*
X154955139Y-59916610D01*
X154955141Y-59916599D01*
X154974966Y-59690002D01*
X154974966Y-59689997D01*
X154955141Y-59463400D01*
X154955139Y-59463389D01*
X154896269Y-59243682D01*
X154896264Y-59243668D01*
X154800136Y-59037521D01*
X154800132Y-59037513D01*
X154749025Y-58964526D01*
X154067953Y-59645598D01*
X154055165Y-59564852D01*
X153997641Y-59451955D01*
X153908045Y-59362359D01*
X153795148Y-59304835D01*
X153714401Y-59292046D01*
X154400645Y-58605801D01*
X154410492Y-58556807D01*
X154459107Y-58506624D01*
X154514633Y-58491981D01*
X154514576Y-58490900D01*
X154514571Y-58490854D01*
X154514573Y-58490853D01*
X154514564Y-58490676D01*
X154517857Y-58490499D01*
X154517872Y-58490499D01*
X154577483Y-58484091D01*
X154712331Y-58433796D01*
X154827546Y-58347546D01*
X154913796Y-58232331D01*
X154964091Y-58097483D01*
X154970500Y-58037873D01*
X154970500Y-58014500D01*
X154990185Y-57947461D01*
X155042989Y-57901706D01*
X155094500Y-57890500D01*
X159865501Y-57890500D01*
X159932540Y-57910185D01*
X159978295Y-57962989D01*
X159989501Y-58014500D01*
X159989501Y-58037876D01*
X159995908Y-58097483D01*
X160046202Y-58232328D01*
X160046206Y-58232335D01*
X160132452Y-58347544D01*
X160132455Y-58347547D01*
X160247664Y-58433793D01*
X160247671Y-58433797D01*
X160292618Y-58450561D01*
X160382517Y-58484091D01*
X160442127Y-58490500D01*
X160442153Y-58490499D01*
X160445453Y-58490678D01*
X160445372Y-58492183D01*
X160506672Y-58510112D01*
X160552483Y-58562867D01*
X160560016Y-58606464D01*
X161245599Y-59292046D01*
X161164852Y-59304835D01*
X161051955Y-59362359D01*
X160962359Y-59451955D01*
X160904835Y-59564852D01*
X160892046Y-59645598D01*
X160210974Y-58964526D01*
X160210973Y-58964526D01*
X160159868Y-59037512D01*
X160159866Y-59037516D01*
X160063734Y-59243673D01*
X160063730Y-59243682D01*
X160004860Y-59463389D01*
X160004858Y-59463400D01*
X159985034Y-59689997D01*
X159985034Y-59690002D01*
X160004858Y-59916599D01*
X160004860Y-59916610D01*
X160063730Y-60136317D01*
X160063735Y-60136331D01*
X160159863Y-60342478D01*
X160210974Y-60415472D01*
X160892046Y-59734400D01*
X160904835Y-59815148D01*
X160962359Y-59928045D01*
X161051955Y-60017641D01*
X161164852Y-60075165D01*
X161245599Y-60087953D01*
X160564526Y-60769025D01*
X160637513Y-60820132D01*
X160637521Y-60820136D01*
X160843668Y-60916264D01*
X160843682Y-60916269D01*
X161063389Y-60975139D01*
X161063400Y-60975141D01*
X161289998Y-60994966D01*
X161290002Y-60994966D01*
X161516599Y-60975141D01*
X161516610Y-60975139D01*
X161736317Y-60916269D01*
X161736331Y-60916264D01*
X161942478Y-60820136D01*
X162015471Y-60769024D01*
X161334400Y-60087953D01*
X161415148Y-60075165D01*
X161528045Y-60017641D01*
X161617641Y-59928045D01*
X161675165Y-59815148D01*
X161687953Y-59734400D01*
X162369024Y-60415471D01*
X162420136Y-60342478D01*
X162516264Y-60136331D01*
X162516269Y-60136317D01*
X162575139Y-59916610D01*
X162575141Y-59916599D01*
X162594966Y-59690002D01*
X162594966Y-59689997D01*
X162575141Y-59463400D01*
X162575139Y-59463389D01*
X162516269Y-59243682D01*
X162516264Y-59243668D01*
X162420136Y-59037521D01*
X162420132Y-59037513D01*
X162369025Y-58964526D01*
X161687953Y-59645598D01*
X161675165Y-59564852D01*
X161617641Y-59451955D01*
X161528045Y-59362359D01*
X161415148Y-59304835D01*
X161334401Y-59292046D01*
X162020645Y-58605801D01*
X162030492Y-58556807D01*
X162079107Y-58506624D01*
X162134633Y-58491981D01*
X162134576Y-58490900D01*
X162134571Y-58490854D01*
X162134573Y-58490853D01*
X162134564Y-58490676D01*
X162137857Y-58490499D01*
X162137872Y-58490499D01*
X162197483Y-58484091D01*
X162332331Y-58433796D01*
X162447546Y-58347546D01*
X162533796Y-58232331D01*
X162584091Y-58097483D01*
X162590500Y-58037873D01*
X162590500Y-57939500D01*
X162610185Y-57872461D01*
X162662989Y-57826706D01*
X162714500Y-57815500D01*
X163428714Y-57815500D01*
X163495753Y-57835185D01*
X163516395Y-57851819D01*
X165633181Y-59968605D01*
X165666666Y-60029928D01*
X165669500Y-60056286D01*
X165669500Y-61058326D01*
X165649815Y-61125365D01*
X165616624Y-61159901D01*
X165530863Y-61219951D01*
X165369951Y-61380862D01*
X165239432Y-61567265D01*
X165239431Y-61567267D01*
X165143261Y-61773502D01*
X165143258Y-61773511D01*
X165084366Y-61993302D01*
X165084364Y-61993313D01*
X165064532Y-62219998D01*
X165064532Y-62220001D01*
X165084364Y-62446686D01*
X165084366Y-62446697D01*
X165143258Y-62666488D01*
X165143261Y-62666497D01*
X165239431Y-62872732D01*
X165239432Y-62872734D01*
X165369954Y-63059141D01*
X165530858Y-63220045D01*
X165530861Y-63220047D01*
X165717266Y-63350568D01*
X165923504Y-63446739D01*
X165923509Y-63446740D01*
X165923511Y-63446741D01*
X165960821Y-63456738D01*
X166143308Y-63505635D01*
X166143318Y-63505635D01*
X166148637Y-63506574D01*
X166148239Y-63508826D01*
X166204220Y-63530726D01*
X166245197Y-63587318D01*
X166249073Y-63657080D01*
X166214617Y-63717863D01*
X166152770Y-63750369D01*
X166128341Y-63752799D01*
X117974439Y-63752799D01*
X117958822Y-63751075D01*
X117958795Y-63751361D01*
X117951033Y-63750626D01*
X117883846Y-63752738D01*
X117879952Y-63752799D01*
X117852351Y-63752799D01*
X117848663Y-63753264D01*
X117848350Y-63753304D01*
X117836732Y-63754217D01*
X117793074Y-63755589D01*
X117793073Y-63755589D01*
X117773830Y-63761180D01*
X117754780Y-63765124D01*
X117734912Y-63767633D01*
X117734911Y-63767633D01*
X117694300Y-63783712D01*
X117683255Y-63787493D01*
X117641315Y-63799678D01*
X117641311Y-63799680D01*
X117624067Y-63809878D01*
X117606606Y-63818432D01*
X117587975Y-63825809D01*
X117587963Y-63825816D01*
X117552634Y-63851484D01*
X117542874Y-63857895D01*
X117505281Y-63880128D01*
X117491115Y-63894294D01*
X117476325Y-63906926D01*
X117460115Y-63918703D01*
X117460112Y-63918706D01*
X117432274Y-63952357D01*
X117424412Y-63960996D01*
X116613794Y-64771613D01*
X116552471Y-64805098D01*
X116494020Y-64803707D01*
X116450068Y-64791930D01*
X116340034Y-64782303D01*
X116230002Y-64772677D01*
X116229998Y-64772677D01*
X116009937Y-64791929D01*
X116009929Y-64791930D01*
X115796554Y-64849104D01*
X115796548Y-64849107D01*
X115596340Y-64942465D01*
X115596338Y-64942466D01*
X115415377Y-65069175D01*
X115259175Y-65225377D01*
X115132466Y-65406338D01*
X115132465Y-65406340D01*
X115072382Y-65535189D01*
X115026209Y-65587628D01*
X114959016Y-65606780D01*
X114892135Y-65586564D01*
X114847618Y-65535189D01*
X114819581Y-65475064D01*
X114787534Y-65406339D01*
X114660826Y-65225380D01*
X114504620Y-65069174D01*
X114504616Y-65069171D01*
X114504615Y-65069170D01*
X114323666Y-64942468D01*
X114323662Y-64942466D01*
X114323660Y-64942465D01*
X114123450Y-64849106D01*
X114123447Y-64849105D01*
X114123445Y-64849104D01*
X113910070Y-64791930D01*
X113910062Y-64791929D01*
X113690002Y-64772677D01*
X113689998Y-64772677D01*
X113469937Y-64791929D01*
X113469929Y-64791930D01*
X113256554Y-64849104D01*
X113256548Y-64849107D01*
X113056340Y-64942465D01*
X113056338Y-64942466D01*
X112875377Y-65069175D01*
X112719175Y-65225377D01*
X112592466Y-65406338D01*
X112592465Y-65406340D01*
X112532382Y-65535189D01*
X112486209Y-65587628D01*
X112419016Y-65606780D01*
X112352135Y-65586564D01*
X112307618Y-65535189D01*
X112279581Y-65475064D01*
X112247534Y-65406339D01*
X112120826Y-65225380D01*
X111964620Y-65069174D01*
X111964616Y-65069171D01*
X111964615Y-65069170D01*
X111783666Y-64942468D01*
X111783662Y-64942466D01*
X111783660Y-64942465D01*
X111583450Y-64849106D01*
X111583447Y-64849105D01*
X111583445Y-64849104D01*
X111370070Y-64791930D01*
X111370062Y-64791929D01*
X111150002Y-64772677D01*
X111149998Y-64772677D01*
X110929937Y-64791929D01*
X110929929Y-64791930D01*
X110716554Y-64849104D01*
X110716548Y-64849107D01*
X110516340Y-64942465D01*
X110516338Y-64942466D01*
X110335377Y-65069175D01*
X110179175Y-65225377D01*
X110052466Y-65406338D01*
X110052465Y-65406340D01*
X109992382Y-65535189D01*
X109946209Y-65587628D01*
X109879016Y-65606780D01*
X109812135Y-65586564D01*
X109767618Y-65535189D01*
X109739581Y-65475064D01*
X109707534Y-65406339D01*
X109580826Y-65225380D01*
X109424620Y-65069174D01*
X109424616Y-65069171D01*
X109424615Y-65069170D01*
X109243666Y-64942468D01*
X109243662Y-64942466D01*
X109243660Y-64942465D01*
X109043450Y-64849106D01*
X109043447Y-64849105D01*
X109043445Y-64849104D01*
X108830070Y-64791930D01*
X108830062Y-64791929D01*
X108610002Y-64772677D01*
X108609998Y-64772677D01*
X108389937Y-64791929D01*
X108389929Y-64791930D01*
X108176554Y-64849104D01*
X108176548Y-64849107D01*
X107976340Y-64942465D01*
X107971653Y-64945172D01*
X107970884Y-64943841D01*
X107911408Y-64963895D01*
X107843642Y-64946879D01*
X107795833Y-64895928D01*
X107782500Y-64839992D01*
X107782500Y-58979738D01*
X107784224Y-58964124D01*
X107783938Y-58964097D01*
X107784672Y-58956334D01*
X107782561Y-58889144D01*
X107782500Y-58885250D01*
X107782500Y-58857651D01*
X107782500Y-58857650D01*
X107781997Y-58853670D01*
X107781080Y-58842021D01*
X107779709Y-58798373D01*
X107774122Y-58779144D01*
X107770174Y-58760084D01*
X107768536Y-58747113D01*
X107767664Y-58740208D01*
X107767663Y-58740206D01*
X107767663Y-58740204D01*
X107751588Y-58699604D01*
X107747804Y-58688552D01*
X107735618Y-58646609D01*
X107735616Y-58646606D01*
X107725423Y-58629371D01*
X107716861Y-58611894D01*
X107709487Y-58593269D01*
X107683816Y-58557937D01*
X107677405Y-58548177D01*
X107655170Y-58510580D01*
X107655168Y-58510578D01*
X107655165Y-58510574D01*
X107641006Y-58496415D01*
X107628368Y-58481619D01*
X107616594Y-58465413D01*
X107582940Y-58437572D01*
X107574299Y-58429709D01*
X107131771Y-57987181D01*
X107098286Y-57925858D01*
X107103270Y-57856166D01*
X107145142Y-57800233D01*
X107210606Y-57775816D01*
X107219452Y-57775500D01*
X145199548Y-57775500D01*
X145266587Y-57795185D01*
G37*
%TD.AperFunction*%
%TA.AperFunction,Conductor*%
G36*
X204703520Y-52536185D02*
G01*
X204724162Y-52552819D01*
X210013181Y-57841838D01*
X210046666Y-57903161D01*
X210049500Y-57929519D01*
X210049500Y-60856380D01*
X210029815Y-60923419D01*
X209977011Y-60969174D01*
X209907853Y-60979118D01*
X209893406Y-60976155D01*
X209800000Y-60951126D01*
X209800000Y-61914314D01*
X209788045Y-61902359D01*
X209675148Y-61844835D01*
X209581481Y-61830000D01*
X209518519Y-61830000D01*
X209424852Y-61844835D01*
X209311955Y-61902359D01*
X209300000Y-61914314D01*
X209300000Y-60951127D01*
X209103671Y-61003734D01*
X208897517Y-61099865D01*
X208711179Y-61230342D01*
X208550342Y-61391179D01*
X208419867Y-61577515D01*
X208392657Y-61635867D01*
X208346484Y-61688306D01*
X208279290Y-61707457D01*
X208212409Y-61687241D01*
X208167893Y-61635865D01*
X208140685Y-61577518D01*
X208140568Y-61577266D01*
X208010047Y-61390861D01*
X208010045Y-61390858D01*
X207849141Y-61229954D01*
X207662734Y-61099432D01*
X207662732Y-61099431D01*
X207456497Y-61003261D01*
X207456488Y-61003258D01*
X207236697Y-60944366D01*
X207236693Y-60944365D01*
X207236692Y-60944365D01*
X207236691Y-60944364D01*
X207236686Y-60944364D01*
X207010002Y-60924532D01*
X207009998Y-60924532D01*
X206783313Y-60944364D01*
X206783302Y-60944366D01*
X206563511Y-61003258D01*
X206563502Y-61003261D01*
X206357267Y-61099431D01*
X206357265Y-61099432D01*
X206170858Y-61229954D01*
X206009954Y-61390858D01*
X205879432Y-61577265D01*
X205879431Y-61577267D01*
X205852382Y-61635275D01*
X205806209Y-61687714D01*
X205739016Y-61706866D01*
X205672135Y-61686650D01*
X205627618Y-61635275D01*
X205600686Y-61577520D01*
X205600568Y-61577266D01*
X205470047Y-61390861D01*
X205309139Y-61229953D01*
X205223376Y-61169901D01*
X205179751Y-61115324D01*
X205170500Y-61068326D01*
X205170500Y-56164920D01*
X205170726Y-56157432D01*
X205170795Y-56156284D01*
X205174358Y-56097394D01*
X205164329Y-56042669D01*
X205163514Y-56038219D01*
X205162387Y-56030814D01*
X205159604Y-56007896D01*
X205155140Y-55971128D01*
X205152731Y-55964777D01*
X205151548Y-55961656D01*
X205145522Y-55940042D01*
X205143695Y-55930068D01*
X205119006Y-55875212D01*
X205116142Y-55868297D01*
X205094819Y-55812071D01*
X205092723Y-55809035D01*
X205089063Y-55803733D01*
X205078036Y-55784182D01*
X205073879Y-55774946D01*
X205073878Y-55774943D01*
X205036785Y-55727597D01*
X205032349Y-55721569D01*
X204998183Y-55672071D01*
X204998169Y-55672059D01*
X204992994Y-55667474D01*
X204953153Y-55632178D01*
X204947715Y-55627058D01*
X204796819Y-55476162D01*
X204763334Y-55414839D01*
X204760500Y-55388481D01*
X204760500Y-55002580D01*
X204760500Y-55002575D01*
X204745528Y-54845782D01*
X204686316Y-54644125D01*
X204590011Y-54457318D01*
X204590009Y-54457316D01*
X204590008Y-54457313D01*
X204460094Y-54292116D01*
X204460090Y-54292112D01*
X204301253Y-54154478D01*
X204119249Y-54049398D01*
X204119245Y-54049396D01*
X204119244Y-54049396D01*
X203920633Y-53980656D01*
X203712602Y-53950746D01*
X203712598Y-53950746D01*
X203502672Y-53960745D01*
X203298421Y-54010296D01*
X203298417Y-54010298D01*
X203107256Y-54097598D01*
X203107251Y-54097601D01*
X202936046Y-54219515D01*
X202936040Y-54219520D01*
X202791016Y-54371618D01*
X202764458Y-54412943D01*
X202711653Y-54458697D01*
X202642494Y-54468640D01*
X202578939Y-54439614D01*
X202562673Y-54422554D01*
X202460094Y-54292116D01*
X202460090Y-54292112D01*
X202301253Y-54154478D01*
X202119249Y-54049398D01*
X202119245Y-54049396D01*
X202119244Y-54049396D01*
X201920633Y-53980656D01*
X201712602Y-53950746D01*
X201712598Y-53950746D01*
X201502672Y-53960745D01*
X201298421Y-54010296D01*
X201298417Y-54010298D01*
X201107256Y-54097598D01*
X201107251Y-54097601D01*
X200936046Y-54219515D01*
X200936040Y-54219520D01*
X200791016Y-54371618D01*
X200764458Y-54412943D01*
X200711653Y-54458697D01*
X200642494Y-54468640D01*
X200578939Y-54439614D01*
X200562673Y-54422554D01*
X200460094Y-54292116D01*
X200460090Y-54292112D01*
X200301253Y-54154478D01*
X200119249Y-54049398D01*
X200119245Y-54049396D01*
X200119244Y-54049396D01*
X199920633Y-53980656D01*
X199712602Y-53950746D01*
X199712598Y-53950746D01*
X199502672Y-53960745D01*
X199298421Y-54010296D01*
X199298417Y-54010298D01*
X199107256Y-54097598D01*
X199107251Y-54097601D01*
X198936046Y-54219515D01*
X198936045Y-54219515D01*
X198838249Y-54322082D01*
X198777740Y-54357017D01*
X198707949Y-54353692D01*
X198651035Y-54313164D01*
X198642967Y-54301608D01*
X198629147Y-54279202D01*
X198602712Y-54236344D01*
X198478656Y-54112288D01*
X198383614Y-54053666D01*
X198329336Y-54020187D01*
X198329331Y-54020185D01*
X198299488Y-54010296D01*
X198162797Y-53965001D01*
X198162795Y-53965000D01*
X198060010Y-53954500D01*
X197259998Y-53954500D01*
X197259980Y-53954501D01*
X197157203Y-53965000D01*
X197157200Y-53965001D01*
X196990668Y-54020185D01*
X196990663Y-54020187D01*
X196841342Y-54112289D01*
X196717289Y-54236342D01*
X196625187Y-54385663D01*
X196625185Y-54385668D01*
X196607309Y-54439614D01*
X196570001Y-54552203D01*
X196570001Y-54552204D01*
X196570000Y-54552204D01*
X196559500Y-54654983D01*
X196559500Y-55388480D01*
X196539815Y-55455519D01*
X196523185Y-55476156D01*
X196446741Y-55552601D01*
X196372290Y-55627052D01*
X196366838Y-55632183D01*
X196321819Y-55672068D01*
X196287649Y-55721569D01*
X196283213Y-55727597D01*
X196246124Y-55774938D01*
X196246119Y-55774948D01*
X196241960Y-55784188D01*
X196230942Y-55803723D01*
X196225187Y-55812061D01*
X196225179Y-55812076D01*
X196203853Y-55868305D01*
X196200989Y-55875220D01*
X196176305Y-55930068D01*
X196174477Y-55940042D01*
X196168453Y-55961653D01*
X196164860Y-55971127D01*
X196164860Y-55971128D01*
X196157610Y-56030827D01*
X196156483Y-56038227D01*
X196145642Y-56097389D01*
X196145642Y-56097395D01*
X196149274Y-56157432D01*
X196149500Y-56164920D01*
X196149500Y-61068326D01*
X196129815Y-61135365D01*
X196096624Y-61169901D01*
X196010863Y-61229951D01*
X195849951Y-61390862D01*
X195726256Y-61567520D01*
X195719432Y-61577266D01*
X195719315Y-61577518D01*
X195692106Y-61635867D01*
X195645933Y-61688306D01*
X195578739Y-61707457D01*
X195511858Y-61687241D01*
X195467342Y-61635865D01*
X195440135Y-61577520D01*
X195440134Y-61577518D01*
X195309657Y-61391179D01*
X195148820Y-61230342D01*
X194962482Y-61099865D01*
X194756328Y-61003734D01*
X194560000Y-60951127D01*
X194560000Y-61914314D01*
X194548045Y-61902359D01*
X194435148Y-61844835D01*
X194341481Y-61830000D01*
X194278519Y-61830000D01*
X194184852Y-61844835D01*
X194071955Y-61902359D01*
X194060000Y-61914314D01*
X194060000Y-60951127D01*
X193863671Y-61003734D01*
X193657517Y-61099865D01*
X193471179Y-61230342D01*
X193310342Y-61391179D01*
X193179867Y-61577515D01*
X193152657Y-61635867D01*
X193106484Y-61688306D01*
X193039290Y-61707457D01*
X192972409Y-61687241D01*
X192927893Y-61635865D01*
X192900685Y-61577518D01*
X192900568Y-61577266D01*
X192770047Y-61390861D01*
X192770045Y-61390858D01*
X192609141Y-61229954D01*
X192422734Y-61099432D01*
X192422732Y-61099431D01*
X192216497Y-61003261D01*
X192216488Y-61003258D01*
X191996697Y-60944366D01*
X191996693Y-60944365D01*
X191996692Y-60944365D01*
X191996691Y-60944364D01*
X191996686Y-60944364D01*
X191770002Y-60924532D01*
X191769998Y-60924532D01*
X191538117Y-60944819D01*
X191469617Y-60931052D01*
X191439629Y-60908972D01*
X184715338Y-54184681D01*
X184681853Y-54123358D01*
X184686837Y-54053666D01*
X184715338Y-54009319D01*
X186171838Y-52552819D01*
X186233161Y-52519334D01*
X186259519Y-52516500D01*
X204636481Y-52516500D01*
X204703520Y-52536185D01*
G37*
%TD.AperFunction*%
%TA.AperFunction,Conductor*%
G36*
X170668834Y-56615170D02*
G01*
X170724767Y-56657042D01*
X170749184Y-56722506D01*
X170749500Y-56731352D01*
X170749500Y-61058326D01*
X170729815Y-61125365D01*
X170696624Y-61159901D01*
X170610863Y-61219951D01*
X170449951Y-61380862D01*
X170319433Y-61567264D01*
X170319432Y-61567266D01*
X170314651Y-61577520D01*
X170292106Y-61625867D01*
X170245933Y-61678306D01*
X170178739Y-61697457D01*
X170111858Y-61677241D01*
X170067342Y-61625865D01*
X170040135Y-61567520D01*
X170040134Y-61567518D01*
X169909657Y-61381179D01*
X169748820Y-61220342D01*
X169562482Y-61089865D01*
X169356328Y-60993734D01*
X169160000Y-60941127D01*
X169160000Y-61904314D01*
X169148045Y-61892359D01*
X169035148Y-61834835D01*
X168941481Y-61820000D01*
X168878519Y-61820000D01*
X168784852Y-61834835D01*
X168671955Y-61892359D01*
X168660000Y-61904314D01*
X168660000Y-60941127D01*
X168463671Y-60993734D01*
X168257517Y-61089865D01*
X168071179Y-61220342D01*
X167910342Y-61381179D01*
X167779867Y-61567515D01*
X167752657Y-61625867D01*
X167706484Y-61678306D01*
X167639290Y-61697457D01*
X167572409Y-61677241D01*
X167527893Y-61625865D01*
X167505349Y-61577520D01*
X167500568Y-61567266D01*
X167377047Y-61390858D01*
X167370048Y-61380862D01*
X167334351Y-61345165D01*
X167209139Y-61219953D01*
X167123376Y-61159901D01*
X167079751Y-61105324D01*
X167070500Y-61058326D01*
X167070500Y-60162352D01*
X167090185Y-60095313D01*
X167106814Y-60074676D01*
X170537819Y-56643670D01*
X170599142Y-56610186D01*
X170668834Y-56615170D01*
G37*
%TD.AperFunction*%
%TA.AperFunction,Conductor*%
G36*
X222192539Y-50820185D02*
G01*
X222238294Y-50872989D01*
X222249500Y-50924500D01*
X222249500Y-93855500D01*
X222229815Y-93922539D01*
X222177011Y-93968294D01*
X222125500Y-93979500D01*
X101724500Y-93979500D01*
X101657461Y-93959815D01*
X101611706Y-93907011D01*
X101600500Y-93855500D01*
X101600500Y-91440002D01*
X102262677Y-91440002D01*
X102281929Y-91660062D01*
X102281930Y-91660070D01*
X102339104Y-91873445D01*
X102339105Y-91873447D01*
X102339106Y-91873450D01*
X102396330Y-91996167D01*
X102432466Y-92073662D01*
X102432468Y-92073666D01*
X102559170Y-92254615D01*
X102559175Y-92254621D01*
X102715378Y-92410824D01*
X102715384Y-92410829D01*
X102896333Y-92537531D01*
X102896335Y-92537532D01*
X102896338Y-92537534D01*
X103096550Y-92630894D01*
X103309932Y-92688070D01*
X103467123Y-92701822D01*
X103529998Y-92707323D01*
X103530000Y-92707323D01*
X103530002Y-92707323D01*
X103560502Y-92704654D01*
X103750068Y-92688070D01*
X103794019Y-92676293D01*
X103863868Y-92677954D01*
X103913795Y-92708386D01*
X104566197Y-93360788D01*
X104576022Y-93373051D01*
X104576243Y-93372869D01*
X104581211Y-93378874D01*
X104630222Y-93424899D01*
X104633021Y-93427612D01*
X104652522Y-93447114D01*
X104652526Y-93447117D01*
X104652529Y-93447120D01*
X104655702Y-93449581D01*
X104664574Y-93457159D01*
X104696418Y-93487062D01*
X104713976Y-93496714D01*
X104730235Y-93507395D01*
X104746064Y-93519673D01*
X104786155Y-93537021D01*
X104796626Y-93542151D01*
X104819180Y-93554550D01*
X104834902Y-93563194D01*
X104834904Y-93563195D01*
X104834908Y-93563197D01*
X104854316Y-93568180D01*
X104872719Y-93574481D01*
X104891101Y-93582436D01*
X104891102Y-93582436D01*
X104891104Y-93582437D01*
X104934250Y-93589270D01*
X104945672Y-93591636D01*
X104987981Y-93602500D01*
X105008016Y-93602500D01*
X105027414Y-93604026D01*
X105047194Y-93607159D01*
X105047195Y-93607160D01*
X105047195Y-93607159D01*
X105047196Y-93607160D01*
X105090675Y-93603050D01*
X105102344Y-93602500D01*
X141890257Y-93602500D01*
X141905877Y-93604224D01*
X141905904Y-93603939D01*
X141913660Y-93604671D01*
X141913667Y-93604673D01*
X141980873Y-93602561D01*
X141984768Y-93602500D01*
X142012346Y-93602500D01*
X142012350Y-93602500D01*
X142016324Y-93601997D01*
X142027963Y-93601080D01*
X142071627Y-93599709D01*
X142090869Y-93594117D01*
X142109912Y-93590174D01*
X142129792Y-93587664D01*
X142170401Y-93571585D01*
X142181444Y-93567803D01*
X142223390Y-93555618D01*
X142240629Y-93545422D01*
X142258103Y-93536862D01*
X142276727Y-93529488D01*
X142276727Y-93529487D01*
X142276732Y-93529486D01*
X142312083Y-93503800D01*
X142321814Y-93497408D01*
X142359420Y-93475170D01*
X142373589Y-93460999D01*
X142388379Y-93448368D01*
X142404587Y-93436594D01*
X142432438Y-93402926D01*
X142440279Y-93394309D01*
X153163788Y-82670801D01*
X153176042Y-82660986D01*
X153175859Y-82660764D01*
X153181868Y-82655791D01*
X153181877Y-82655786D01*
X153227949Y-82606722D01*
X153230566Y-82604023D01*
X153250120Y-82584471D01*
X153252576Y-82581303D01*
X153260156Y-82572427D01*
X153290062Y-82540582D01*
X153299715Y-82523020D01*
X153310389Y-82506770D01*
X153322673Y-82490936D01*
X153340019Y-82450850D01*
X153345157Y-82440362D01*
X153359095Y-82415011D01*
X153366197Y-82402092D01*
X153371177Y-82382691D01*
X153377478Y-82364288D01*
X153385438Y-82345896D01*
X153392272Y-82302741D01*
X153394635Y-82291331D01*
X153405500Y-82249019D01*
X153405500Y-82228983D01*
X153407027Y-82209584D01*
X153411065Y-82184091D01*
X153440995Y-82120956D01*
X153500307Y-82084026D01*
X153570170Y-82085024D01*
X153621218Y-82115808D01*
X155539783Y-84034374D01*
X157450586Y-85945177D01*
X157484071Y-86006500D01*
X157482680Y-86064949D01*
X157464367Y-86133296D01*
X157464364Y-86133313D01*
X157444532Y-86359999D01*
X157444532Y-86360001D01*
X157464364Y-86586686D01*
X157464366Y-86586697D01*
X157523258Y-86806488D01*
X157523261Y-86806497D01*
X157619431Y-87012732D01*
X157619432Y-87012734D01*
X157749954Y-87199141D01*
X157910858Y-87360045D01*
X157938120Y-87379134D01*
X158097266Y-87490568D01*
X158155275Y-87517618D01*
X158207714Y-87563791D01*
X158226866Y-87630984D01*
X158206650Y-87697865D01*
X158155275Y-87742382D01*
X158097267Y-87769431D01*
X158097265Y-87769432D01*
X157910858Y-87899954D01*
X157749954Y-88060858D01*
X157619432Y-88247265D01*
X157619431Y-88247267D01*
X157523261Y-88453502D01*
X157523258Y-88453511D01*
X157464366Y-88673302D01*
X157464364Y-88673313D01*
X157444532Y-88899998D01*
X157444532Y-88900001D01*
X157464364Y-89126686D01*
X157464366Y-89126697D01*
X157523258Y-89346488D01*
X157523261Y-89346497D01*
X157619431Y-89552732D01*
X157619432Y-89552734D01*
X157749954Y-89739141D01*
X157910858Y-89900045D01*
X157910861Y-89900047D01*
X158097266Y-90030568D01*
X158303504Y-90126739D01*
X158303509Y-90126740D01*
X158303511Y-90126741D01*
X158356415Y-90140916D01*
X158523308Y-90185635D01*
X158680791Y-90199413D01*
X158749998Y-90205468D01*
X158750000Y-90205468D01*
X158750002Y-90205468D01*
X158806673Y-90200509D01*
X158976692Y-90185635D01*
X159045048Y-90167319D01*
X159114897Y-90168982D01*
X159164822Y-90199413D01*
X160601697Y-91636288D01*
X160611522Y-91648551D01*
X160611743Y-91648369D01*
X160616711Y-91654374D01*
X160616713Y-91654376D01*
X160616714Y-91654377D01*
X160633136Y-91669798D01*
X160665722Y-91700399D01*
X160668521Y-91703112D01*
X160688022Y-91722614D01*
X160688026Y-91722617D01*
X160688029Y-91722620D01*
X160691202Y-91725081D01*
X160700074Y-91732659D01*
X160731918Y-91762562D01*
X160749476Y-91772214D01*
X160765735Y-91782895D01*
X160781564Y-91795173D01*
X160821655Y-91812521D01*
X160832126Y-91817651D01*
X160854680Y-91830050D01*
X160870402Y-91838694D01*
X160870404Y-91838695D01*
X160870408Y-91838697D01*
X160889816Y-91843680D01*
X160908219Y-91849981D01*
X160930112Y-91859455D01*
X160983820Y-91904145D01*
X161004840Y-91970777D01*
X160990225Y-92031706D01*
X160973992Y-92062077D01*
X160952296Y-92133598D01*
X160948198Y-92145050D01*
X160942814Y-92158047D01*
X160942812Y-92158055D01*
X160940062Y-92171874D01*
X160937108Y-92183662D01*
X160915415Y-92255177D01*
X160915415Y-92255179D01*
X160908088Y-92329562D01*
X160906304Y-92341591D01*
X160903558Y-92355399D01*
X160903558Y-92369473D01*
X160902961Y-92381627D01*
X160895636Y-92455999D01*
X160902961Y-92530371D01*
X160903558Y-92542525D01*
X160903558Y-92556603D01*
X160903559Y-92556606D01*
X160906304Y-92570409D01*
X160908088Y-92582438D01*
X160915415Y-92656819D01*
X160937109Y-92728339D01*
X160940063Y-92740132D01*
X160942810Y-92753937D01*
X160942811Y-92753941D01*
X160942812Y-92753944D01*
X160946769Y-92763498D01*
X160948202Y-92766957D01*
X160952295Y-92778397D01*
X160973992Y-92849921D01*
X160973994Y-92849926D01*
X161009218Y-92915825D01*
X161014420Y-92926824D01*
X161019805Y-92939825D01*
X161019815Y-92939843D01*
X161027629Y-92951537D01*
X161033888Y-92961978D01*
X161069113Y-93027882D01*
X161069115Y-93027885D01*
X161116522Y-93085650D01*
X161123770Y-93095423D01*
X161131591Y-93107128D01*
X161131595Y-93107133D01*
X161141545Y-93117082D01*
X161149721Y-93126102D01*
X161197129Y-93183870D01*
X161236838Y-93216458D01*
X161254895Y-93231277D01*
X161254897Y-93231278D01*
X161263914Y-93239451D01*
X161273869Y-93249406D01*
X161285585Y-93257234D01*
X161295341Y-93264470D01*
X161295351Y-93264478D01*
X161353113Y-93311883D01*
X161353114Y-93311883D01*
X161353116Y-93311885D01*
X161390156Y-93331683D01*
X161419030Y-93347117D01*
X161429469Y-93353375D01*
X161441159Y-93361186D01*
X161441161Y-93361187D01*
X161441166Y-93361190D01*
X161454181Y-93366581D01*
X161465160Y-93371774D01*
X161531079Y-93407008D01*
X161602605Y-93428705D01*
X161614045Y-93432798D01*
X161627056Y-93438188D01*
X161634049Y-93439579D01*
X161640865Y-93440935D01*
X161652659Y-93443889D01*
X161724181Y-93465585D01*
X161724180Y-93465585D01*
X161757483Y-93468865D01*
X161798556Y-93472910D01*
X161810586Y-93474694D01*
X161824397Y-93477442D01*
X161838474Y-93477442D01*
X161850628Y-93478039D01*
X161925000Y-93485364D01*
X161999372Y-93478039D01*
X162011526Y-93477442D01*
X162025601Y-93477442D01*
X162025603Y-93477442D01*
X162039428Y-93474691D01*
X162051432Y-93472911D01*
X162125819Y-93465585D01*
X162197364Y-93443881D01*
X162209109Y-93440939D01*
X162222944Y-93438188D01*
X162235968Y-93432793D01*
X162247376Y-93428710D01*
X162318921Y-93407008D01*
X162384853Y-93371766D01*
X162395818Y-93366581D01*
X162408834Y-93361190D01*
X162420553Y-93353359D01*
X162430937Y-93347133D01*
X162496884Y-93311885D01*
X162554671Y-93264460D01*
X162564411Y-93257236D01*
X162576131Y-93249406D01*
X162586090Y-93239446D01*
X162595086Y-93231291D01*
X162652870Y-93183870D01*
X162700291Y-93126086D01*
X162708446Y-93117090D01*
X162718406Y-93107131D01*
X162726236Y-93095411D01*
X162733460Y-93085671D01*
X162780885Y-93027884D01*
X162816133Y-92961937D01*
X162822359Y-92951553D01*
X162830190Y-92939834D01*
X162835581Y-92926818D01*
X162840766Y-92915853D01*
X162876008Y-92849921D01*
X162897710Y-92778376D01*
X162901793Y-92766968D01*
X162907188Y-92753944D01*
X162909939Y-92740109D01*
X162912881Y-92728364D01*
X162934585Y-92656819D01*
X162941911Y-92582438D01*
X162943696Y-92570407D01*
X162946441Y-92556606D01*
X162946442Y-92556603D01*
X162946988Y-92534282D01*
X162947542Y-92525257D01*
X162954364Y-92456000D01*
X162954364Y-92455999D01*
X219696636Y-92455999D01*
X219703961Y-92530371D01*
X219704558Y-92542525D01*
X219704558Y-92556603D01*
X219704559Y-92556606D01*
X219707304Y-92570409D01*
X219709088Y-92582438D01*
X219716415Y-92656819D01*
X219738109Y-92728339D01*
X219741063Y-92740132D01*
X219743810Y-92753937D01*
X219743811Y-92753941D01*
X219743812Y-92753944D01*
X219747769Y-92763498D01*
X219749202Y-92766957D01*
X219753295Y-92778397D01*
X219774992Y-92849921D01*
X219774994Y-92849926D01*
X219810218Y-92915825D01*
X219815420Y-92926824D01*
X219820805Y-92939825D01*
X219820815Y-92939843D01*
X219828629Y-92951537D01*
X219834888Y-92961978D01*
X219870113Y-93027882D01*
X219870115Y-93027885D01*
X219917522Y-93085650D01*
X219924770Y-93095423D01*
X219932591Y-93107128D01*
X219932595Y-93107133D01*
X219942545Y-93117082D01*
X219950721Y-93126102D01*
X219998129Y-93183870D01*
X220037838Y-93216458D01*
X220055895Y-93231277D01*
X220055897Y-93231278D01*
X220064914Y-93239451D01*
X220074869Y-93249406D01*
X220086585Y-93257234D01*
X220096341Y-93264470D01*
X220096351Y-93264478D01*
X220154113Y-93311883D01*
X220154114Y-93311883D01*
X220154116Y-93311885D01*
X220191156Y-93331683D01*
X220220030Y-93347117D01*
X220230469Y-93353375D01*
X220242159Y-93361186D01*
X220242161Y-93361187D01*
X220242166Y-93361190D01*
X220255181Y-93366581D01*
X220266160Y-93371774D01*
X220332079Y-93407008D01*
X220403605Y-93428705D01*
X220415045Y-93432798D01*
X220428056Y-93438188D01*
X220435049Y-93439579D01*
X220441865Y-93440935D01*
X220453659Y-93443889D01*
X220525181Y-93465585D01*
X220525180Y-93465585D01*
X220558483Y-93468865D01*
X220599556Y-93472910D01*
X220611586Y-93474694D01*
X220625397Y-93477442D01*
X220639474Y-93477442D01*
X220651628Y-93478039D01*
X220726000Y-93485364D01*
X220800372Y-93478039D01*
X220812526Y-93477442D01*
X220826601Y-93477442D01*
X220826603Y-93477442D01*
X220840428Y-93474691D01*
X220852432Y-93472911D01*
X220926819Y-93465585D01*
X220998364Y-93443881D01*
X221010109Y-93440939D01*
X221023944Y-93438188D01*
X221036968Y-93432793D01*
X221048376Y-93428710D01*
X221119921Y-93407008D01*
X221185853Y-93371766D01*
X221196818Y-93366581D01*
X221209834Y-93361190D01*
X221221553Y-93353359D01*
X221231937Y-93347133D01*
X221297884Y-93311885D01*
X221355671Y-93264460D01*
X221365411Y-93257236D01*
X221377131Y-93249406D01*
X221387090Y-93239446D01*
X221396086Y-93231291D01*
X221453870Y-93183870D01*
X221501291Y-93126086D01*
X221509446Y-93117090D01*
X221519406Y-93107131D01*
X221527236Y-93095411D01*
X221534460Y-93085671D01*
X221581885Y-93027884D01*
X221617133Y-92961937D01*
X221623359Y-92951553D01*
X221631190Y-92939834D01*
X221636581Y-92926818D01*
X221641766Y-92915853D01*
X221677008Y-92849921D01*
X221698710Y-92778376D01*
X221702793Y-92766968D01*
X221708188Y-92753944D01*
X221710939Y-92740109D01*
X221713881Y-92728364D01*
X221735585Y-92656819D01*
X221742911Y-92582438D01*
X221744696Y-92570407D01*
X221747441Y-92556606D01*
X221747442Y-92556603D01*
X221747988Y-92534282D01*
X221748542Y-92525257D01*
X221755364Y-92456000D01*
X221748543Y-92386747D01*
X221747988Y-92377713D01*
X221747442Y-92355397D01*
X221744694Y-92341586D01*
X221742910Y-92329555D01*
X221741663Y-92316897D01*
X221735585Y-92255181D01*
X221713889Y-92183659D01*
X221710935Y-92171865D01*
X221708189Y-92158062D01*
X221708188Y-92158056D01*
X221702798Y-92145045D01*
X221698702Y-92133596D01*
X221695772Y-92123937D01*
X221677008Y-92062079D01*
X221641774Y-91996160D01*
X221636581Y-91985181D01*
X221631190Y-91972166D01*
X221631187Y-91972161D01*
X221631186Y-91972159D01*
X221631187Y-91972159D01*
X221623375Y-91960469D01*
X221617117Y-91950030D01*
X221583654Y-91887426D01*
X221581885Y-91884116D01*
X221581883Y-91884114D01*
X221581883Y-91884113D01*
X221538390Y-91831118D01*
X221534470Y-91826341D01*
X221527234Y-91816585D01*
X221519406Y-91804869D01*
X221509448Y-91794911D01*
X221501278Y-91785897D01*
X221498815Y-91782896D01*
X221482125Y-91762559D01*
X221453870Y-91728129D01*
X221396102Y-91680721D01*
X221387082Y-91672545D01*
X221377133Y-91662595D01*
X221377128Y-91662591D01*
X221365423Y-91654770D01*
X221355650Y-91647522D01*
X221297885Y-91600115D01*
X221297882Y-91600113D01*
X221252294Y-91575746D01*
X221231971Y-91564884D01*
X221221537Y-91558629D01*
X221209843Y-91550815D01*
X221209825Y-91550805D01*
X221196824Y-91545420D01*
X221185825Y-91540218D01*
X221119926Y-91504994D01*
X221119923Y-91504993D01*
X221119921Y-91504992D01*
X221048397Y-91483295D01*
X221036957Y-91479202D01*
X221033498Y-91477769D01*
X221023944Y-91473812D01*
X221023941Y-91473811D01*
X221023937Y-91473810D01*
X221010132Y-91471063D01*
X220998339Y-91468109D01*
X220926819Y-91446415D01*
X220852438Y-91439088D01*
X220840409Y-91437304D01*
X220836757Y-91436577D01*
X220826603Y-91434558D01*
X220826600Y-91434558D01*
X220812526Y-91434558D01*
X220800372Y-91433961D01*
X220726000Y-91426636D01*
X220651628Y-91433961D01*
X220639474Y-91434558D01*
X220625400Y-91434558D01*
X220625397Y-91434558D01*
X220615242Y-91436577D01*
X220611591Y-91437304D01*
X220599562Y-91439088D01*
X220525179Y-91446415D01*
X220525177Y-91446415D01*
X220453662Y-91468108D01*
X220441874Y-91471062D01*
X220428055Y-91473812D01*
X220428047Y-91473814D01*
X220415050Y-91479198D01*
X220403598Y-91483296D01*
X220332075Y-91504993D01*
X220266160Y-91540224D01*
X220255171Y-91545422D01*
X220242169Y-91550808D01*
X220242158Y-91550814D01*
X220230461Y-91558630D01*
X220220028Y-91564883D01*
X220154114Y-91600115D01*
X220096342Y-91647528D01*
X220086570Y-91654775D01*
X220074875Y-91662589D01*
X220074864Y-91662598D01*
X220064911Y-91672551D01*
X220055899Y-91680719D01*
X219998130Y-91728130D01*
X219950719Y-91785899D01*
X219942551Y-91794911D01*
X219932598Y-91804864D01*
X219932589Y-91804875D01*
X219924775Y-91816570D01*
X219917528Y-91826342D01*
X219870115Y-91884114D01*
X219834883Y-91950028D01*
X219828630Y-91960461D01*
X219820814Y-91972158D01*
X219820808Y-91972169D01*
X219815422Y-91985171D01*
X219810224Y-91996160D01*
X219774993Y-92062075D01*
X219753296Y-92133598D01*
X219749198Y-92145050D01*
X219743814Y-92158047D01*
X219743812Y-92158055D01*
X219741062Y-92171874D01*
X219738108Y-92183662D01*
X219716415Y-92255177D01*
X219716415Y-92255179D01*
X219709088Y-92329562D01*
X219707304Y-92341591D01*
X219704558Y-92355399D01*
X219704558Y-92369473D01*
X219703961Y-92381627D01*
X219696636Y-92455999D01*
X162954364Y-92455999D01*
X162947543Y-92386747D01*
X162946988Y-92377713D01*
X162946442Y-92355397D01*
X162943694Y-92341586D01*
X162941910Y-92329555D01*
X162940663Y-92316897D01*
X162934585Y-92255181D01*
X162912889Y-92183659D01*
X162909935Y-92171865D01*
X162907189Y-92158062D01*
X162907188Y-92158056D01*
X162901798Y-92145045D01*
X162897702Y-92133596D01*
X162894772Y-92123937D01*
X162876008Y-92062079D01*
X162875141Y-92060458D01*
X162874944Y-92059508D01*
X162873676Y-92056447D01*
X162874256Y-92056206D01*
X162860896Y-91992057D01*
X162885893Y-91926812D01*
X162942196Y-91885438D01*
X162984497Y-91878000D01*
X168982257Y-91878000D01*
X168997877Y-91879724D01*
X168997904Y-91879439D01*
X169005660Y-91880171D01*
X169005667Y-91880173D01*
X169072873Y-91878061D01*
X169076768Y-91878000D01*
X169104346Y-91878000D01*
X169104350Y-91878000D01*
X169108324Y-91877497D01*
X169119963Y-91876580D01*
X169163627Y-91875209D01*
X169182869Y-91869617D01*
X169201912Y-91865674D01*
X169221792Y-91863164D01*
X169262401Y-91847085D01*
X169273444Y-91843303D01*
X169315390Y-91831118D01*
X169332629Y-91820922D01*
X169350103Y-91812362D01*
X169368727Y-91804988D01*
X169368727Y-91804987D01*
X169368732Y-91804986D01*
X169404083Y-91779300D01*
X169413814Y-91772908D01*
X169451420Y-91750670D01*
X169465589Y-91736499D01*
X169480379Y-91723868D01*
X169496587Y-91712094D01*
X169524438Y-91678426D01*
X169532279Y-91669809D01*
X169775178Y-91426911D01*
X169836500Y-91393427D01*
X169894947Y-91394817D01*
X169963308Y-91413135D01*
X170117625Y-91426636D01*
X170189998Y-91432968D01*
X170190000Y-91432968D01*
X170190002Y-91432968D01*
X170246807Y-91427998D01*
X170416692Y-91413135D01*
X170636496Y-91354239D01*
X170842734Y-91258068D01*
X171029139Y-91127547D01*
X171190047Y-90966639D01*
X171320568Y-90780234D01*
X171347895Y-90721629D01*
X171394064Y-90669195D01*
X171461257Y-90650042D01*
X171528139Y-90670257D01*
X171572657Y-90721633D01*
X171599865Y-90779982D01*
X171730342Y-90966320D01*
X171891179Y-91127157D01*
X172077517Y-91257634D01*
X172283673Y-91353765D01*
X172283682Y-91353769D01*
X172479999Y-91406372D01*
X172480000Y-91406371D01*
X172480000Y-90443186D01*
X172491955Y-90455141D01*
X172604852Y-90512665D01*
X172698519Y-90527500D01*
X172761481Y-90527500D01*
X172855148Y-90512665D01*
X172968045Y-90455141D01*
X172980000Y-90443186D01*
X172980000Y-91406372D01*
X173176317Y-91353769D01*
X173176326Y-91353765D01*
X173382482Y-91257634D01*
X173568820Y-91127157D01*
X173729657Y-90966320D01*
X173860132Y-90779984D01*
X173887341Y-90721634D01*
X173933513Y-90669195D01*
X174000707Y-90650042D01*
X174067588Y-90670257D01*
X174112105Y-90721632D01*
X174121515Y-90741811D01*
X174139431Y-90780232D01*
X174139432Y-90780234D01*
X174269954Y-90966641D01*
X174430858Y-91127545D01*
X174430861Y-91127547D01*
X174617266Y-91258068D01*
X174823504Y-91354239D01*
X175043308Y-91413135D01*
X175197625Y-91426636D01*
X175269998Y-91432968D01*
X175270000Y-91432968D01*
X175270002Y-91432968D01*
X175326807Y-91427998D01*
X175496692Y-91413135D01*
X175716496Y-91354239D01*
X175922734Y-91258068D01*
X176109139Y-91127547D01*
X176270047Y-90966639D01*
X176400568Y-90780234D01*
X176496739Y-90573996D01*
X176555635Y-90354192D01*
X176575468Y-90127500D01*
X176575401Y-90126739D01*
X176567991Y-90042035D01*
X176555635Y-89900808D01*
X176537318Y-89832448D01*
X176538981Y-89762603D01*
X176569410Y-89712679D01*
X177170272Y-89111819D01*
X177231595Y-89078334D01*
X177257953Y-89075500D01*
X180235901Y-89075500D01*
X180302940Y-89095185D01*
X180348695Y-89147989D01*
X180359190Y-89212756D01*
X180352000Y-89279619D01*
X180352000Y-90975370D01*
X180352001Y-90975376D01*
X180358408Y-91034983D01*
X180408702Y-91169828D01*
X180408706Y-91169835D01*
X180494952Y-91285044D01*
X180494955Y-91285047D01*
X180610164Y-91371293D01*
X180610171Y-91371297D01*
X180745017Y-91421591D01*
X180745016Y-91421591D01*
X180751944Y-91422335D01*
X180804627Y-91428000D01*
X182500372Y-91427999D01*
X182559983Y-91421591D01*
X182694831Y-91371296D01*
X182810046Y-91285046D01*
X182896296Y-91169831D01*
X182946591Y-91034983D01*
X182950362Y-90999901D01*
X182977099Y-90935355D01*
X183034490Y-90895506D01*
X183104316Y-90893011D01*
X183164405Y-90928663D01*
X183175226Y-90942036D01*
X183192456Y-90966643D01*
X183353358Y-91127545D01*
X183353361Y-91127547D01*
X183539766Y-91258068D01*
X183746004Y-91354239D01*
X183965808Y-91413135D01*
X184120125Y-91426636D01*
X184192498Y-91432968D01*
X184192500Y-91432968D01*
X184192502Y-91432968D01*
X184249307Y-91427998D01*
X184419192Y-91413135D01*
X184487548Y-91394819D01*
X184557397Y-91396482D01*
X184607322Y-91426913D01*
X185266697Y-92086288D01*
X185276522Y-92098551D01*
X185276743Y-92098369D01*
X185281711Y-92104374D01*
X185330722Y-92150399D01*
X185333521Y-92153112D01*
X185353022Y-92172614D01*
X185353026Y-92172617D01*
X185353029Y-92172620D01*
X185356202Y-92175081D01*
X185365074Y-92182659D01*
X185396918Y-92212562D01*
X185414476Y-92222214D01*
X185430735Y-92232895D01*
X185446564Y-92245173D01*
X185486655Y-92262521D01*
X185497126Y-92267651D01*
X185519680Y-92280050D01*
X185535402Y-92288694D01*
X185535404Y-92288695D01*
X185535408Y-92288697D01*
X185554816Y-92293680D01*
X185573219Y-92299981D01*
X185591601Y-92307936D01*
X185591602Y-92307936D01*
X185591604Y-92307937D01*
X185634750Y-92314770D01*
X185646172Y-92317136D01*
X185688481Y-92328000D01*
X185708516Y-92328000D01*
X185727914Y-92329526D01*
X185747694Y-92332659D01*
X185747695Y-92332660D01*
X185747695Y-92332659D01*
X185747696Y-92332660D01*
X185791175Y-92328550D01*
X185802844Y-92328000D01*
X196537257Y-92328000D01*
X196552877Y-92329724D01*
X196552904Y-92329439D01*
X196560660Y-92330171D01*
X196560667Y-92330173D01*
X196627873Y-92328061D01*
X196631768Y-92328000D01*
X196659346Y-92328000D01*
X196659350Y-92328000D01*
X196663324Y-92327497D01*
X196674963Y-92326580D01*
X196718627Y-92325209D01*
X196737869Y-92319617D01*
X196756912Y-92315674D01*
X196776792Y-92313164D01*
X196817401Y-92297085D01*
X196828444Y-92293303D01*
X196870390Y-92281118D01*
X196887629Y-92270922D01*
X196905103Y-92262362D01*
X196923727Y-92254988D01*
X196923727Y-92254987D01*
X196923732Y-92254986D01*
X196959083Y-92229300D01*
X196968814Y-92222908D01*
X197006420Y-92200670D01*
X197020589Y-92186499D01*
X197035379Y-92173868D01*
X197051587Y-92162094D01*
X197079438Y-92128426D01*
X197087279Y-92119809D01*
X197737679Y-91469410D01*
X197799000Y-91435927D01*
X197857447Y-91437317D01*
X197925808Y-91455635D01*
X198083280Y-91469412D01*
X198152498Y-91475468D01*
X198152500Y-91475468D01*
X198152502Y-91475468D01*
X198221720Y-91469412D01*
X198379192Y-91455635D01*
X198598996Y-91396739D01*
X198805234Y-91300568D01*
X198991639Y-91170047D01*
X199152547Y-91009139D01*
X199283068Y-90822734D01*
X199379239Y-90616496D01*
X199438135Y-90396692D01*
X199457968Y-90170000D01*
X199457733Y-90167319D01*
X199447450Y-90049780D01*
X199438135Y-89943308D01*
X199389902Y-89763300D01*
X199379241Y-89723511D01*
X199379238Y-89723502D01*
X199285344Y-89522147D01*
X199283068Y-89517266D01*
X199154297Y-89333360D01*
X199152545Y-89330858D01*
X198991641Y-89169954D01*
X198805234Y-89039432D01*
X198805228Y-89039429D01*
X198777538Y-89026517D01*
X198747224Y-89012381D01*
X198694785Y-88966210D01*
X198675633Y-88899017D01*
X198695848Y-88832135D01*
X198747225Y-88787618D01*
X198805234Y-88760568D01*
X198991639Y-88630047D01*
X199152547Y-88469139D01*
X199283068Y-88282734D01*
X199379239Y-88076496D01*
X199438135Y-87856692D01*
X199457968Y-87630000D01*
X199456091Y-87608551D01*
X199446672Y-87500883D01*
X199438135Y-87403308D01*
X199379239Y-87183504D01*
X199283068Y-86977266D01*
X199171190Y-86817486D01*
X199152548Y-86790862D01*
X199103791Y-86742105D01*
X199036381Y-86674695D01*
X199002898Y-86613375D01*
X199007882Y-86543683D01*
X199036381Y-86499337D01*
X201898243Y-83637475D01*
X201959564Y-83603992D01*
X202029256Y-83608976D01*
X202085189Y-83650848D01*
X202099478Y-83675348D01*
X202165826Y-83826606D01*
X202301833Y-84034782D01*
X202301836Y-84034785D01*
X202470256Y-84217738D01*
X202527972Y-84262660D01*
X202666488Y-84370472D01*
X202666493Y-84370475D01*
X202799517Y-84442464D01*
X202849108Y-84491683D01*
X202864500Y-84551519D01*
X202864500Y-88168479D01*
X202844815Y-88235518D01*
X202799519Y-88277533D01*
X202666496Y-88349522D01*
X202666494Y-88349523D01*
X202470257Y-88502261D01*
X202301833Y-88685217D01*
X202165826Y-88893393D01*
X202065936Y-89121118D01*
X202004892Y-89362175D01*
X202004890Y-89362187D01*
X201984357Y-89609994D01*
X201984357Y-89610005D01*
X202004890Y-89857812D01*
X202004892Y-89857824D01*
X202065936Y-90098881D01*
X202165826Y-90326606D01*
X202301833Y-90534782D01*
X202319995Y-90554511D01*
X202470256Y-90717738D01*
X202666491Y-90870474D01*
X202666493Y-90870475D01*
X202882972Y-90987628D01*
X202885190Y-90988828D01*
X203120386Y-91069571D01*
X203365665Y-91110500D01*
X203614335Y-91110500D01*
X203859614Y-91069571D01*
X204094810Y-90988828D01*
X204313509Y-90870474D01*
X204509744Y-90717738D01*
X204678164Y-90534785D01*
X204814173Y-90326607D01*
X204914063Y-90098881D01*
X204975108Y-89857821D01*
X204980468Y-89793137D01*
X204995643Y-89610005D01*
X204995643Y-89609994D01*
X204975109Y-89362187D01*
X204975107Y-89362175D01*
X204914063Y-89121118D01*
X204814173Y-88893393D01*
X204678166Y-88685217D01*
X204621826Y-88624016D01*
X204509744Y-88502262D01*
X204313509Y-88349526D01*
X204313508Y-88349525D01*
X204313505Y-88349523D01*
X204313503Y-88349522D01*
X204180481Y-88277533D01*
X204130891Y-88228313D01*
X204115500Y-88168479D01*
X204115500Y-84551519D01*
X204135185Y-84484480D01*
X204180483Y-84442464D01*
X204215610Y-84423454D01*
X204313509Y-84370474D01*
X204509744Y-84217738D01*
X204678164Y-84034785D01*
X204814173Y-83826607D01*
X204914063Y-83598881D01*
X204975108Y-83357821D01*
X204975109Y-83357812D01*
X204995643Y-83110005D01*
X204995643Y-83109994D01*
X204975109Y-82862187D01*
X204975107Y-82862178D01*
X204955666Y-82785403D01*
X204914063Y-82621118D01*
X204814173Y-82393393D01*
X204678166Y-82185217D01*
X204612130Y-82113483D01*
X204581208Y-82050828D01*
X204589068Y-81981402D01*
X204633215Y-81927247D01*
X204699633Y-81905556D01*
X204703360Y-81905500D01*
X205849548Y-81905500D01*
X205916587Y-81925185D01*
X205937229Y-81941819D01*
X206526338Y-82530928D01*
X206559823Y-82592251D01*
X206558863Y-82649049D01*
X206504892Y-82862174D01*
X206504890Y-82862187D01*
X206484357Y-83109994D01*
X206484357Y-83110005D01*
X206504890Y-83357812D01*
X206504892Y-83357824D01*
X206565936Y-83598881D01*
X206665826Y-83826606D01*
X206801833Y-84034782D01*
X206801836Y-84034785D01*
X206970256Y-84217738D01*
X207027972Y-84262660D01*
X207166488Y-84370472D01*
X207166493Y-84370475D01*
X207299517Y-84442464D01*
X207349108Y-84491683D01*
X207364500Y-84551519D01*
X207364500Y-88168479D01*
X207344815Y-88235518D01*
X207299519Y-88277533D01*
X207166496Y-88349522D01*
X207166494Y-88349523D01*
X206970257Y-88502261D01*
X206801833Y-88685217D01*
X206665826Y-88893393D01*
X206565936Y-89121118D01*
X206504892Y-89362175D01*
X206504890Y-89362187D01*
X206484357Y-89609994D01*
X206484357Y-89610005D01*
X206504890Y-89857812D01*
X206504892Y-89857824D01*
X206565936Y-90098881D01*
X206665826Y-90326606D01*
X206801833Y-90534782D01*
X206819995Y-90554511D01*
X206970256Y-90717738D01*
X207166491Y-90870474D01*
X207166493Y-90870475D01*
X207382972Y-90987628D01*
X207385190Y-90988828D01*
X207620386Y-91069571D01*
X207865665Y-91110500D01*
X208114335Y-91110500D01*
X208359614Y-91069571D01*
X208594810Y-90988828D01*
X208813509Y-90870474D01*
X209009744Y-90717738D01*
X209178164Y-90534785D01*
X209314173Y-90326607D01*
X209414063Y-90098881D01*
X209475108Y-89857821D01*
X209480468Y-89793137D01*
X209495643Y-89610005D01*
X209495643Y-89609994D01*
X209475109Y-89362187D01*
X209475107Y-89362175D01*
X209414063Y-89121118D01*
X209314173Y-88893393D01*
X209178166Y-88685217D01*
X209121826Y-88624016D01*
X209009744Y-88502262D01*
X208813509Y-88349526D01*
X208813508Y-88349525D01*
X208813505Y-88349523D01*
X208813503Y-88349522D01*
X208680481Y-88277533D01*
X208630891Y-88228313D01*
X208615500Y-88168479D01*
X208615500Y-84551519D01*
X208635185Y-84484480D01*
X208680483Y-84442464D01*
X208715610Y-84423454D01*
X208813509Y-84370474D01*
X209009744Y-84217738D01*
X209178164Y-84034785D01*
X209314173Y-83826607D01*
X209414063Y-83598881D01*
X209475108Y-83357821D01*
X209475109Y-83357812D01*
X209495643Y-83110005D01*
X209495643Y-83109994D01*
X209475109Y-82862187D01*
X209475108Y-82862184D01*
X209475108Y-82862179D01*
X209421136Y-82649049D01*
X209423761Y-82579230D01*
X209453662Y-82530928D01*
X209537774Y-82446818D01*
X209599097Y-82413333D01*
X209625454Y-82410500D01*
X212128527Y-82410500D01*
X212195566Y-82430185D01*
X212241321Y-82482989D01*
X212251265Y-82552147D01*
X212242083Y-82584307D01*
X212238600Y-82592251D01*
X212225936Y-82621121D01*
X212164892Y-82862175D01*
X212164890Y-82862187D01*
X212144357Y-83109994D01*
X212144357Y-83110005D01*
X212164890Y-83357812D01*
X212164892Y-83357824D01*
X212225936Y-83598881D01*
X212325826Y-83826606D01*
X212461833Y-84034782D01*
X212461836Y-84034785D01*
X212630256Y-84217738D01*
X212687972Y-84262660D01*
X212826488Y-84370472D01*
X212826493Y-84370475D01*
X212959517Y-84442464D01*
X213009108Y-84491683D01*
X213024500Y-84551519D01*
X213024500Y-88168479D01*
X213004815Y-88235518D01*
X212959519Y-88277533D01*
X212826496Y-88349522D01*
X212826494Y-88349523D01*
X212630257Y-88502261D01*
X212461833Y-88685217D01*
X212325826Y-88893393D01*
X212225936Y-89121118D01*
X212164892Y-89362175D01*
X212164890Y-89362187D01*
X212144357Y-89609994D01*
X212144357Y-89610005D01*
X212164890Y-89857812D01*
X212164892Y-89857824D01*
X212225936Y-90098881D01*
X212325826Y-90326606D01*
X212461833Y-90534782D01*
X212479995Y-90554511D01*
X212630256Y-90717738D01*
X212826491Y-90870474D01*
X212826493Y-90870475D01*
X213042972Y-90987628D01*
X213045190Y-90988828D01*
X213280386Y-91069571D01*
X213525665Y-91110500D01*
X213774335Y-91110500D01*
X214019614Y-91069571D01*
X214254810Y-90988828D01*
X214473509Y-90870474D01*
X214669744Y-90717738D01*
X214838164Y-90534785D01*
X214974173Y-90326607D01*
X215074063Y-90098881D01*
X215135108Y-89857821D01*
X215140468Y-89793137D01*
X215155643Y-89610005D01*
X215155643Y-89609994D01*
X215135109Y-89362187D01*
X215135107Y-89362175D01*
X215074063Y-89121118D01*
X214974173Y-88893393D01*
X214838166Y-88685217D01*
X214781826Y-88624016D01*
X214669744Y-88502262D01*
X214473509Y-88349526D01*
X214473508Y-88349525D01*
X214473505Y-88349523D01*
X214473503Y-88349522D01*
X214340481Y-88277533D01*
X214290891Y-88228313D01*
X214275500Y-88168479D01*
X214275500Y-84551519D01*
X214295185Y-84484480D01*
X214340483Y-84442464D01*
X214375610Y-84423454D01*
X214473509Y-84370474D01*
X214669744Y-84217738D01*
X214838164Y-84034785D01*
X214974173Y-83826607D01*
X215074063Y-83598881D01*
X215135108Y-83357821D01*
X215135109Y-83357812D01*
X215155643Y-83110005D01*
X215155643Y-83109994D01*
X215135109Y-82862187D01*
X215135107Y-82862178D01*
X215074063Y-82621119D01*
X215057916Y-82584309D01*
X215049014Y-82515011D01*
X215078991Y-82451898D01*
X215138330Y-82415011D01*
X215171473Y-82410500D01*
X216514548Y-82410500D01*
X216581587Y-82430185D01*
X216602229Y-82446819D01*
X216686338Y-82530928D01*
X216719823Y-82592251D01*
X216718863Y-82649049D01*
X216664892Y-82862174D01*
X216664890Y-82862187D01*
X216644357Y-83109994D01*
X216644357Y-83110005D01*
X216664890Y-83357812D01*
X216664892Y-83357824D01*
X216725936Y-83598881D01*
X216825826Y-83826606D01*
X216961833Y-84034782D01*
X216961836Y-84034785D01*
X217130256Y-84217738D01*
X217187972Y-84262660D01*
X217326488Y-84370472D01*
X217326493Y-84370475D01*
X217459517Y-84442464D01*
X217509108Y-84491683D01*
X217524500Y-84551519D01*
X217524500Y-88168479D01*
X217504815Y-88235518D01*
X217459519Y-88277533D01*
X217326496Y-88349522D01*
X217326494Y-88349523D01*
X217130257Y-88502261D01*
X216961833Y-88685217D01*
X216825826Y-88893393D01*
X216725936Y-89121118D01*
X216664892Y-89362175D01*
X216664890Y-89362187D01*
X216644357Y-89609994D01*
X216644357Y-89610005D01*
X216664890Y-89857812D01*
X216664892Y-89857824D01*
X216725936Y-90098881D01*
X216825826Y-90326606D01*
X216961833Y-90534782D01*
X216979995Y-90554511D01*
X217130256Y-90717738D01*
X217326491Y-90870474D01*
X217326493Y-90870475D01*
X217542972Y-90987628D01*
X217545190Y-90988828D01*
X217780386Y-91069571D01*
X218025665Y-91110500D01*
X218274335Y-91110500D01*
X218519614Y-91069571D01*
X218754810Y-90988828D01*
X218973509Y-90870474D01*
X219169744Y-90717738D01*
X219338164Y-90534785D01*
X219474173Y-90326607D01*
X219574063Y-90098881D01*
X219635108Y-89857821D01*
X219640468Y-89793137D01*
X219655643Y-89610005D01*
X219655643Y-89609994D01*
X219635109Y-89362187D01*
X219635107Y-89362175D01*
X219574063Y-89121118D01*
X219474173Y-88893393D01*
X219338166Y-88685217D01*
X219281826Y-88624016D01*
X219169744Y-88502262D01*
X218973509Y-88349526D01*
X218973508Y-88349525D01*
X218973505Y-88349523D01*
X218973503Y-88349522D01*
X218840481Y-88277533D01*
X218790891Y-88228313D01*
X218775500Y-88168479D01*
X218775500Y-84551519D01*
X218795185Y-84484480D01*
X218840483Y-84442464D01*
X218875610Y-84423454D01*
X218973509Y-84370474D01*
X219169744Y-84217738D01*
X219338164Y-84034785D01*
X219474173Y-83826607D01*
X219574063Y-83598881D01*
X219635108Y-83357821D01*
X219635109Y-83357812D01*
X219655643Y-83110005D01*
X219655643Y-83109994D01*
X219635109Y-82862187D01*
X219635107Y-82862178D01*
X219615666Y-82785403D01*
X219574063Y-82621118D01*
X219474173Y-82393393D01*
X219338166Y-82185217D01*
X219304812Y-82148985D01*
X219169744Y-82002262D01*
X218973509Y-81849526D01*
X218973507Y-81849525D01*
X218973506Y-81849524D01*
X218754811Y-81731172D01*
X218754802Y-81731169D01*
X218519616Y-81650429D01*
X218274335Y-81609500D01*
X218025665Y-81609500D01*
X217780386Y-81650428D01*
X217700713Y-81677780D01*
X217630914Y-81680929D01*
X217572770Y-81648179D01*
X217325803Y-81401212D01*
X217315980Y-81388950D01*
X217315759Y-81389134D01*
X217310786Y-81383122D01*
X217261776Y-81337099D01*
X217258977Y-81334386D01*
X217239477Y-81314885D01*
X217239471Y-81314880D01*
X217236286Y-81312409D01*
X217227434Y-81304848D01*
X217195582Y-81274938D01*
X217195580Y-81274936D01*
X217195577Y-81274935D01*
X217178029Y-81265288D01*
X217161763Y-81254604D01*
X217145932Y-81242324D01*
X217105849Y-81224978D01*
X217095363Y-81219841D01*
X217057094Y-81198803D01*
X217057092Y-81198802D01*
X217037693Y-81193822D01*
X217019281Y-81187518D01*
X217000898Y-81179562D01*
X217000892Y-81179560D01*
X216957760Y-81172729D01*
X216946322Y-81170361D01*
X216904020Y-81159500D01*
X216904019Y-81159500D01*
X216883984Y-81159500D01*
X216864586Y-81157973D01*
X216857162Y-81156797D01*
X216844805Y-81154840D01*
X216844804Y-81154840D01*
X216801325Y-81158950D01*
X216789656Y-81159500D01*
X209397743Y-81159500D01*
X209382122Y-81157775D01*
X209382096Y-81158061D01*
X209374334Y-81157327D01*
X209374333Y-81157327D01*
X209322688Y-81158950D01*
X209307127Y-81159439D01*
X209303232Y-81159500D01*
X209275647Y-81159500D01*
X209271661Y-81160003D01*
X209260033Y-81160918D01*
X209216373Y-81162290D01*
X209197129Y-81167881D01*
X209178079Y-81171825D01*
X209158211Y-81174334D01*
X209158210Y-81174334D01*
X209117599Y-81190413D01*
X209106554Y-81194194D01*
X209064614Y-81206379D01*
X209064610Y-81206381D01*
X209047366Y-81216579D01*
X209029905Y-81225133D01*
X209011274Y-81232510D01*
X209011262Y-81232517D01*
X208975933Y-81258185D01*
X208966173Y-81264596D01*
X208928580Y-81286829D01*
X208914414Y-81300995D01*
X208899624Y-81313627D01*
X208883414Y-81325404D01*
X208883411Y-81325407D01*
X208855573Y-81359058D01*
X208847711Y-81367697D01*
X208567229Y-81648179D01*
X208505906Y-81681664D01*
X208439286Y-81677780D01*
X208359613Y-81650428D01*
X208114335Y-81609500D01*
X207865665Y-81609500D01*
X207620386Y-81650428D01*
X207540713Y-81677780D01*
X207470914Y-81680929D01*
X207412770Y-81648179D01*
X206660803Y-80896212D01*
X206650980Y-80883950D01*
X206650759Y-80884134D01*
X206645786Y-80878122D01*
X206596776Y-80832099D01*
X206593977Y-80829386D01*
X206574477Y-80809885D01*
X206574471Y-80809880D01*
X206571286Y-80807409D01*
X206562434Y-80799848D01*
X206530582Y-80769938D01*
X206530580Y-80769936D01*
X206530577Y-80769935D01*
X206513029Y-80760288D01*
X206496763Y-80749604D01*
X206488285Y-80743028D01*
X206480936Y-80737327D01*
X206480935Y-80737326D01*
X206480932Y-80737324D01*
X206440849Y-80719978D01*
X206430363Y-80714841D01*
X206392094Y-80693803D01*
X206392092Y-80693802D01*
X206372693Y-80688822D01*
X206354281Y-80682518D01*
X206335898Y-80674562D01*
X206335892Y-80674560D01*
X206292760Y-80667729D01*
X206281322Y-80665361D01*
X206239020Y-80654500D01*
X206239019Y-80654500D01*
X206218984Y-80654500D01*
X206199586Y-80652973D01*
X206192162Y-80651797D01*
X206179805Y-80649840D01*
X206179804Y-80649840D01*
X206136325Y-80653950D01*
X206124656Y-80654500D01*
X203453867Y-80654500D01*
X203438250Y-80652776D01*
X203438223Y-80653062D01*
X203430461Y-80652327D01*
X203363274Y-80654439D01*
X203359380Y-80654500D01*
X203331780Y-80654500D01*
X203328092Y-80654965D01*
X203327779Y-80655005D01*
X203316161Y-80655918D01*
X203272507Y-80657290D01*
X203272497Y-80657292D01*
X203253264Y-80662879D01*
X203234224Y-80666822D01*
X203214347Y-80669334D01*
X203214340Y-80669335D01*
X203214338Y-80669336D01*
X203214336Y-80669336D01*
X203214335Y-80669337D01*
X203173714Y-80685419D01*
X203162667Y-80689201D01*
X203120741Y-80701382D01*
X203120738Y-80701383D01*
X203103493Y-80711581D01*
X203086031Y-80720135D01*
X203067402Y-80727511D01*
X203067397Y-80727514D01*
X203032056Y-80753189D01*
X203022298Y-80759599D01*
X202984710Y-80781828D01*
X202970538Y-80796000D01*
X202955753Y-80808628D01*
X202941414Y-80819047D01*
X202939542Y-80820407D01*
X202911701Y-80854059D01*
X202903841Y-80862696D01*
X197768708Y-85997829D01*
X197756451Y-86007650D01*
X197756634Y-86007871D01*
X197750622Y-86012844D01*
X197704598Y-86061853D01*
X197701891Y-86064646D01*
X197682389Y-86084147D01*
X197682375Y-86084164D01*
X197679907Y-86087345D01*
X197672343Y-86096200D01*
X197642437Y-86128048D01*
X197642436Y-86128050D01*
X197632784Y-86145606D01*
X197622110Y-86161856D01*
X197609829Y-86177691D01*
X197609824Y-86177698D01*
X197592475Y-86217788D01*
X197587338Y-86228274D01*
X197566303Y-86266536D01*
X197561322Y-86285937D01*
X197555021Y-86304340D01*
X197547062Y-86322732D01*
X197547061Y-86322735D01*
X197540228Y-86365873D01*
X197537860Y-86377304D01*
X197527001Y-86419601D01*
X197526023Y-86427348D01*
X197523698Y-86427054D01*
X197507315Y-86482850D01*
X197474123Y-86517386D01*
X197313359Y-86629953D01*
X197152454Y-86790858D01*
X197021932Y-86977265D01*
X197021931Y-86977267D01*
X196925761Y-87183502D01*
X196925758Y-87183511D01*
X196866866Y-87403302D01*
X196866864Y-87403313D01*
X196848194Y-87616719D01*
X196847032Y-87630000D01*
X196866864Y-87856686D01*
X196866865Y-87856691D01*
X196866866Y-87856697D01*
X196885180Y-87925048D01*
X196883517Y-87994897D01*
X196853087Y-88044820D01*
X196804728Y-88093180D01*
X196743405Y-88126666D01*
X196717046Y-88129500D01*
X195716119Y-88129500D01*
X195649080Y-88109815D01*
X195603325Y-88057011D01*
X195593381Y-87987853D01*
X195596344Y-87973407D01*
X195627639Y-87856609D01*
X195627641Y-87856599D01*
X195647466Y-87630002D01*
X195647466Y-87629997D01*
X195627641Y-87403400D01*
X195627639Y-87403389D01*
X195568769Y-87183682D01*
X195568764Y-87183668D01*
X195472636Y-86977521D01*
X195472632Y-86977513D01*
X195421525Y-86904526D01*
X194740453Y-87585597D01*
X194727665Y-87504852D01*
X194670141Y-87391955D01*
X194580545Y-87302359D01*
X194467648Y-87244835D01*
X194386901Y-87232046D01*
X195067972Y-86550974D01*
X194994978Y-86499863D01*
X194788831Y-86403735D01*
X194788817Y-86403730D01*
X194569110Y-86344860D01*
X194569099Y-86344858D01*
X194342502Y-86325034D01*
X194342498Y-86325034D01*
X194115900Y-86344858D01*
X194115889Y-86344860D01*
X193896182Y-86403730D01*
X193896173Y-86403734D01*
X193690016Y-86499866D01*
X193690012Y-86499868D01*
X193617026Y-86550973D01*
X193617026Y-86550974D01*
X194298099Y-87232046D01*
X194217352Y-87244835D01*
X194104455Y-87302359D01*
X194014859Y-87391955D01*
X193957335Y-87504852D01*
X193944546Y-87585598D01*
X193263474Y-86904526D01*
X193263473Y-86904526D01*
X193212368Y-86977512D01*
X193212366Y-86977516D01*
X193116234Y-87183673D01*
X193116230Y-87183682D01*
X193057360Y-87403389D01*
X193057358Y-87403400D01*
X193037534Y-87629997D01*
X193037534Y-87630002D01*
X193057358Y-87856599D01*
X193057360Y-87856609D01*
X193088656Y-87973407D01*
X193086993Y-88043256D01*
X193047831Y-88101119D01*
X192983602Y-88128623D01*
X192968881Y-88129500D01*
X190727738Y-88129500D01*
X190712121Y-88127776D01*
X190712094Y-88128062D01*
X190704332Y-88127327D01*
X190637145Y-88129439D01*
X190633251Y-88129500D01*
X190605650Y-88129500D01*
X190601962Y-88129965D01*
X190601649Y-88130005D01*
X190590031Y-88130918D01*
X190546373Y-88132290D01*
X190546372Y-88132290D01*
X190527129Y-88137881D01*
X190508079Y-88141825D01*
X190488211Y-88144334D01*
X190488210Y-88144335D01*
X190447600Y-88160413D01*
X190436553Y-88164195D01*
X190394610Y-88176381D01*
X190394609Y-88176382D01*
X190377367Y-88186579D01*
X190359899Y-88195137D01*
X190341269Y-88202513D01*
X190341266Y-88202515D01*
X190305939Y-88228181D01*
X190296180Y-88234592D01*
X190258579Y-88256830D01*
X190244408Y-88271000D01*
X190229623Y-88283628D01*
X190213412Y-88295407D01*
X190185571Y-88329059D01*
X190177711Y-88337696D01*
X189687321Y-88828086D01*
X189625998Y-88861571D01*
X189567548Y-88860180D01*
X189499197Y-88841866D01*
X189499193Y-88841865D01*
X189499192Y-88841865D01*
X189385846Y-88831948D01*
X189272501Y-88822032D01*
X189272499Y-88822032D01*
X189045813Y-88841864D01*
X189045796Y-88841867D01*
X188977449Y-88860180D01*
X188907599Y-88858516D01*
X188857677Y-88828086D01*
X188095803Y-88066212D01*
X188085980Y-88053950D01*
X188085759Y-88054134D01*
X188080786Y-88048122D01*
X188031776Y-88002099D01*
X188028977Y-87999386D01*
X188009477Y-87979885D01*
X188009471Y-87979880D01*
X188006286Y-87977409D01*
X187997434Y-87969848D01*
X187965582Y-87939938D01*
X187965580Y-87939936D01*
X187965577Y-87939935D01*
X187948029Y-87930288D01*
X187931763Y-87919604D01*
X187917017Y-87908166D01*
X187915936Y-87907327D01*
X187915935Y-87907326D01*
X187915932Y-87907324D01*
X187875849Y-87889978D01*
X187865363Y-87884841D01*
X187827094Y-87863803D01*
X187827092Y-87863802D01*
X187807693Y-87858822D01*
X187789281Y-87852518D01*
X187770898Y-87844562D01*
X187770892Y-87844560D01*
X187727760Y-87837729D01*
X187716322Y-87835361D01*
X187674020Y-87824500D01*
X187674019Y-87824500D01*
X187653984Y-87824500D01*
X187634586Y-87822973D01*
X187627162Y-87821797D01*
X187614805Y-87819840D01*
X187614804Y-87819840D01*
X187571325Y-87823950D01*
X187559656Y-87824500D01*
X177030237Y-87824500D01*
X177014620Y-87822776D01*
X177014593Y-87823062D01*
X177006831Y-87822327D01*
X176939644Y-87824439D01*
X176935750Y-87824500D01*
X176908150Y-87824500D01*
X176904462Y-87824965D01*
X176904149Y-87825005D01*
X176892531Y-87825918D01*
X176848873Y-87827290D01*
X176848872Y-87827290D01*
X176829629Y-87832881D01*
X176810579Y-87836825D01*
X176790711Y-87839334D01*
X176790710Y-87839335D01*
X176750100Y-87855413D01*
X176739053Y-87859195D01*
X176697110Y-87871381D01*
X176697109Y-87871382D01*
X176679867Y-87881579D01*
X176662399Y-87890137D01*
X176643769Y-87897513D01*
X176643766Y-87897515D01*
X176608439Y-87923181D01*
X176598680Y-87929592D01*
X176561079Y-87951830D01*
X176546908Y-87966000D01*
X176532123Y-87978628D01*
X176515912Y-87990407D01*
X176488071Y-88024059D01*
X176480211Y-88032696D01*
X175684821Y-88828086D01*
X175623498Y-88861571D01*
X175565048Y-88860180D01*
X175496697Y-88841866D01*
X175496693Y-88841865D01*
X175496692Y-88841865D01*
X175383346Y-88831948D01*
X175270001Y-88822032D01*
X175269999Y-88822032D01*
X175043313Y-88841864D01*
X175043296Y-88841867D01*
X174974949Y-88860180D01*
X174905099Y-88858516D01*
X174855177Y-88828086D01*
X173418303Y-87391212D01*
X173408480Y-87378950D01*
X173408259Y-87379134D01*
X173403286Y-87373122D01*
X173354276Y-87327099D01*
X173351477Y-87324386D01*
X173331977Y-87304885D01*
X173331971Y-87304880D01*
X173328786Y-87302409D01*
X173319934Y-87294848D01*
X173288082Y-87264938D01*
X173288080Y-87264936D01*
X173288077Y-87264935D01*
X173270529Y-87255288D01*
X173254263Y-87244604D01*
X173238432Y-87232324D01*
X173198349Y-87214978D01*
X173187863Y-87209841D01*
X173149594Y-87188803D01*
X173149592Y-87188802D01*
X173130193Y-87183822D01*
X173111781Y-87177518D01*
X173093398Y-87169562D01*
X173093392Y-87169560D01*
X173050260Y-87162729D01*
X173038822Y-87160361D01*
X172996520Y-87149500D01*
X172996519Y-87149500D01*
X172976484Y-87149500D01*
X172957086Y-87147973D01*
X172940335Y-87145320D01*
X172937305Y-87144840D01*
X172937304Y-87144840D01*
X172893825Y-87148950D01*
X172882156Y-87149500D01*
X163820883Y-87149500D01*
X163753844Y-87129815D01*
X163708089Y-87077011D01*
X163698145Y-87007853D01*
X163708501Y-86973095D01*
X163786265Y-86806326D01*
X163786269Y-86806317D01*
X163845139Y-86586610D01*
X163845141Y-86586599D01*
X163864966Y-86360002D01*
X163864966Y-86359997D01*
X163845141Y-86133400D01*
X163845139Y-86133389D01*
X163786269Y-85913682D01*
X163786264Y-85913668D01*
X163690136Y-85707521D01*
X163690132Y-85707513D01*
X163639025Y-85634526D01*
X162957953Y-86315597D01*
X162945165Y-86234852D01*
X162887641Y-86121955D01*
X162798045Y-86032359D01*
X162685148Y-85974835D01*
X162604401Y-85962046D01*
X163285472Y-85280974D01*
X163212478Y-85229863D01*
X163006331Y-85133735D01*
X163006317Y-85133730D01*
X162786610Y-85074860D01*
X162786599Y-85074858D01*
X162560002Y-85055034D01*
X162559998Y-85055034D01*
X162333400Y-85074858D01*
X162333389Y-85074860D01*
X162113682Y-85133730D01*
X162113673Y-85133734D01*
X161907516Y-85229866D01*
X161907512Y-85229868D01*
X161834526Y-85280973D01*
X161834526Y-85280974D01*
X162515599Y-85962046D01*
X162434852Y-85974835D01*
X162321955Y-86032359D01*
X162232359Y-86121955D01*
X162174835Y-86234852D01*
X162162046Y-86315598D01*
X161480974Y-85634526D01*
X161480973Y-85634526D01*
X161429868Y-85707512D01*
X161429866Y-85707516D01*
X161333734Y-85913673D01*
X161333730Y-85913682D01*
X161274860Y-86133389D01*
X161274858Y-86133400D01*
X161255034Y-86359997D01*
X161255034Y-86360002D01*
X161274858Y-86586599D01*
X161274860Y-86586610D01*
X161333730Y-86806317D01*
X161333734Y-86806326D01*
X161411499Y-86973095D01*
X161421991Y-87042173D01*
X161393471Y-87105957D01*
X161334994Y-87144196D01*
X161299117Y-87149500D01*
X160475453Y-87149500D01*
X160408414Y-87129815D01*
X160387772Y-87113181D01*
X160049413Y-86774822D01*
X160015928Y-86713499D01*
X160017319Y-86655048D01*
X160028485Y-86613375D01*
X160035635Y-86586692D01*
X160055468Y-86360000D01*
X160054143Y-86344860D01*
X160043943Y-86228274D01*
X160035635Y-86133308D01*
X159976739Y-85913504D01*
X159880568Y-85707266D01*
X159782839Y-85567693D01*
X159750045Y-85520858D01*
X159589141Y-85359954D01*
X159402734Y-85229432D01*
X159402732Y-85229431D01*
X159196497Y-85133261D01*
X159196488Y-85133258D01*
X158976697Y-85074366D01*
X158976693Y-85074365D01*
X158976692Y-85074365D01*
X158976691Y-85074364D01*
X158976686Y-85074364D01*
X158750002Y-85054532D01*
X158749999Y-85054532D01*
X158523313Y-85074364D01*
X158523296Y-85074367D01*
X158454949Y-85092680D01*
X158385099Y-85091016D01*
X158335177Y-85060586D01*
X154103951Y-80829360D01*
X154094128Y-80817098D01*
X154093907Y-80817282D01*
X154088934Y-80811270D01*
X154039924Y-80765247D01*
X154037125Y-80762534D01*
X154017625Y-80743033D01*
X154017619Y-80743028D01*
X154014434Y-80740557D01*
X154005582Y-80732996D01*
X153973730Y-80703086D01*
X153973728Y-80703084D01*
X153973725Y-80703083D01*
X153956177Y-80693436D01*
X153939911Y-80682752D01*
X153939609Y-80682518D01*
X153924084Y-80670475D01*
X153924083Y-80670474D01*
X153924080Y-80670472D01*
X153883997Y-80653126D01*
X153873511Y-80647989D01*
X153835242Y-80626951D01*
X153835240Y-80626950D01*
X153815841Y-80621970D01*
X153797429Y-80615666D01*
X153779046Y-80607710D01*
X153779040Y-80607708D01*
X153735908Y-80600877D01*
X153724470Y-80598509D01*
X153682168Y-80587648D01*
X153682167Y-80587648D01*
X153662132Y-80587648D01*
X153642734Y-80586121D01*
X153635310Y-80584945D01*
X153622953Y-80582988D01*
X153622952Y-80582988D01*
X153579473Y-80587098D01*
X153567804Y-80587648D01*
X153529500Y-80587648D01*
X153462461Y-80567963D01*
X153416706Y-80515159D01*
X153405500Y-80463648D01*
X153405500Y-77156305D01*
X153425185Y-77089266D01*
X153477989Y-77043511D01*
X153547147Y-77033567D01*
X153610703Y-77062592D01*
X153617181Y-77068624D01*
X160564845Y-84016288D01*
X160574670Y-84028551D01*
X160574891Y-84028369D01*
X160579859Y-84034374D01*
X160579861Y-84034376D01*
X160579862Y-84034377D01*
X160596284Y-84049798D01*
X160628870Y-84080399D01*
X160631669Y-84083112D01*
X160651170Y-84102614D01*
X160651174Y-84102617D01*
X160651177Y-84102620D01*
X160654350Y-84105081D01*
X160663222Y-84112659D01*
X160695066Y-84142562D01*
X160712624Y-84152214D01*
X160728883Y-84162895D01*
X160744712Y-84175173D01*
X160784803Y-84192521D01*
X160795274Y-84197651D01*
X160817828Y-84210050D01*
X160833550Y-84218694D01*
X160833552Y-84218695D01*
X160833556Y-84218697D01*
X160852964Y-84223680D01*
X160871367Y-84229981D01*
X160889749Y-84237936D01*
X160889750Y-84237936D01*
X160889752Y-84237937D01*
X160932898Y-84244770D01*
X160944320Y-84247136D01*
X160986629Y-84258000D01*
X161006664Y-84258000D01*
X161026062Y-84259526D01*
X161045842Y-84262659D01*
X161045843Y-84262660D01*
X161045843Y-84262659D01*
X161045844Y-84262660D01*
X161089323Y-84258550D01*
X161100992Y-84258000D01*
X198224757Y-84258000D01*
X198240377Y-84259724D01*
X198240404Y-84259439D01*
X198248160Y-84260171D01*
X198248167Y-84260173D01*
X198315373Y-84258061D01*
X198319268Y-84258000D01*
X198346846Y-84258000D01*
X198346850Y-84258000D01*
X198350824Y-84257497D01*
X198362463Y-84256580D01*
X198406127Y-84255209D01*
X198425369Y-84249617D01*
X198444412Y-84245674D01*
X198464292Y-84243164D01*
X198504901Y-84227085D01*
X198515944Y-84223303D01*
X198557890Y-84211118D01*
X198575129Y-84200922D01*
X198592603Y-84192362D01*
X198611227Y-84184988D01*
X198611227Y-84184987D01*
X198611232Y-84184986D01*
X198646583Y-84159300D01*
X198656314Y-84152908D01*
X198693920Y-84130670D01*
X198708089Y-84116499D01*
X198722879Y-84103868D01*
X198739087Y-84092094D01*
X198766938Y-84058426D01*
X198774779Y-84049809D01*
X206595178Y-76229410D01*
X206656499Y-76195927D01*
X206714946Y-76197317D01*
X206783308Y-76215635D01*
X206940780Y-76229412D01*
X207009998Y-76235468D01*
X207010000Y-76235468D01*
X207010002Y-76235468D01*
X207079220Y-76229412D01*
X207236692Y-76215635D01*
X207456496Y-76156739D01*
X207662734Y-76060568D01*
X207849139Y-75930047D01*
X208010047Y-75769139D01*
X208140568Y-75582734D01*
X208167618Y-75524724D01*
X208213790Y-75472285D01*
X208280983Y-75453133D01*
X208347865Y-75473348D01*
X208392382Y-75524725D01*
X208419429Y-75582728D01*
X208419432Y-75582734D01*
X208549954Y-75769141D01*
X208710858Y-75930045D01*
X208710861Y-75930047D01*
X208897266Y-76060568D01*
X209103504Y-76156739D01*
X209323308Y-76215635D01*
X209480780Y-76229412D01*
X209549998Y-76235468D01*
X209550000Y-76235468D01*
X209550002Y-76235468D01*
X209619220Y-76229412D01*
X209776692Y-76215635D01*
X209996496Y-76156739D01*
X210202734Y-76060568D01*
X210389139Y-75930047D01*
X210550047Y-75769139D01*
X210680568Y-75582734D01*
X210776739Y-75376496D01*
X210835635Y-75156692D01*
X210855468Y-74930000D01*
X210835635Y-74703308D01*
X210776739Y-74483504D01*
X210680568Y-74277266D01*
X210550047Y-74090861D01*
X210550045Y-74090858D01*
X210389141Y-73929954D01*
X210223080Y-73813678D01*
X214169500Y-73813678D01*
X214188117Y-73949128D01*
X214208629Y-74098357D01*
X214208630Y-74098364D01*
X214225024Y-74156874D01*
X214286156Y-74375058D01*
X214286157Y-74375061D01*
X214286158Y-74375063D01*
X214286158Y-74375064D01*
X214400634Y-74638617D01*
X214549944Y-74884146D01*
X214587247Y-74929998D01*
X214731292Y-75107053D01*
X214846920Y-75215042D01*
X214941299Y-75303187D01*
X215131338Y-75437330D01*
X215176064Y-75468901D01*
X215431203Y-75601104D01*
X215701968Y-75697334D01*
X215983314Y-75755798D01*
X216198248Y-75770500D01*
X216198255Y-75770500D01*
X218141745Y-75770500D01*
X218141752Y-75770500D01*
X218356686Y-75755798D01*
X218638032Y-75697334D01*
X218908797Y-75601104D01*
X219163936Y-75468901D01*
X219398698Y-75303189D01*
X219608708Y-75107053D01*
X219790055Y-74884147D01*
X219939361Y-74638625D01*
X219939363Y-74638620D01*
X219939365Y-74638617D01*
X220029762Y-74430500D01*
X220053844Y-74375058D01*
X220131371Y-74098358D01*
X220170500Y-73813678D01*
X220170500Y-73526322D01*
X220169649Y-73520134D01*
X220157634Y-73432719D01*
X220131371Y-73241642D01*
X220053844Y-72964942D01*
X220016961Y-72880028D01*
X219939365Y-72701382D01*
X219790055Y-72455853D01*
X219736479Y-72389999D01*
X219608708Y-72232947D01*
X219489831Y-72121923D01*
X219398700Y-72036812D01*
X219163935Y-71871098D01*
X218908793Y-71738894D01*
X218638037Y-71642667D01*
X218638034Y-71642666D01*
X218461509Y-71605984D01*
X218356686Y-71584202D01*
X218356684Y-71584201D01*
X218356680Y-71584201D01*
X218238070Y-71576088D01*
X218141752Y-71569500D01*
X216198248Y-71569500D01*
X216107724Y-71575691D01*
X215983319Y-71584201D01*
X215701965Y-71642666D01*
X215701962Y-71642667D01*
X215431206Y-71738894D01*
X215176064Y-71871098D01*
X214941299Y-72036812D01*
X214731289Y-72232950D01*
X214549944Y-72455853D01*
X214400634Y-72701382D01*
X214286158Y-72964935D01*
X214286158Y-72964936D01*
X214286156Y-72964939D01*
X214286156Y-72964942D01*
X214271902Y-73015816D01*
X214208630Y-73241635D01*
X214208629Y-73241642D01*
X214170351Y-73520134D01*
X214169500Y-73526322D01*
X214169500Y-73813678D01*
X210223080Y-73813678D01*
X210202734Y-73799432D01*
X210202732Y-73799431D01*
X209996497Y-73703261D01*
X209996488Y-73703258D01*
X209776697Y-73644366D01*
X209776693Y-73644365D01*
X209776692Y-73644365D01*
X209776691Y-73644364D01*
X209776686Y-73644364D01*
X209550002Y-73624532D01*
X209549999Y-73624532D01*
X209323313Y-73644364D01*
X209323296Y-73644367D01*
X209254949Y-73662680D01*
X209185099Y-73661016D01*
X209135177Y-73630586D01*
X207510803Y-72006212D01*
X207500980Y-71993950D01*
X207500759Y-71994134D01*
X207495786Y-71988122D01*
X207446776Y-71942099D01*
X207443977Y-71939386D01*
X207424477Y-71919885D01*
X207424471Y-71919880D01*
X207421286Y-71917409D01*
X207412434Y-71909848D01*
X207380582Y-71879938D01*
X207380580Y-71879936D01*
X207380577Y-71879935D01*
X207363029Y-71870288D01*
X207346763Y-71859604D01*
X207330932Y-71847324D01*
X207290849Y-71829978D01*
X207280363Y-71824841D01*
X207242094Y-71803803D01*
X207242092Y-71803802D01*
X207222693Y-71798822D01*
X207204281Y-71792518D01*
X207185898Y-71784562D01*
X207185892Y-71784560D01*
X207142760Y-71777729D01*
X207131322Y-71775361D01*
X207089020Y-71764500D01*
X207089019Y-71764500D01*
X207068984Y-71764500D01*
X207049586Y-71762973D01*
X207042162Y-71761797D01*
X207029805Y-71759840D01*
X207029804Y-71759840D01*
X206986325Y-71763950D01*
X206974656Y-71764500D01*
X183190453Y-71764500D01*
X183123414Y-71744815D01*
X183102772Y-71728181D01*
X175369102Y-63994511D01*
X175359279Y-63982249D01*
X175359058Y-63982433D01*
X175354085Y-63976421D01*
X175305075Y-63930398D01*
X175302276Y-63927685D01*
X175282776Y-63908184D01*
X175282770Y-63908179D01*
X175279585Y-63905708D01*
X175270733Y-63898147D01*
X175238881Y-63868237D01*
X175238879Y-63868235D01*
X175238876Y-63868234D01*
X175221328Y-63858587D01*
X175205062Y-63847903D01*
X175189231Y-63835623D01*
X175149148Y-63818277D01*
X175138662Y-63813140D01*
X175100393Y-63792102D01*
X175100391Y-63792101D01*
X175080992Y-63787121D01*
X175062580Y-63780817D01*
X175044197Y-63772861D01*
X175044191Y-63772859D01*
X175001059Y-63766028D01*
X174989621Y-63763660D01*
X174947319Y-63752799D01*
X174947318Y-63752799D01*
X174927283Y-63752799D01*
X174907885Y-63751272D01*
X174900461Y-63750096D01*
X174888104Y-63748139D01*
X174888103Y-63748139D01*
X174844624Y-63752249D01*
X174832955Y-63752799D01*
X174231659Y-63752799D01*
X174164620Y-63733114D01*
X174118865Y-63680310D01*
X174108921Y-63611152D01*
X174137946Y-63547596D01*
X174196724Y-63509822D01*
X174211445Y-63507044D01*
X174211363Y-63506574D01*
X174216679Y-63505636D01*
X174216692Y-63505635D01*
X174436496Y-63446739D01*
X174642734Y-63350568D01*
X174829139Y-63220047D01*
X174990047Y-63059139D01*
X175120568Y-62872734D01*
X175147618Y-62814724D01*
X175193790Y-62762285D01*
X175260983Y-62743133D01*
X175327865Y-62763348D01*
X175372382Y-62814725D01*
X175399429Y-62872728D01*
X175399432Y-62872734D01*
X175529954Y-63059141D01*
X175690858Y-63220045D01*
X175690861Y-63220047D01*
X175877266Y-63350568D01*
X176083504Y-63446739D01*
X176083509Y-63446740D01*
X176083511Y-63446741D01*
X176120821Y-63456738D01*
X176303308Y-63505635D01*
X176465230Y-63519801D01*
X176529998Y-63525468D01*
X176530000Y-63525468D01*
X176530002Y-63525468D01*
X176586673Y-63520509D01*
X176756692Y-63505635D01*
X176976496Y-63446739D01*
X177182734Y-63350568D01*
X177369139Y-63220047D01*
X177530047Y-63059139D01*
X177660568Y-62872734D01*
X177687618Y-62814724D01*
X177733790Y-62762285D01*
X177800983Y-62743133D01*
X177867865Y-62763348D01*
X177912382Y-62814725D01*
X177939429Y-62872728D01*
X177939432Y-62872734D01*
X178069954Y-63059141D01*
X178230858Y-63220045D01*
X178230861Y-63220047D01*
X178417266Y-63350568D01*
X178623504Y-63446739D01*
X178623509Y-63446740D01*
X178623511Y-63446741D01*
X178660821Y-63456738D01*
X178843308Y-63505635D01*
X179005230Y-63519801D01*
X179069998Y-63525468D01*
X179070000Y-63525468D01*
X179070002Y-63525468D01*
X179126673Y-63520509D01*
X179296692Y-63505635D01*
X179516496Y-63446739D01*
X179722734Y-63350568D01*
X179909139Y-63220047D01*
X180070047Y-63059139D01*
X180200568Y-62872734D01*
X180227618Y-62814724D01*
X180273790Y-62762285D01*
X180340983Y-62743133D01*
X180407865Y-62763348D01*
X180452382Y-62814725D01*
X180479429Y-62872728D01*
X180479432Y-62872734D01*
X180609954Y-63059141D01*
X180770858Y-63220045D01*
X180770861Y-63220047D01*
X180957266Y-63350568D01*
X181163504Y-63446739D01*
X181163509Y-63446740D01*
X181163511Y-63446741D01*
X181200821Y-63456738D01*
X181383308Y-63505635D01*
X181545230Y-63519801D01*
X181609998Y-63525468D01*
X181610000Y-63525468D01*
X181610002Y-63525468D01*
X181666673Y-63520509D01*
X181836692Y-63505635D01*
X182056496Y-63446739D01*
X182262734Y-63350568D01*
X182449139Y-63220047D01*
X182610047Y-63059139D01*
X182740568Y-62872734D01*
X182767895Y-62814129D01*
X182814064Y-62761695D01*
X182881257Y-62742542D01*
X182948139Y-62762757D01*
X182992657Y-62814133D01*
X183019865Y-62872482D01*
X183150342Y-63058820D01*
X183311179Y-63219657D01*
X183497517Y-63350134D01*
X183703673Y-63446265D01*
X183703682Y-63446269D01*
X183899999Y-63498872D01*
X183900000Y-63498871D01*
X183900000Y-62535686D01*
X183911955Y-62547641D01*
X184024852Y-62605165D01*
X184118519Y-62620000D01*
X184181481Y-62620000D01*
X184275148Y-62605165D01*
X184388045Y-62547641D01*
X184400000Y-62535686D01*
X184400000Y-63498872D01*
X184596317Y-63446269D01*
X184596326Y-63446265D01*
X184802482Y-63350134D01*
X184988820Y-63219657D01*
X185149657Y-63058820D01*
X185280134Y-62872482D01*
X185376265Y-62666326D01*
X185376269Y-62666317D01*
X185428872Y-62470000D01*
X184465686Y-62470000D01*
X184477641Y-62458045D01*
X184535165Y-62345148D01*
X184554986Y-62220000D01*
X184535165Y-62094852D01*
X184477641Y-61981955D01*
X184465686Y-61970000D01*
X185428872Y-61970000D01*
X185428872Y-61969999D01*
X185376269Y-61773682D01*
X185376265Y-61773673D01*
X185280134Y-61567517D01*
X185149657Y-61381179D01*
X184988820Y-61220342D01*
X184802482Y-61089865D01*
X184596328Y-60993734D01*
X184400000Y-60941127D01*
X184400000Y-61904314D01*
X184388045Y-61892359D01*
X184275148Y-61834835D01*
X184181481Y-61820000D01*
X184118519Y-61820000D01*
X184024852Y-61834835D01*
X183911955Y-61892359D01*
X183900000Y-61904314D01*
X183900000Y-60941127D01*
X183703671Y-60993734D01*
X183497517Y-61089865D01*
X183311179Y-61220342D01*
X183150342Y-61381179D01*
X183019867Y-61567515D01*
X182992657Y-61625867D01*
X182946484Y-61678306D01*
X182879290Y-61697457D01*
X182812409Y-61677241D01*
X182767893Y-61625865D01*
X182745349Y-61577520D01*
X182740568Y-61567266D01*
X182610047Y-61380861D01*
X182610045Y-61380858D01*
X182449141Y-61219954D01*
X182262734Y-61089432D01*
X182262732Y-61089431D01*
X182056497Y-60993261D01*
X182056488Y-60993258D01*
X181836697Y-60934366D01*
X181836693Y-60934365D01*
X181836692Y-60934365D01*
X181836691Y-60934364D01*
X181836686Y-60934364D01*
X181610002Y-60914532D01*
X181609998Y-60914532D01*
X181383313Y-60934364D01*
X181383302Y-60934366D01*
X181163511Y-60993258D01*
X181163502Y-60993261D01*
X180957267Y-61089431D01*
X180957265Y-61089432D01*
X180770858Y-61219954D01*
X180609954Y-61380858D01*
X180479432Y-61567265D01*
X180479431Y-61567267D01*
X180452382Y-61625275D01*
X180406209Y-61677714D01*
X180339016Y-61696866D01*
X180272135Y-61676650D01*
X180227618Y-61625275D01*
X180207069Y-61581208D01*
X180200568Y-61567266D01*
X180077047Y-61390858D01*
X180070048Y-61380862D01*
X180034351Y-61345165D01*
X179909139Y-61219953D01*
X179823376Y-61159901D01*
X179779751Y-61105324D01*
X179770500Y-61058326D01*
X179770500Y-56007896D01*
X179779385Y-55961803D01*
X179779445Y-55961653D01*
X179780725Y-55958457D01*
X179820500Y-55752085D01*
X179820500Y-55044575D01*
X179809873Y-54933286D01*
X179823097Y-54864680D01*
X179871312Y-54814113D01*
X179933312Y-54797500D01*
X183295481Y-54797500D01*
X183362520Y-54817185D01*
X183383162Y-54833819D01*
X190448972Y-61899629D01*
X190482457Y-61960952D01*
X190484819Y-61998117D01*
X190464532Y-62229998D01*
X190464532Y-62230001D01*
X190484364Y-62456686D01*
X190484366Y-62456697D01*
X190543258Y-62676488D01*
X190543261Y-62676497D01*
X190639431Y-62882732D01*
X190639432Y-62882734D01*
X190769954Y-63069141D01*
X190930858Y-63230045D01*
X190930861Y-63230047D01*
X191117266Y-63360568D01*
X191323504Y-63456739D01*
X191543308Y-63515635D01*
X191705230Y-63529801D01*
X191769998Y-63535468D01*
X191770000Y-63535468D01*
X191770002Y-63535468D01*
X191826673Y-63530509D01*
X191996692Y-63515635D01*
X192216496Y-63456739D01*
X192422734Y-63360568D01*
X192609139Y-63230047D01*
X192770047Y-63069139D01*
X192900568Y-62882734D01*
X192927895Y-62824129D01*
X192974064Y-62771695D01*
X193041257Y-62752542D01*
X193108139Y-62772757D01*
X193152657Y-62824133D01*
X193179865Y-62882482D01*
X193310342Y-63068820D01*
X193471179Y-63229657D01*
X193657517Y-63360134D01*
X193863673Y-63456265D01*
X193863682Y-63456269D01*
X194059999Y-63508872D01*
X194060000Y-63508871D01*
X194060000Y-62545686D01*
X194071955Y-62557641D01*
X194184852Y-62615165D01*
X194278519Y-62630000D01*
X194341481Y-62630000D01*
X194435148Y-62615165D01*
X194548045Y-62557641D01*
X194560000Y-62545686D01*
X194560000Y-63508872D01*
X194756317Y-63456269D01*
X194756326Y-63456265D01*
X194962482Y-63360134D01*
X195148820Y-63229657D01*
X195309657Y-63068820D01*
X195440132Y-62882484D01*
X195467341Y-62824134D01*
X195513513Y-62771695D01*
X195580707Y-62752542D01*
X195647588Y-62772757D01*
X195692106Y-62824133D01*
X195719431Y-62882732D01*
X195719432Y-62882734D01*
X195849954Y-63069141D01*
X196010858Y-63230045D01*
X196010861Y-63230047D01*
X196197266Y-63360568D01*
X196403504Y-63456739D01*
X196623308Y-63515635D01*
X196785230Y-63529801D01*
X196849998Y-63535468D01*
X196850000Y-63535468D01*
X196850002Y-63535468D01*
X196906673Y-63530509D01*
X197076692Y-63515635D01*
X197296496Y-63456739D01*
X197502734Y-63360568D01*
X197689139Y-63230047D01*
X197850047Y-63069139D01*
X197980568Y-62882734D01*
X198007618Y-62824724D01*
X198053790Y-62772285D01*
X198120983Y-62753133D01*
X198187865Y-62773348D01*
X198232382Y-62824725D01*
X198259429Y-62882728D01*
X198259432Y-62882734D01*
X198389954Y-63069141D01*
X198550858Y-63230045D01*
X198550861Y-63230047D01*
X198737266Y-63360568D01*
X198943504Y-63456739D01*
X199163308Y-63515635D01*
X199325230Y-63529801D01*
X199389998Y-63535468D01*
X199390000Y-63535468D01*
X199390002Y-63535468D01*
X199446673Y-63530509D01*
X199616692Y-63515635D01*
X199836496Y-63456739D01*
X200042734Y-63360568D01*
X200229139Y-63230047D01*
X200390047Y-63069139D01*
X200520568Y-62882734D01*
X200547618Y-62824724D01*
X200593790Y-62772285D01*
X200660983Y-62753133D01*
X200727865Y-62773348D01*
X200772382Y-62824725D01*
X200799429Y-62882728D01*
X200799432Y-62882734D01*
X200929954Y-63069141D01*
X201090858Y-63230045D01*
X201090861Y-63230047D01*
X201277266Y-63360568D01*
X201483504Y-63456739D01*
X201703308Y-63515635D01*
X201865230Y-63529801D01*
X201929998Y-63535468D01*
X201930000Y-63535468D01*
X201930002Y-63535468D01*
X201986673Y-63530509D01*
X202156692Y-63515635D01*
X202376496Y-63456739D01*
X202582734Y-63360568D01*
X202769139Y-63230047D01*
X202930047Y-63069139D01*
X203060568Y-62882734D01*
X203087618Y-62824724D01*
X203133790Y-62772285D01*
X203200983Y-62753133D01*
X203267865Y-62773348D01*
X203312382Y-62824725D01*
X203339429Y-62882728D01*
X203339432Y-62882734D01*
X203469954Y-63069141D01*
X203630858Y-63230045D01*
X203630861Y-63230047D01*
X203817266Y-63360568D01*
X204023504Y-63456739D01*
X204243308Y-63515635D01*
X204405230Y-63529801D01*
X204469998Y-63535468D01*
X204470000Y-63535468D01*
X204470002Y-63535468D01*
X204526673Y-63530509D01*
X204696692Y-63515635D01*
X204916496Y-63456739D01*
X205122734Y-63360568D01*
X205309139Y-63230047D01*
X205470047Y-63069139D01*
X205600568Y-62882734D01*
X205627618Y-62824724D01*
X205673790Y-62772285D01*
X205740983Y-62753133D01*
X205807865Y-62773348D01*
X205852382Y-62824725D01*
X205879429Y-62882728D01*
X205879432Y-62882734D01*
X206009954Y-63069141D01*
X206170858Y-63230045D01*
X206170861Y-63230047D01*
X206357266Y-63360568D01*
X206563504Y-63456739D01*
X206783308Y-63515635D01*
X206945230Y-63529801D01*
X207009998Y-63535468D01*
X207010000Y-63535468D01*
X207010002Y-63535468D01*
X207066673Y-63530509D01*
X207236692Y-63515635D01*
X207456496Y-63456739D01*
X207662734Y-63360568D01*
X207849139Y-63230047D01*
X208010047Y-63069139D01*
X208140568Y-62882734D01*
X208167895Y-62824129D01*
X208214064Y-62771695D01*
X208281257Y-62752542D01*
X208348139Y-62772757D01*
X208392657Y-62824133D01*
X208419865Y-62882482D01*
X208550342Y-63068820D01*
X208711179Y-63229657D01*
X208897517Y-63360134D01*
X209103673Y-63456265D01*
X209103682Y-63456269D01*
X209299999Y-63508872D01*
X209300000Y-63508871D01*
X209300000Y-62545686D01*
X209311955Y-62557641D01*
X209424852Y-62615165D01*
X209518519Y-62630000D01*
X209581481Y-62630000D01*
X209675148Y-62615165D01*
X209788045Y-62557641D01*
X209800000Y-62545686D01*
X209800000Y-63508872D01*
X209996317Y-63456269D01*
X209996326Y-63456265D01*
X210203580Y-63359622D01*
X210272658Y-63349130D01*
X210336442Y-63377650D01*
X210343666Y-63384323D01*
X214657096Y-67697753D01*
X214690581Y-67759076D01*
X214685597Y-67828768D01*
X214665604Y-67863688D01*
X214549944Y-68005854D01*
X214400634Y-68251382D01*
X214286158Y-68514935D01*
X214286158Y-68514936D01*
X214286156Y-68514939D01*
X214286156Y-68514942D01*
X214272308Y-68564366D01*
X214208630Y-68791635D01*
X214208629Y-68791642D01*
X214178498Y-69010861D01*
X214169500Y-69076322D01*
X214169500Y-69363678D01*
X214203988Y-69614596D01*
X214208629Y-69648357D01*
X214208630Y-69648364D01*
X214244984Y-69778111D01*
X214286156Y-69925058D01*
X214286157Y-69925061D01*
X214286158Y-69925063D01*
X214286158Y-69925064D01*
X214400634Y-70188617D01*
X214549944Y-70434146D01*
X214616627Y-70516110D01*
X214731292Y-70657053D01*
X214800191Y-70721400D01*
X214941299Y-70853187D01*
X214991324Y-70888498D01*
X215176064Y-71018901D01*
X215431203Y-71151104D01*
X215701968Y-71247334D01*
X215983314Y-71305798D01*
X216198248Y-71320500D01*
X216198255Y-71320500D01*
X218141745Y-71320500D01*
X218141752Y-71320500D01*
X218356686Y-71305798D01*
X218638032Y-71247334D01*
X218908797Y-71151104D01*
X219163936Y-71018901D01*
X219398698Y-70853189D01*
X219608708Y-70657053D01*
X219790055Y-70434147D01*
X219939361Y-70188625D01*
X219939363Y-70188620D01*
X219939365Y-70188617D01*
X220053841Y-69925064D01*
X220053844Y-69925058D01*
X220131371Y-69648358D01*
X220170500Y-69363678D01*
X220170500Y-69076322D01*
X220131371Y-68791642D01*
X220053844Y-68514942D01*
X220044896Y-68494341D01*
X219939365Y-68251382D01*
X219790055Y-68005853D01*
X219716496Y-67915437D01*
X219608708Y-67782947D01*
X219489831Y-67671923D01*
X219398700Y-67586812D01*
X219163935Y-67421098D01*
X218908793Y-67288894D01*
X218638037Y-67192667D01*
X218638034Y-67192666D01*
X218461509Y-67155984D01*
X218356686Y-67134202D01*
X218356684Y-67134201D01*
X218356680Y-67134201D01*
X218238070Y-67126088D01*
X218141752Y-67119500D01*
X216198248Y-67119500D01*
X216167891Y-67121576D01*
X216125261Y-67124492D01*
X216057034Y-67109428D01*
X216029119Y-67088462D01*
X216016707Y-67076050D01*
X215983222Y-67014727D01*
X215988206Y-66945035D01*
X216030078Y-66889102D01*
X216095542Y-66864685D01*
X216112841Y-66864658D01*
X216198248Y-66870500D01*
X216198255Y-66870500D01*
X218141745Y-66870500D01*
X218141752Y-66870500D01*
X218356686Y-66855798D01*
X218638032Y-66797334D01*
X218908797Y-66701104D01*
X219163936Y-66568901D01*
X219398698Y-66403189D01*
X219608708Y-66207053D01*
X219790055Y-65984147D01*
X219939361Y-65738625D01*
X219939363Y-65738620D01*
X219939365Y-65738617D01*
X220053841Y-65475064D01*
X220053844Y-65475058D01*
X220131371Y-65198358D01*
X220170500Y-64913678D01*
X220170500Y-64626322D01*
X220131371Y-64341642D01*
X220053844Y-64064942D01*
X220019046Y-63984829D01*
X219939365Y-63801382D01*
X219909486Y-63752249D01*
X219790055Y-63555853D01*
X219608708Y-63332947D01*
X219462708Y-63196592D01*
X219398700Y-63136812D01*
X219163935Y-62971098D01*
X218908793Y-62838894D01*
X218638037Y-62742667D01*
X218638034Y-62742666D01*
X218461509Y-62705984D01*
X218356686Y-62684202D01*
X218356684Y-62684201D01*
X218356680Y-62684201D01*
X218238070Y-62676088D01*
X218141752Y-62669500D01*
X218141745Y-62669500D01*
X217264500Y-62669500D01*
X217197461Y-62649815D01*
X217151706Y-62597011D01*
X217140500Y-62545500D01*
X217140500Y-57239797D01*
X217160185Y-57172758D01*
X217199403Y-57134258D01*
X217258656Y-57097712D01*
X217382712Y-56973656D01*
X217422094Y-56909806D01*
X217474040Y-56863083D01*
X217543003Y-56851860D01*
X217607085Y-56879703D01*
X217625102Y-56898251D01*
X217640272Y-56917541D01*
X217799030Y-57055105D01*
X217799041Y-57055114D01*
X217980960Y-57160144D01*
X217980967Y-57160147D01*
X218179487Y-57228856D01*
X218190000Y-57230367D01*
X218190000Y-56160617D01*
X218259052Y-56214363D01*
X218377424Y-56255000D01*
X218471073Y-56255000D01*
X218563446Y-56239586D01*
X218673514Y-56180019D01*
X218690000Y-56162110D01*
X218690000Y-57226257D01*
X218801409Y-57199229D01*
X218992507Y-57111959D01*
X219163619Y-56990110D01*
X219163625Y-56990104D01*
X219308592Y-56838067D01*
X219422166Y-56661342D01*
X219500244Y-56466314D01*
X219540000Y-56260037D01*
X219540000Y-56130000D01*
X218719560Y-56130000D01*
X218758278Y-56087941D01*
X218808551Y-55973330D01*
X218818886Y-55848605D01*
X218788163Y-55727281D01*
X218724606Y-55630000D01*
X219540000Y-55630000D01*
X219540000Y-55552601D01*
X219525034Y-55395877D01*
X219525033Y-55395873D01*
X219465850Y-55194313D01*
X219369586Y-55007585D01*
X219239731Y-54842462D01*
X219239728Y-54842459D01*
X219080969Y-54704894D01*
X219080958Y-54704885D01*
X218899039Y-54599855D01*
X218899032Y-54599852D01*
X218700516Y-54531144D01*
X218690000Y-54529632D01*
X218690000Y-55599382D01*
X218620948Y-55545637D01*
X218502576Y-55505000D01*
X218408927Y-55505000D01*
X218316554Y-55520414D01*
X218206486Y-55579981D01*
X218190000Y-55597889D01*
X218190000Y-54533740D01*
X218189999Y-54533740D01*
X218078594Y-54560768D01*
X218078582Y-54560772D01*
X217887497Y-54648037D01*
X217887496Y-54648038D01*
X217716380Y-54769889D01*
X217716374Y-54769895D01*
X217618520Y-54872522D01*
X217558011Y-54907457D01*
X217488220Y-54904132D01*
X217431306Y-54863604D01*
X217423238Y-54852048D01*
X217417325Y-54842462D01*
X217382712Y-54786344D01*
X217258656Y-54662288D01*
X217109334Y-54570186D01*
X216942797Y-54515001D01*
X216942795Y-54515000D01*
X216840010Y-54504500D01*
X216039998Y-54504500D01*
X216039980Y-54504501D01*
X215937203Y-54515000D01*
X215937200Y-54515001D01*
X215770668Y-54570185D01*
X215770663Y-54570187D01*
X215621342Y-54662289D01*
X215497289Y-54786342D01*
X215405187Y-54935663D01*
X215405185Y-54935668D01*
X215383013Y-55002580D01*
X215350001Y-55102203D01*
X215350001Y-55102204D01*
X215350000Y-55102204D01*
X215339500Y-55204983D01*
X215339500Y-56555001D01*
X215339501Y-56555018D01*
X215350000Y-56657796D01*
X215350001Y-56657799D01*
X215405185Y-56824331D01*
X215405187Y-56824336D01*
X215422164Y-56851860D01*
X215497288Y-56973656D01*
X215621344Y-57097712D01*
X215680596Y-57134258D01*
X215727321Y-57186204D01*
X215739500Y-57239797D01*
X215739500Y-62641798D01*
X215719815Y-62708837D01*
X215667011Y-62754592D01*
X215657025Y-62758638D01*
X215431206Y-62838894D01*
X215176064Y-62971098D01*
X214941299Y-63136812D01*
X214731289Y-63332950D01*
X214549944Y-63555853D01*
X214400634Y-63801382D01*
X214286158Y-64064935D01*
X214286158Y-64064936D01*
X214208630Y-64341635D01*
X214208629Y-64341642D01*
X214169500Y-64626321D01*
X214169500Y-64913679D01*
X214169513Y-64913774D01*
X214169508Y-64913804D01*
X214169789Y-64917906D01*
X214168882Y-64917967D01*
X214159133Y-64982868D01*
X214113047Y-65035383D01*
X214045884Y-65054645D01*
X213978970Y-65034538D01*
X213958985Y-65018328D01*
X211486819Y-62546162D01*
X211453334Y-62484839D01*
X211450500Y-62458481D01*
X211450500Y-57612920D01*
X211450726Y-57605432D01*
X211454358Y-57545394D01*
X211443514Y-57486221D01*
X211442387Y-57478815D01*
X211442128Y-57476689D01*
X211435140Y-57419128D01*
X211431548Y-57409656D01*
X211425521Y-57388034D01*
X211423695Y-57378071D01*
X211423693Y-57378063D01*
X211399009Y-57323221D01*
X211396154Y-57316331D01*
X211374818Y-57260070D01*
X211369062Y-57251731D01*
X211358034Y-57232177D01*
X211353880Y-57222946D01*
X211335299Y-57199229D01*
X211316780Y-57175591D01*
X211312352Y-57169573D01*
X211305846Y-57160147D01*
X211278183Y-57120071D01*
X211233153Y-57080178D01*
X211227715Y-57075058D01*
X206468750Y-52316093D01*
X219696636Y-52316093D01*
X219703961Y-52390465D01*
X219704558Y-52402619D01*
X219704558Y-52416697D01*
X219704559Y-52416700D01*
X219707304Y-52430503D01*
X219709088Y-52442532D01*
X219716415Y-52516913D01*
X219738109Y-52588433D01*
X219741063Y-52600226D01*
X219743810Y-52614031D01*
X219743811Y-52614035D01*
X219743812Y-52614038D01*
X219747084Y-52621937D01*
X219749202Y-52627051D01*
X219753295Y-52638491D01*
X219774992Y-52710015D01*
X219774994Y-52710020D01*
X219810218Y-52775919D01*
X219815420Y-52786918D01*
X219820805Y-52799919D01*
X219820815Y-52799937D01*
X219828629Y-52811631D01*
X219834884Y-52822065D01*
X219845746Y-52842388D01*
X219870113Y-52887976D01*
X219870115Y-52887979D01*
X219917522Y-52945744D01*
X219924770Y-52955517D01*
X219932591Y-52967222D01*
X219932595Y-52967227D01*
X219942545Y-52977176D01*
X219950721Y-52986196D01*
X219998129Y-53043964D01*
X220007763Y-53051870D01*
X220055895Y-53091371D01*
X220055897Y-53091372D01*
X220064914Y-53099545D01*
X220074869Y-53109500D01*
X220086585Y-53117328D01*
X220096341Y-53124564D01*
X220129600Y-53151859D01*
X220154113Y-53171977D01*
X220154114Y-53171977D01*
X220154116Y-53171979D01*
X220191156Y-53191777D01*
X220220030Y-53207211D01*
X220230469Y-53213469D01*
X220242159Y-53221280D01*
X220242161Y-53221281D01*
X220242166Y-53221284D01*
X220255181Y-53226675D01*
X220266160Y-53231868D01*
X220332079Y-53267102D01*
X220403605Y-53288799D01*
X220415045Y-53292892D01*
X220428056Y-53298282D01*
X220435049Y-53299673D01*
X220441865Y-53301029D01*
X220453659Y-53303983D01*
X220525181Y-53325679D01*
X220525180Y-53325679D01*
X220546137Y-53327743D01*
X220599556Y-53333004D01*
X220611586Y-53334788D01*
X220625397Y-53337536D01*
X220639474Y-53337536D01*
X220651628Y-53338133D01*
X220726000Y-53345458D01*
X220800372Y-53338133D01*
X220812526Y-53337536D01*
X220826601Y-53337536D01*
X220826603Y-53337536D01*
X220840428Y-53334785D01*
X220852432Y-53333005D01*
X220926819Y-53325679D01*
X220998364Y-53303975D01*
X221010109Y-53301033D01*
X221023944Y-53298282D01*
X221036968Y-53292887D01*
X221048376Y-53288804D01*
X221119921Y-53267102D01*
X221121233Y-53266401D01*
X221133208Y-53260000D01*
X221185853Y-53231860D01*
X221196818Y-53226675D01*
X221209834Y-53221284D01*
X221221553Y-53213453D01*
X221231937Y-53207227D01*
X221297884Y-53171979D01*
X221355671Y-53124554D01*
X221365411Y-53117330D01*
X221377131Y-53109500D01*
X221387090Y-53099540D01*
X221396086Y-53091385D01*
X221453870Y-53043964D01*
X221501291Y-52986180D01*
X221509446Y-52977184D01*
X221519406Y-52967225D01*
X221527236Y-52955505D01*
X221534460Y-52945765D01*
X221581885Y-52887978D01*
X221617133Y-52822031D01*
X221623359Y-52811647D01*
X221631190Y-52799928D01*
X221636581Y-52786912D01*
X221641766Y-52775947D01*
X221677008Y-52710015D01*
X221698710Y-52638470D01*
X221702793Y-52627062D01*
X221708188Y-52614038D01*
X221710939Y-52600203D01*
X221713881Y-52588458D01*
X221735585Y-52516913D01*
X221742911Y-52442532D01*
X221744696Y-52430501D01*
X221747441Y-52416700D01*
X221747442Y-52416697D01*
X221747988Y-52394376D01*
X221748542Y-52385351D01*
X221755364Y-52316094D01*
X221748543Y-52246841D01*
X221747988Y-52237807D01*
X221747442Y-52215491D01*
X221744694Y-52201680D01*
X221742910Y-52189649D01*
X221735585Y-52115275D01*
X221735584Y-52115271D01*
X221713889Y-52043753D01*
X221710935Y-52031959D01*
X221708189Y-52018156D01*
X221708188Y-52018150D01*
X221702798Y-52005139D01*
X221698702Y-51993690D01*
X221677008Y-51922173D01*
X221641774Y-51856254D01*
X221636581Y-51845275D01*
X221631190Y-51832260D01*
X221631187Y-51832255D01*
X221631186Y-51832253D01*
X221631187Y-51832253D01*
X221623375Y-51820563D01*
X221617117Y-51810124D01*
X221586111Y-51752116D01*
X221581885Y-51744210D01*
X221581883Y-51744208D01*
X221581883Y-51744207D01*
X221561765Y-51719694D01*
X221534470Y-51686435D01*
X221527234Y-51676679D01*
X221519406Y-51664963D01*
X221509448Y-51655005D01*
X221501278Y-51645991D01*
X221453870Y-51588223D01*
X221396102Y-51540815D01*
X221387082Y-51532639D01*
X221377133Y-51522689D01*
X221377128Y-51522685D01*
X221365423Y-51514864D01*
X221355650Y-51507616D01*
X221297885Y-51460209D01*
X221297882Y-51460207D01*
X221246770Y-51432888D01*
X221231971Y-51424978D01*
X221221537Y-51418723D01*
X221209843Y-51410909D01*
X221209825Y-51410899D01*
X221196824Y-51405514D01*
X221185825Y-51400312D01*
X221119926Y-51365088D01*
X221119923Y-51365087D01*
X221119921Y-51365086D01*
X221048397Y-51343389D01*
X221036957Y-51339296D01*
X221033498Y-51337863D01*
X221023944Y-51333906D01*
X221023941Y-51333905D01*
X221023937Y-51333904D01*
X221010132Y-51331157D01*
X220998339Y-51328203D01*
X220926819Y-51306509D01*
X220852438Y-51299182D01*
X220840409Y-51297398D01*
X220836757Y-51296671D01*
X220826603Y-51294652D01*
X220826600Y-51294652D01*
X220812526Y-51294652D01*
X220800372Y-51294055D01*
X220726000Y-51286730D01*
X220651628Y-51294055D01*
X220639474Y-51294652D01*
X220625400Y-51294652D01*
X220625397Y-51294652D01*
X220615242Y-51296671D01*
X220611591Y-51297398D01*
X220599562Y-51299182D01*
X220525179Y-51306509D01*
X220525177Y-51306509D01*
X220453662Y-51328202D01*
X220441874Y-51331156D01*
X220428055Y-51333906D01*
X220428047Y-51333908D01*
X220415050Y-51339292D01*
X220403598Y-51343390D01*
X220332075Y-51365087D01*
X220266160Y-51400318D01*
X220255171Y-51405516D01*
X220242169Y-51410902D01*
X220242158Y-51410908D01*
X220230461Y-51418724D01*
X220220028Y-51424977D01*
X220154114Y-51460209D01*
X220096342Y-51507622D01*
X220086570Y-51514869D01*
X220074875Y-51522683D01*
X220074864Y-51522692D01*
X220064911Y-51532645D01*
X220055899Y-51540813D01*
X219998130Y-51588224D01*
X219950719Y-51645993D01*
X219942551Y-51655005D01*
X219932598Y-51664958D01*
X219932589Y-51664969D01*
X219924775Y-51676664D01*
X219917528Y-51686436D01*
X219870115Y-51744208D01*
X219834883Y-51810122D01*
X219828630Y-51820555D01*
X219820814Y-51832252D01*
X219820808Y-51832263D01*
X219815422Y-51845265D01*
X219810224Y-51856254D01*
X219774993Y-51922169D01*
X219753296Y-51993692D01*
X219749198Y-52005144D01*
X219743814Y-52018141D01*
X219743812Y-52018149D01*
X219741062Y-52031968D01*
X219738108Y-52043756D01*
X219716415Y-52115271D01*
X219716415Y-52115273D01*
X219709088Y-52189656D01*
X219707304Y-52201685D01*
X219704558Y-52215493D01*
X219704558Y-52229567D01*
X219703961Y-52241721D01*
X219696636Y-52316093D01*
X206468750Y-52316093D01*
X205490940Y-51338283D01*
X205485805Y-51332828D01*
X205445929Y-51287816D01*
X205445924Y-51287812D01*
X205396438Y-51253655D01*
X205390403Y-51249215D01*
X205343060Y-51212124D01*
X205343055Y-51212120D01*
X205333813Y-51207961D01*
X205314266Y-51196936D01*
X205312657Y-51195826D01*
X205305930Y-51191182D01*
X205249694Y-51169854D01*
X205242790Y-51166994D01*
X205187932Y-51142305D01*
X205187930Y-51142304D01*
X205177946Y-51140474D01*
X205156343Y-51134451D01*
X205146874Y-51130860D01*
X205146871Y-51130859D01*
X205087171Y-51123610D01*
X205079770Y-51122483D01*
X205020609Y-51111642D01*
X205020603Y-51111642D01*
X204960567Y-51115274D01*
X204953079Y-51115500D01*
X185942910Y-51115500D01*
X185935423Y-51115274D01*
X185875396Y-51111643D01*
X185875389Y-51111643D01*
X185816243Y-51122481D01*
X185808843Y-51123608D01*
X185749125Y-51130860D01*
X185739642Y-51134456D01*
X185718038Y-51140478D01*
X185716535Y-51140754D01*
X185708065Y-51142306D01*
X185653229Y-51166986D01*
X185646313Y-51169851D01*
X185617701Y-51180702D01*
X185590070Y-51191182D01*
X185590068Y-51191183D01*
X185590066Y-51191184D01*
X185590061Y-51191186D01*
X185581722Y-51196942D01*
X185562190Y-51207959D01*
X185552946Y-51212120D01*
X185552944Y-51212121D01*
X185552943Y-51212122D01*
X185524580Y-51234342D01*
X185505597Y-51249214D01*
X185499569Y-51253649D01*
X185450068Y-51287819D01*
X185410183Y-51332838D01*
X185405051Y-51338290D01*
X183383162Y-53360181D01*
X183321839Y-53393666D01*
X183295481Y-53396500D01*
X172118755Y-53396500D01*
X172111267Y-53396274D01*
X172051230Y-53392642D01*
X172051222Y-53392642D01*
X171992061Y-53403483D01*
X171984661Y-53404610D01*
X171924962Y-53411860D01*
X171924955Y-53411861D01*
X171915481Y-53415454D01*
X171893883Y-53421475D01*
X171883903Y-53423304D01*
X171829061Y-53447987D01*
X171822143Y-53450852D01*
X171765906Y-53472181D01*
X171765900Y-53472184D01*
X171757556Y-53477943D01*
X171738021Y-53488961D01*
X171728781Y-53493120D01*
X171728779Y-53493121D01*
X171681443Y-53530205D01*
X171675416Y-53534639D01*
X171625904Y-53568817D01*
X171625902Y-53568819D01*
X171586017Y-53613838D01*
X171580885Y-53619290D01*
X166404647Y-58795528D01*
X166343324Y-58829013D01*
X166273632Y-58824029D01*
X166229285Y-58795528D01*
X164239969Y-56806212D01*
X164230146Y-56793950D01*
X164229925Y-56794134D01*
X164224952Y-56788122D01*
X164175942Y-56742099D01*
X164173143Y-56739386D01*
X164153643Y-56719885D01*
X164153637Y-56719880D01*
X164150452Y-56717409D01*
X164141600Y-56709848D01*
X164109748Y-56679938D01*
X164109746Y-56679936D01*
X164109743Y-56679935D01*
X164092195Y-56670288D01*
X164075929Y-56659604D01*
X164073599Y-56657797D01*
X164060102Y-56647327D01*
X164060101Y-56647326D01*
X164060098Y-56647324D01*
X164020015Y-56629978D01*
X164009529Y-56624841D01*
X163971260Y-56603803D01*
X163971258Y-56603802D01*
X163951859Y-56598822D01*
X163933447Y-56592518D01*
X163915064Y-56584562D01*
X163915058Y-56584560D01*
X163871926Y-56577729D01*
X163860488Y-56575361D01*
X163818186Y-56564500D01*
X163818185Y-56564500D01*
X163798150Y-56564500D01*
X163778752Y-56562973D01*
X163771328Y-56561797D01*
X163758971Y-56559840D01*
X163758970Y-56559840D01*
X163715491Y-56563950D01*
X163703822Y-56564500D01*
X162714499Y-56564500D01*
X162647460Y-56544815D01*
X162601705Y-56492011D01*
X162590499Y-56440500D01*
X162590499Y-56342129D01*
X162590498Y-56342123D01*
X162590497Y-56342116D01*
X162584328Y-56284722D01*
X162584091Y-56282516D01*
X162533797Y-56147671D01*
X162533793Y-56147664D01*
X162447547Y-56032455D01*
X162447544Y-56032452D01*
X162332335Y-55946206D01*
X162332328Y-55946202D01*
X162197482Y-55895908D01*
X162197483Y-55895908D01*
X162137883Y-55889501D01*
X162137881Y-55889500D01*
X162137873Y-55889500D01*
X162137864Y-55889500D01*
X160442129Y-55889500D01*
X160442123Y-55889501D01*
X160382516Y-55895908D01*
X160247671Y-55946202D01*
X160247664Y-55946206D01*
X160132455Y-56032452D01*
X160132452Y-56032455D01*
X160046206Y-56147664D01*
X160046202Y-56147671D01*
X159995908Y-56282517D01*
X159990763Y-56330378D01*
X159989501Y-56342123D01*
X159989500Y-56342135D01*
X159989500Y-56365500D01*
X159969815Y-56432539D01*
X159917011Y-56478294D01*
X159865500Y-56489500D01*
X155094499Y-56489500D01*
X155027460Y-56469815D01*
X154981705Y-56417011D01*
X154970499Y-56365500D01*
X154970499Y-56342129D01*
X154970498Y-56342123D01*
X154970497Y-56342116D01*
X154964328Y-56284722D01*
X154964091Y-56282516D01*
X154913797Y-56147671D01*
X154913793Y-56147664D01*
X154827547Y-56032455D01*
X154827544Y-56032452D01*
X154712335Y-55946206D01*
X154712328Y-55946202D01*
X154577482Y-55895908D01*
X154577483Y-55895908D01*
X154517883Y-55889501D01*
X154517881Y-55889500D01*
X154517873Y-55889500D01*
X154517864Y-55889500D01*
X152822129Y-55889500D01*
X152822123Y-55889501D01*
X152762516Y-55895908D01*
X152627671Y-55946202D01*
X152627664Y-55946206D01*
X152512455Y-56032452D01*
X152512452Y-56032455D01*
X152426206Y-56147664D01*
X152426202Y-56147671D01*
X152375908Y-56282517D01*
X152370763Y-56330378D01*
X152369501Y-56342123D01*
X152369500Y-56342135D01*
X152369500Y-56365500D01*
X152349815Y-56432539D01*
X152297011Y-56478294D01*
X152245500Y-56489500D01*
X148619499Y-56489500D01*
X148552460Y-56469815D01*
X148506705Y-56417011D01*
X148495499Y-56365500D01*
X148495499Y-56237129D01*
X148495498Y-56237123D01*
X148495497Y-56237116D01*
X148489091Y-56177517D01*
X148482993Y-56161168D01*
X148438797Y-56042671D01*
X148438793Y-56042664D01*
X148352547Y-55927455D01*
X148352544Y-55927452D01*
X148237335Y-55841206D01*
X148237328Y-55841202D01*
X148102482Y-55790908D01*
X148102483Y-55790908D01*
X148042883Y-55784501D01*
X148042881Y-55784500D01*
X148042873Y-55784500D01*
X148042864Y-55784500D01*
X146597129Y-55784500D01*
X146597123Y-55784501D01*
X146537516Y-55790908D01*
X146402671Y-55841202D01*
X146402664Y-55841206D01*
X146287455Y-55927452D01*
X146287452Y-55927455D01*
X146201206Y-56042664D01*
X146201202Y-56042671D01*
X146150908Y-56177517D01*
X146148203Y-56202682D01*
X146144501Y-56237123D01*
X146144500Y-56237135D01*
X146144500Y-56600546D01*
X146124815Y-56667585D01*
X146072011Y-56713340D01*
X146002853Y-56723284D01*
X145939297Y-56694259D01*
X145932819Y-56688227D01*
X145924477Y-56679885D01*
X145923780Y-56679344D01*
X145921286Y-56677409D01*
X145912434Y-56669848D01*
X145880582Y-56639938D01*
X145880580Y-56639936D01*
X145880577Y-56639935D01*
X145863029Y-56630288D01*
X145846763Y-56619604D01*
X145835160Y-56610604D01*
X145830936Y-56607327D01*
X145830935Y-56607326D01*
X145830932Y-56607324D01*
X145790849Y-56589978D01*
X145780363Y-56584841D01*
X145742094Y-56563803D01*
X145742092Y-56563802D01*
X145722693Y-56558822D01*
X145704281Y-56552518D01*
X145685898Y-56544562D01*
X145685892Y-56544560D01*
X145642760Y-56537729D01*
X145631322Y-56535361D01*
X145589020Y-56524500D01*
X145589019Y-56524500D01*
X145568984Y-56524500D01*
X145549586Y-56522973D01*
X145542162Y-56521797D01*
X145529805Y-56519840D01*
X145529804Y-56519840D01*
X145486325Y-56523950D01*
X145474656Y-56524500D01*
X106685227Y-56524500D01*
X106618188Y-56504815D01*
X106583652Y-56471623D01*
X106448496Y-56278600D01*
X106390279Y-56220383D01*
X106326179Y-56156283D01*
X106292696Y-56094963D01*
X106297680Y-56025271D01*
X106339551Y-55969337D01*
X106370529Y-55952422D01*
X106502086Y-55903354D01*
X106502093Y-55903350D01*
X106617187Y-55817190D01*
X106617190Y-55817187D01*
X106703350Y-55702093D01*
X106703354Y-55702086D01*
X106753596Y-55567379D01*
X106753598Y-55567372D01*
X106759999Y-55507844D01*
X106760000Y-55507827D01*
X106760000Y-54860000D01*
X105843686Y-54860000D01*
X105869493Y-54819844D01*
X105910000Y-54681889D01*
X105910000Y-54538111D01*
X105869493Y-54400156D01*
X105843686Y-54360000D01*
X106760000Y-54360000D01*
X106760000Y-53712172D01*
X106759999Y-53712155D01*
X106753598Y-53652627D01*
X106753596Y-53652620D01*
X106703354Y-53517913D01*
X106703350Y-53517906D01*
X106617190Y-53402812D01*
X106617187Y-53402809D01*
X106502093Y-53316649D01*
X106502086Y-53316645D01*
X106367379Y-53266403D01*
X106367372Y-53266401D01*
X106307844Y-53260000D01*
X105660000Y-53260000D01*
X105660000Y-54174498D01*
X105552315Y-54125320D01*
X105445763Y-54110000D01*
X105374237Y-54110000D01*
X105267685Y-54125320D01*
X105160000Y-54174498D01*
X105160000Y-53260000D01*
X104512155Y-53260000D01*
X104452627Y-53266401D01*
X104452620Y-53266403D01*
X104317913Y-53316645D01*
X104317906Y-53316649D01*
X104202812Y-53402809D01*
X104202809Y-53402812D01*
X104116649Y-53517906D01*
X104116645Y-53517913D01*
X104066403Y-53652620D01*
X104066401Y-53652627D01*
X104060000Y-53712155D01*
X104060000Y-54360000D01*
X104976314Y-54360000D01*
X104950507Y-54400156D01*
X104910000Y-54538111D01*
X104910000Y-54681889D01*
X104950507Y-54819844D01*
X104976314Y-54860000D01*
X104060000Y-54860000D01*
X104060000Y-55507844D01*
X104066401Y-55567372D01*
X104066403Y-55567379D01*
X104116645Y-55702086D01*
X104116649Y-55702093D01*
X104202809Y-55817187D01*
X104202812Y-55817190D01*
X104317906Y-55903350D01*
X104317913Y-55903354D01*
X104449470Y-55952421D01*
X104505403Y-55994292D01*
X104529821Y-56059756D01*
X104514970Y-56128029D01*
X104493819Y-56156284D01*
X104371503Y-56278600D01*
X104235965Y-56472169D01*
X104235964Y-56472171D01*
X104136098Y-56686335D01*
X104136094Y-56686344D01*
X104074938Y-56914586D01*
X104074936Y-56914596D01*
X104054341Y-57149999D01*
X104054341Y-57150000D01*
X104074936Y-57385403D01*
X104074938Y-57385413D01*
X104136094Y-57613655D01*
X104136096Y-57613659D01*
X104136097Y-57613663D01*
X104220742Y-57795185D01*
X104235965Y-57827830D01*
X104235967Y-57827834D01*
X104330604Y-57962989D01*
X104351300Y-57992546D01*
X104371501Y-58021395D01*
X104371506Y-58021402D01*
X104538597Y-58188493D01*
X104538603Y-58188498D01*
X104724158Y-58318425D01*
X104767783Y-58373002D01*
X104774977Y-58442500D01*
X104743454Y-58504855D01*
X104724158Y-58521575D01*
X104538597Y-58651505D01*
X104371505Y-58818597D01*
X104235965Y-59012169D01*
X104235964Y-59012171D01*
X104136098Y-59226335D01*
X104136094Y-59226344D01*
X104074938Y-59454586D01*
X104074936Y-59454596D01*
X104054341Y-59689999D01*
X104054341Y-59690000D01*
X104074936Y-59925403D01*
X104074938Y-59925413D01*
X104136094Y-60153655D01*
X104136096Y-60153659D01*
X104136097Y-60153663D01*
X104222424Y-60338791D01*
X104235965Y-60367830D01*
X104235967Y-60367834D01*
X104371501Y-60561395D01*
X104371506Y-60561402D01*
X104538597Y-60728493D01*
X104538603Y-60728498D01*
X104724158Y-60858425D01*
X104767783Y-60913002D01*
X104774977Y-60982500D01*
X104743454Y-61044855D01*
X104724158Y-61061575D01*
X104538597Y-61191505D01*
X104371505Y-61358597D01*
X104235965Y-61552169D01*
X104235964Y-61552171D01*
X104136098Y-61766335D01*
X104136094Y-61766344D01*
X104074938Y-61994586D01*
X104074936Y-61994596D01*
X104054341Y-62229999D01*
X104054341Y-62230000D01*
X104074936Y-62465403D01*
X104074938Y-62465413D01*
X104136094Y-62693655D01*
X104136096Y-62693659D01*
X104136097Y-62693663D01*
X104234861Y-62905462D01*
X104235965Y-62907830D01*
X104235967Y-62907834D01*
X104341689Y-63058820D01*
X104371505Y-63101401D01*
X104538599Y-63268495D01*
X104598290Y-63310291D01*
X104732165Y-63404032D01*
X104732167Y-63404033D01*
X104732170Y-63404035D01*
X104946337Y-63503903D01*
X104946343Y-63503904D01*
X104946344Y-63503905D01*
X104968427Y-63509822D01*
X105174592Y-63565063D01*
X105362918Y-63581539D01*
X105409999Y-63585659D01*
X105410000Y-63585659D01*
X105410001Y-63585659D01*
X105449234Y-63582226D01*
X105645408Y-63565063D01*
X105873663Y-63503903D01*
X106087830Y-63404035D01*
X106281401Y-63268495D01*
X106319819Y-63230077D01*
X106381142Y-63196592D01*
X106450834Y-63201576D01*
X106506767Y-63243448D01*
X106531184Y-63308912D01*
X106531500Y-63317758D01*
X106531500Y-64695539D01*
X106511815Y-64762578D01*
X106459011Y-64808333D01*
X106389853Y-64818277D01*
X106375408Y-64815314D01*
X106289989Y-64792427D01*
X106289976Y-64792424D01*
X106070001Y-64773179D01*
X106069999Y-64773179D01*
X105850023Y-64792424D01*
X105850013Y-64792426D01*
X105636729Y-64849575D01*
X105636720Y-64849579D01*
X105436590Y-64942901D01*
X105371811Y-64988258D01*
X106042553Y-65659000D01*
X106038431Y-65659000D01*
X105944579Y-65674661D01*
X105832749Y-65735180D01*
X105746629Y-65828731D01*
X105695552Y-65945177D01*
X105689894Y-66013447D01*
X105018258Y-65341811D01*
X104972901Y-65406590D01*
X104912658Y-65535781D01*
X104866485Y-65588220D01*
X104799292Y-65607372D01*
X104732411Y-65587156D01*
X104687894Y-65535781D01*
X104659581Y-65475064D01*
X104627534Y-65406339D01*
X104500826Y-65225380D01*
X104344620Y-65069174D01*
X104344616Y-65069171D01*
X104344615Y-65069170D01*
X104163666Y-64942468D01*
X104163662Y-64942466D01*
X104163660Y-64942465D01*
X103963450Y-64849106D01*
X103963447Y-64849105D01*
X103963445Y-64849104D01*
X103750070Y-64791930D01*
X103750062Y-64791929D01*
X103530002Y-64772677D01*
X103529998Y-64772677D01*
X103309937Y-64791929D01*
X103309929Y-64791930D01*
X103096554Y-64849104D01*
X103096548Y-64849107D01*
X102896340Y-64942465D01*
X102896338Y-64942466D01*
X102715377Y-65069175D01*
X102559175Y-65225377D01*
X102432466Y-65406338D01*
X102432465Y-65406340D01*
X102400419Y-65475063D01*
X102346961Y-65589706D01*
X102339107Y-65606548D01*
X102339104Y-65606554D01*
X102281930Y-65819929D01*
X102281929Y-65819937D01*
X102262677Y-66039997D01*
X102262677Y-66040002D01*
X102281929Y-66260062D01*
X102281930Y-66260070D01*
X102339104Y-66473445D01*
X102339105Y-66473447D01*
X102339106Y-66473450D01*
X102399905Y-66603834D01*
X102432466Y-66673662D01*
X102432468Y-66673666D01*
X102559170Y-66854615D01*
X102559175Y-66854621D01*
X102715378Y-67010824D01*
X102715384Y-67010829D01*
X102896333Y-67137531D01*
X102896335Y-67137532D01*
X102896338Y-67137534D01*
X103096550Y-67230894D01*
X103309932Y-67288070D01*
X103467123Y-67301822D01*
X103529998Y-67307323D01*
X103530000Y-67307323D01*
X103530002Y-67307323D01*
X103585017Y-67302509D01*
X103750068Y-67288070D01*
X103963450Y-67230894D01*
X104163662Y-67137534D01*
X104344620Y-67010826D01*
X104500826Y-66854620D01*
X104627534Y-66673662D01*
X104687894Y-66544218D01*
X104734066Y-66491779D01*
X104801259Y-66472627D01*
X104868141Y-66492843D01*
X104912658Y-66544219D01*
X104972898Y-66673405D01*
X104972901Y-66673411D01*
X105018258Y-66738187D01*
X105018259Y-66738188D01*
X105685096Y-66071350D01*
X105685051Y-66071898D01*
X105716266Y-66195162D01*
X105785813Y-66301612D01*
X105886157Y-66379713D01*
X106006422Y-66421000D01*
X106042551Y-66421000D01*
X105371810Y-67091740D01*
X105436590Y-67137099D01*
X105436592Y-67137100D01*
X105636715Y-67230419D01*
X105636729Y-67230424D01*
X105850013Y-67287573D01*
X105850023Y-67287575D01*
X106069999Y-67306821D01*
X106070001Y-67306821D01*
X106289976Y-67287575D01*
X106289990Y-67287572D01*
X106375405Y-67264685D01*
X106445255Y-67266347D01*
X106503118Y-67305508D01*
X106530623Y-67369736D01*
X106531500Y-67384459D01*
X106531500Y-87502546D01*
X106511815Y-87569585D01*
X106495181Y-87590227D01*
X103913794Y-90171613D01*
X103852471Y-90205098D01*
X103794020Y-90203707D01*
X103750068Y-90191930D01*
X103615899Y-90180192D01*
X103530002Y-90172677D01*
X103529998Y-90172677D01*
X103309937Y-90191929D01*
X103309929Y-90191930D01*
X103096554Y-90249104D01*
X103096548Y-90249107D01*
X102896340Y-90342465D01*
X102896338Y-90342466D01*
X102715377Y-90469175D01*
X102559175Y-90625377D01*
X102432466Y-90806338D01*
X102432465Y-90806340D01*
X102339107Y-91006548D01*
X102339104Y-91006554D01*
X102281930Y-91219929D01*
X102281929Y-91219937D01*
X102262677Y-91439997D01*
X102262677Y-91440002D01*
X101600500Y-91440002D01*
X101600500Y-88392000D01*
X102094636Y-88392000D01*
X102100694Y-88453504D01*
X102101961Y-88466371D01*
X102102558Y-88478525D01*
X102102558Y-88492603D01*
X102102559Y-88492606D01*
X102105304Y-88506409D01*
X102107088Y-88518438D01*
X102114415Y-88592819D01*
X102136109Y-88664339D01*
X102139063Y-88676132D01*
X102141810Y-88689937D01*
X102141811Y-88689941D01*
X102141812Y-88689944D01*
X102145769Y-88699498D01*
X102147202Y-88702957D01*
X102151295Y-88714397D01*
X102172992Y-88785921D01*
X102172994Y-88785926D01*
X102208218Y-88851825D01*
X102213420Y-88862824D01*
X102218805Y-88875825D01*
X102218815Y-88875843D01*
X102226629Y-88887537D01*
X102232884Y-88897971D01*
X102237116Y-88905888D01*
X102268113Y-88963882D01*
X102268115Y-88963885D01*
X102315522Y-89021650D01*
X102322770Y-89031423D01*
X102330591Y-89043128D01*
X102330595Y-89043133D01*
X102340545Y-89053082D01*
X102348721Y-89062102D01*
X102396129Y-89119870D01*
X102415158Y-89135486D01*
X102453895Y-89167277D01*
X102453897Y-89167278D01*
X102462914Y-89175451D01*
X102472869Y-89185406D01*
X102484585Y-89193234D01*
X102494341Y-89200470D01*
X102518158Y-89220016D01*
X102552113Y-89247883D01*
X102552114Y-89247883D01*
X102552116Y-89247885D01*
X102589156Y-89267683D01*
X102618030Y-89283117D01*
X102628469Y-89289375D01*
X102640159Y-89297186D01*
X102640161Y-89297187D01*
X102640166Y-89297190D01*
X102653181Y-89302581D01*
X102664160Y-89307774D01*
X102730079Y-89343008D01*
X102801605Y-89364705D01*
X102813045Y-89368798D01*
X102826056Y-89374188D01*
X102833049Y-89375579D01*
X102839865Y-89376935D01*
X102851659Y-89379889D01*
X102923181Y-89401585D01*
X102923180Y-89401585D01*
X102956483Y-89404865D01*
X102997556Y-89408910D01*
X103009586Y-89410694D01*
X103023397Y-89413442D01*
X103037474Y-89413442D01*
X103049628Y-89414039D01*
X103124000Y-89421364D01*
X103198372Y-89414039D01*
X103210526Y-89413442D01*
X103224601Y-89413442D01*
X103224603Y-89413442D01*
X103238428Y-89410691D01*
X103250432Y-89408911D01*
X103324819Y-89401585D01*
X103396364Y-89379881D01*
X103408109Y-89376939D01*
X103421944Y-89374188D01*
X103434968Y-89368793D01*
X103446376Y-89364710D01*
X103517921Y-89343008D01*
X103583853Y-89307766D01*
X103594818Y-89302581D01*
X103607834Y-89297190D01*
X103619553Y-89289359D01*
X103629937Y-89283133D01*
X103695884Y-89247885D01*
X103753671Y-89200460D01*
X103763411Y-89193236D01*
X103775131Y-89185406D01*
X103785090Y-89175446D01*
X103794086Y-89167291D01*
X103851870Y-89119870D01*
X103899291Y-89062086D01*
X103907446Y-89053090D01*
X103917406Y-89043131D01*
X103925236Y-89031411D01*
X103932460Y-89021671D01*
X103979885Y-88963884D01*
X104015133Y-88897937D01*
X104021359Y-88887553D01*
X104029190Y-88875834D01*
X104034581Y-88862818D01*
X104039766Y-88851853D01*
X104075008Y-88785921D01*
X104096710Y-88714376D01*
X104100793Y-88702968D01*
X104106188Y-88689944D01*
X104108939Y-88676109D01*
X104111881Y-88664364D01*
X104133585Y-88592819D01*
X104140911Y-88518438D01*
X104142696Y-88506407D01*
X104145441Y-88492606D01*
X104145442Y-88492603D01*
X104145988Y-88470282D01*
X104146542Y-88461257D01*
X104153364Y-88392000D01*
X104146543Y-88322747D01*
X104145988Y-88313713D01*
X104145442Y-88291397D01*
X104142694Y-88277586D01*
X104140910Y-88265555D01*
X104137860Y-88234592D01*
X104133585Y-88191181D01*
X104111889Y-88119659D01*
X104108935Y-88107865D01*
X104106189Y-88094062D01*
X104106188Y-88094056D01*
X104100798Y-88081045D01*
X104096702Y-88069596D01*
X104075008Y-87998079D01*
X104039774Y-87932160D01*
X104034581Y-87921181D01*
X104029190Y-87908166D01*
X104029187Y-87908161D01*
X104029186Y-87908159D01*
X104029187Y-87908159D01*
X104021375Y-87896469D01*
X104015117Y-87886030D01*
X103997204Y-87852518D01*
X103979885Y-87820116D01*
X103979883Y-87820114D01*
X103979883Y-87820113D01*
X103959765Y-87795600D01*
X103932470Y-87762341D01*
X103925234Y-87752585D01*
X103917406Y-87740869D01*
X103907448Y-87730911D01*
X103899278Y-87721897D01*
X103851870Y-87664129D01*
X103794102Y-87616721D01*
X103785082Y-87608545D01*
X103775133Y-87598595D01*
X103775128Y-87598591D01*
X103763423Y-87590770D01*
X103753650Y-87583522D01*
X103695885Y-87536115D01*
X103695882Y-87536113D01*
X103650294Y-87511746D01*
X103629971Y-87500884D01*
X103619537Y-87494629D01*
X103607843Y-87486815D01*
X103607825Y-87486805D01*
X103594824Y-87481420D01*
X103583825Y-87476218D01*
X103517926Y-87440994D01*
X103517923Y-87440993D01*
X103517921Y-87440992D01*
X103446397Y-87419295D01*
X103434957Y-87415202D01*
X103431498Y-87413769D01*
X103421944Y-87409812D01*
X103421941Y-87409811D01*
X103421937Y-87409810D01*
X103408132Y-87407063D01*
X103396339Y-87404109D01*
X103324819Y-87382415D01*
X103250438Y-87375088D01*
X103238409Y-87373304D01*
X103234757Y-87372577D01*
X103224603Y-87370558D01*
X103224600Y-87370558D01*
X103210526Y-87370558D01*
X103198372Y-87369961D01*
X103124000Y-87362636D01*
X103049628Y-87369961D01*
X103037474Y-87370558D01*
X103023400Y-87370558D01*
X103023397Y-87370558D01*
X103013242Y-87372577D01*
X103009591Y-87373304D01*
X102997562Y-87375088D01*
X102923179Y-87382415D01*
X102923177Y-87382415D01*
X102851662Y-87404108D01*
X102839874Y-87407062D01*
X102826055Y-87409812D01*
X102826047Y-87409814D01*
X102813050Y-87415198D01*
X102801598Y-87419296D01*
X102730075Y-87440993D01*
X102664160Y-87476224D01*
X102653171Y-87481422D01*
X102640169Y-87486808D01*
X102640158Y-87486814D01*
X102628461Y-87494630D01*
X102618028Y-87500883D01*
X102552114Y-87536115D01*
X102494342Y-87583528D01*
X102484570Y-87590775D01*
X102472875Y-87598589D01*
X102472864Y-87598598D01*
X102462911Y-87608551D01*
X102453899Y-87616719D01*
X102396130Y-87664130D01*
X102348719Y-87721899D01*
X102340551Y-87730911D01*
X102330598Y-87740864D01*
X102330589Y-87740875D01*
X102322775Y-87752570D01*
X102315528Y-87762342D01*
X102268115Y-87820114D01*
X102232883Y-87886028D01*
X102226630Y-87896461D01*
X102218814Y-87908158D01*
X102218808Y-87908169D01*
X102213422Y-87921171D01*
X102208224Y-87932160D01*
X102172993Y-87998075D01*
X102151296Y-88069598D01*
X102147198Y-88081050D01*
X102141814Y-88094047D01*
X102141812Y-88094055D01*
X102139062Y-88107874D01*
X102136108Y-88119662D01*
X102114415Y-88191177D01*
X102114415Y-88191179D01*
X102107088Y-88265562D01*
X102105304Y-88277591D01*
X102102558Y-88291399D01*
X102102558Y-88305473D01*
X102101961Y-88317627D01*
X102094636Y-88392000D01*
X101600500Y-88392000D01*
X101600500Y-52316093D01*
X102094636Y-52316093D01*
X102101961Y-52390465D01*
X102102558Y-52402619D01*
X102102558Y-52416697D01*
X102102559Y-52416700D01*
X102105304Y-52430503D01*
X102107088Y-52442532D01*
X102114415Y-52516913D01*
X102136109Y-52588433D01*
X102139063Y-52600226D01*
X102141810Y-52614031D01*
X102141811Y-52614035D01*
X102141812Y-52614038D01*
X102145084Y-52621937D01*
X102147202Y-52627051D01*
X102151295Y-52638491D01*
X102172992Y-52710015D01*
X102172994Y-52710020D01*
X102208218Y-52775919D01*
X102213420Y-52786918D01*
X102218805Y-52799919D01*
X102218815Y-52799937D01*
X102226629Y-52811631D01*
X102232884Y-52822065D01*
X102243746Y-52842388D01*
X102268113Y-52887976D01*
X102268115Y-52887979D01*
X102315522Y-52945744D01*
X102322770Y-52955517D01*
X102330591Y-52967222D01*
X102330595Y-52967227D01*
X102340545Y-52977176D01*
X102348721Y-52986196D01*
X102396129Y-53043964D01*
X102405763Y-53051870D01*
X102453895Y-53091371D01*
X102453897Y-53091372D01*
X102462914Y-53099545D01*
X102472869Y-53109500D01*
X102484585Y-53117328D01*
X102494341Y-53124564D01*
X102527600Y-53151859D01*
X102552113Y-53171977D01*
X102552114Y-53171977D01*
X102552116Y-53171979D01*
X102589156Y-53191777D01*
X102618030Y-53207211D01*
X102628469Y-53213469D01*
X102640159Y-53221280D01*
X102640161Y-53221281D01*
X102640166Y-53221284D01*
X102653181Y-53226675D01*
X102664160Y-53231868D01*
X102730079Y-53267102D01*
X102801605Y-53288799D01*
X102813045Y-53292892D01*
X102826056Y-53298282D01*
X102833049Y-53299673D01*
X102839865Y-53301029D01*
X102851659Y-53303983D01*
X102923181Y-53325679D01*
X102923180Y-53325679D01*
X102944137Y-53327743D01*
X102997556Y-53333004D01*
X103009586Y-53334788D01*
X103023397Y-53337536D01*
X103037474Y-53337536D01*
X103049628Y-53338133D01*
X103124000Y-53345458D01*
X103198372Y-53338133D01*
X103210526Y-53337536D01*
X103224601Y-53337536D01*
X103224603Y-53337536D01*
X103238428Y-53334785D01*
X103250432Y-53333005D01*
X103324819Y-53325679D01*
X103396364Y-53303975D01*
X103408109Y-53301033D01*
X103421944Y-53298282D01*
X103434968Y-53292887D01*
X103446376Y-53288804D01*
X103517921Y-53267102D01*
X103519233Y-53266401D01*
X103531208Y-53260000D01*
X103583853Y-53231860D01*
X103594818Y-53226675D01*
X103607834Y-53221284D01*
X103619553Y-53213453D01*
X103629937Y-53207227D01*
X103695884Y-53171979D01*
X103753671Y-53124554D01*
X103763411Y-53117330D01*
X103775131Y-53109500D01*
X103785090Y-53099540D01*
X103794086Y-53091385D01*
X103851870Y-53043964D01*
X103899291Y-52986180D01*
X103907446Y-52977184D01*
X103917406Y-52967225D01*
X103925236Y-52955505D01*
X103932460Y-52945765D01*
X103979885Y-52887978D01*
X104015133Y-52822031D01*
X104021359Y-52811647D01*
X104029190Y-52799928D01*
X104034581Y-52786912D01*
X104039766Y-52775947D01*
X104075008Y-52710015D01*
X104096710Y-52638470D01*
X104100793Y-52627062D01*
X104106188Y-52614038D01*
X104108939Y-52600203D01*
X104111881Y-52588458D01*
X104133585Y-52516913D01*
X104140911Y-52442532D01*
X104142696Y-52430501D01*
X104145441Y-52416700D01*
X104145442Y-52416697D01*
X104145988Y-52394376D01*
X104146542Y-52385351D01*
X104152585Y-52324000D01*
X160895636Y-52324000D01*
X160902961Y-52398371D01*
X160903558Y-52410525D01*
X160903558Y-52424603D01*
X160903559Y-52424606D01*
X160906304Y-52438409D01*
X160908088Y-52450438D01*
X160915415Y-52524819D01*
X160937109Y-52596339D01*
X160940063Y-52608132D01*
X160942810Y-52621937D01*
X160942811Y-52621941D01*
X160942812Y-52621944D01*
X160946769Y-52631498D01*
X160948202Y-52634957D01*
X160952295Y-52646397D01*
X160973992Y-52717921D01*
X160973994Y-52717926D01*
X161009218Y-52783825D01*
X161014420Y-52794824D01*
X161019805Y-52807825D01*
X161019815Y-52807843D01*
X161027629Y-52819537D01*
X161033888Y-52829978D01*
X161069113Y-52895882D01*
X161069115Y-52895885D01*
X161116522Y-52953650D01*
X161123770Y-52963423D01*
X161131591Y-52975128D01*
X161131595Y-52975133D01*
X161141545Y-52985082D01*
X161149721Y-52994102D01*
X161197129Y-53051870D01*
X161236838Y-53084458D01*
X161254895Y-53099277D01*
X161254897Y-53099278D01*
X161263914Y-53107451D01*
X161273869Y-53117406D01*
X161285585Y-53125234D01*
X161295341Y-53132470D01*
X161295351Y-53132478D01*
X161353113Y-53179883D01*
X161353114Y-53179883D01*
X161353116Y-53179885D01*
X161390156Y-53199683D01*
X161419030Y-53215117D01*
X161429469Y-53221375D01*
X161441159Y-53229186D01*
X161441161Y-53229187D01*
X161441166Y-53229190D01*
X161454181Y-53234581D01*
X161465160Y-53239774D01*
X161531079Y-53275008D01*
X161602605Y-53296705D01*
X161614045Y-53300798D01*
X161627056Y-53306188D01*
X161634049Y-53307579D01*
X161640865Y-53308935D01*
X161652659Y-53311889D01*
X161724181Y-53333585D01*
X161724180Y-53333585D01*
X161736395Y-53334788D01*
X161798556Y-53340910D01*
X161810586Y-53342694D01*
X161824397Y-53345442D01*
X161838474Y-53345442D01*
X161850628Y-53346039D01*
X161925000Y-53353364D01*
X161999372Y-53346039D01*
X162011526Y-53345442D01*
X162025601Y-53345442D01*
X162025603Y-53345442D01*
X162039428Y-53342691D01*
X162051432Y-53340911D01*
X162125819Y-53333585D01*
X162197364Y-53311881D01*
X162209109Y-53308939D01*
X162222944Y-53306188D01*
X162235968Y-53300793D01*
X162247376Y-53296710D01*
X162318921Y-53275008D01*
X162384853Y-53239766D01*
X162395818Y-53234581D01*
X162408834Y-53229190D01*
X162420553Y-53221359D01*
X162430937Y-53215133D01*
X162496884Y-53179885D01*
X162554671Y-53132460D01*
X162564411Y-53125236D01*
X162576131Y-53117406D01*
X162586090Y-53107446D01*
X162595086Y-53099291D01*
X162652870Y-53051870D01*
X162700291Y-52994086D01*
X162708446Y-52985090D01*
X162718406Y-52975131D01*
X162726236Y-52963411D01*
X162733460Y-52953671D01*
X162780885Y-52895884D01*
X162816133Y-52829937D01*
X162822359Y-52819553D01*
X162830190Y-52807834D01*
X162835581Y-52794818D01*
X162840766Y-52783853D01*
X162876008Y-52717921D01*
X162897710Y-52646376D01*
X162901793Y-52634968D01*
X162907188Y-52621944D01*
X162909939Y-52608109D01*
X162912881Y-52596364D01*
X162934585Y-52524819D01*
X162941911Y-52450438D01*
X162943696Y-52438407D01*
X162945268Y-52430503D01*
X162946442Y-52424603D01*
X162946988Y-52402282D01*
X162947542Y-52393257D01*
X162954364Y-52324000D01*
X162947543Y-52254747D01*
X162946988Y-52245713D01*
X162946442Y-52223397D01*
X162943694Y-52209586D01*
X162941910Y-52197555D01*
X162941131Y-52189649D01*
X162934585Y-52123181D01*
X162912889Y-52051659D01*
X162909935Y-52039865D01*
X162907189Y-52026062D01*
X162907188Y-52026056D01*
X162901798Y-52013045D01*
X162897702Y-52001596D01*
X162876008Y-51930079D01*
X162840774Y-51864160D01*
X162835581Y-51853181D01*
X162830190Y-51840166D01*
X162830187Y-51840161D01*
X162830186Y-51840159D01*
X162830187Y-51840159D01*
X162822375Y-51828469D01*
X162816117Y-51818030D01*
X162780883Y-51752113D01*
X162760765Y-51727600D01*
X162733470Y-51694341D01*
X162726234Y-51684585D01*
X162718406Y-51672869D01*
X162708448Y-51662911D01*
X162700278Y-51653897D01*
X162693791Y-51645993D01*
X162656327Y-51600342D01*
X162652870Y-51596129D01*
X162595102Y-51548721D01*
X162586082Y-51540545D01*
X162576133Y-51530595D01*
X162576128Y-51530591D01*
X162564423Y-51522770D01*
X162554650Y-51515522D01*
X162496885Y-51468115D01*
X162496882Y-51468113D01*
X162451294Y-51443746D01*
X162430971Y-51432884D01*
X162420537Y-51426629D01*
X162408843Y-51418815D01*
X162408825Y-51418805D01*
X162395824Y-51413420D01*
X162384825Y-51408218D01*
X162318926Y-51372994D01*
X162318923Y-51372993D01*
X162318921Y-51372992D01*
X162247397Y-51351295D01*
X162235957Y-51347202D01*
X162226763Y-51343394D01*
X162222944Y-51341812D01*
X162222941Y-51341811D01*
X162222937Y-51341810D01*
X162209132Y-51339063D01*
X162197339Y-51336109D01*
X162125819Y-51314415D01*
X162051438Y-51307088D01*
X162039409Y-51305304D01*
X162035757Y-51304577D01*
X162025603Y-51302558D01*
X162025600Y-51302558D01*
X162011526Y-51302558D01*
X161999372Y-51301961D01*
X161925000Y-51294636D01*
X161850628Y-51301961D01*
X161838474Y-51302558D01*
X161824400Y-51302558D01*
X161824397Y-51302558D01*
X161814242Y-51304577D01*
X161810591Y-51305304D01*
X161798562Y-51307088D01*
X161724179Y-51314415D01*
X161724177Y-51314415D01*
X161652662Y-51336108D01*
X161640874Y-51339062D01*
X161627055Y-51341812D01*
X161627047Y-51341814D01*
X161614050Y-51347198D01*
X161602598Y-51351296D01*
X161531075Y-51372993D01*
X161465160Y-51408224D01*
X161454171Y-51413422D01*
X161441169Y-51418808D01*
X161441158Y-51418814D01*
X161429461Y-51426630D01*
X161419028Y-51432883D01*
X161353114Y-51468115D01*
X161295342Y-51515528D01*
X161285570Y-51522775D01*
X161273875Y-51530589D01*
X161273864Y-51530598D01*
X161263911Y-51540551D01*
X161254899Y-51548719D01*
X161197130Y-51596130D01*
X161149719Y-51653899D01*
X161141551Y-51662911D01*
X161131598Y-51672864D01*
X161131589Y-51672875D01*
X161123775Y-51684570D01*
X161116528Y-51694342D01*
X161069115Y-51752114D01*
X161033883Y-51818028D01*
X161027630Y-51828461D01*
X161019814Y-51840158D01*
X161019808Y-51840169D01*
X161014422Y-51853171D01*
X161009224Y-51864160D01*
X160973993Y-51930075D01*
X160952296Y-52001598D01*
X160948198Y-52013050D01*
X160942814Y-52026047D01*
X160942812Y-52026055D01*
X160940062Y-52039874D01*
X160937108Y-52051662D01*
X160915415Y-52123177D01*
X160915415Y-52123179D01*
X160908088Y-52197562D01*
X160906304Y-52209591D01*
X160903558Y-52223399D01*
X160903558Y-52237473D01*
X160902961Y-52249627D01*
X160895636Y-52324000D01*
X104152585Y-52324000D01*
X104153364Y-52316094D01*
X104146543Y-52246841D01*
X104145988Y-52237807D01*
X104145442Y-52215491D01*
X104142694Y-52201680D01*
X104140910Y-52189649D01*
X104133585Y-52115275D01*
X104133584Y-52115271D01*
X104111889Y-52043753D01*
X104108935Y-52031959D01*
X104106189Y-52018156D01*
X104106188Y-52018150D01*
X104100798Y-52005139D01*
X104096702Y-51993690D01*
X104075008Y-51922173D01*
X104039774Y-51856254D01*
X104034581Y-51845275D01*
X104029190Y-51832260D01*
X104029187Y-51832255D01*
X104029186Y-51832253D01*
X104029187Y-51832253D01*
X104021375Y-51820563D01*
X104015117Y-51810124D01*
X103984111Y-51752116D01*
X103979885Y-51744210D01*
X103979883Y-51744208D01*
X103979883Y-51744207D01*
X103959765Y-51719694D01*
X103932470Y-51686435D01*
X103925234Y-51676679D01*
X103917406Y-51664963D01*
X103907448Y-51655005D01*
X103899278Y-51645991D01*
X103851870Y-51588223D01*
X103794102Y-51540815D01*
X103785082Y-51532639D01*
X103775133Y-51522689D01*
X103775128Y-51522685D01*
X103763423Y-51514864D01*
X103753650Y-51507616D01*
X103695885Y-51460209D01*
X103695882Y-51460207D01*
X103644770Y-51432888D01*
X103629971Y-51424978D01*
X103619537Y-51418723D01*
X103607843Y-51410909D01*
X103607825Y-51410899D01*
X103594824Y-51405514D01*
X103583825Y-51400312D01*
X103517926Y-51365088D01*
X103517923Y-51365087D01*
X103517921Y-51365086D01*
X103446397Y-51343389D01*
X103434957Y-51339296D01*
X103431498Y-51337863D01*
X103421944Y-51333906D01*
X103421941Y-51333905D01*
X103421937Y-51333904D01*
X103408132Y-51331157D01*
X103396339Y-51328203D01*
X103324819Y-51306509D01*
X103250438Y-51299182D01*
X103238409Y-51297398D01*
X103234757Y-51296671D01*
X103224603Y-51294652D01*
X103224600Y-51294652D01*
X103210526Y-51294652D01*
X103198372Y-51294055D01*
X103124000Y-51286730D01*
X103049628Y-51294055D01*
X103037474Y-51294652D01*
X103023400Y-51294652D01*
X103023397Y-51294652D01*
X103013242Y-51296671D01*
X103009591Y-51297398D01*
X102997562Y-51299182D01*
X102923179Y-51306509D01*
X102923177Y-51306509D01*
X102851662Y-51328202D01*
X102839874Y-51331156D01*
X102826055Y-51333906D01*
X102826047Y-51333908D01*
X102813050Y-51339292D01*
X102801598Y-51343390D01*
X102730075Y-51365087D01*
X102664160Y-51400318D01*
X102653171Y-51405516D01*
X102640169Y-51410902D01*
X102640158Y-51410908D01*
X102628461Y-51418724D01*
X102618028Y-51424977D01*
X102552114Y-51460209D01*
X102494342Y-51507622D01*
X102484570Y-51514869D01*
X102472875Y-51522683D01*
X102472864Y-51522692D01*
X102462911Y-51532645D01*
X102453899Y-51540813D01*
X102396130Y-51588224D01*
X102348719Y-51645993D01*
X102340551Y-51655005D01*
X102330598Y-51664958D01*
X102330589Y-51664969D01*
X102322775Y-51676664D01*
X102315528Y-51686436D01*
X102268115Y-51744208D01*
X102232883Y-51810122D01*
X102226630Y-51820555D01*
X102218814Y-51832252D01*
X102218808Y-51832263D01*
X102213422Y-51845265D01*
X102208224Y-51856254D01*
X102172993Y-51922169D01*
X102151296Y-51993692D01*
X102147198Y-52005144D01*
X102141814Y-52018141D01*
X102141812Y-52018149D01*
X102139062Y-52031968D01*
X102136108Y-52043756D01*
X102114415Y-52115271D01*
X102114415Y-52115273D01*
X102107088Y-52189656D01*
X102105304Y-52201685D01*
X102102558Y-52215493D01*
X102102558Y-52229567D01*
X102101961Y-52241721D01*
X102094636Y-52316093D01*
X101600500Y-52316093D01*
X101600500Y-50924500D01*
X101620185Y-50857461D01*
X101672989Y-50811706D01*
X101724500Y-50800500D01*
X222125500Y-50800500D01*
X222192539Y-50820185D01*
G37*
%TD.AperFunction*%
%TD*%
M02*
